<?xml version="1.0" encoding="UTF-8" standalone="no"?>
<!DOCTYPE svg PUBLIC "-//W3C//DTD SVG 1.1//EN"
 "http://www.w3.org/Graphics/SVG/1.1/DTD/svg11.dtd">
<!-- Generated by graphviz version 2.43.0 (0)
 -->
<!-- Title: G Pages: 1 -->
<svg width="147pt" height="260pt"
 viewBox="0.00 0.00 146.93 260.00" xmlns="http://www.w3.org/2000/svg" xmlns:xlink="http://www.w3.org/1999/xlink">
<g id="graph0" class="graph" transform="scale(1 1) rotate(0) translate(4 256)">
<title>G</title>
<polygon fill="white" stroke="transparent" points="-4,4 -4,-256 142.93,-256 142.93,4 -4,4"/>
<!-- k2 -->
<g id="node1" class="node">
<title>k2</title>
<ellipse fill="none" stroke="black" cx="99" cy="-234" rx="27" ry="18"/>
<text text-anchor="middle" x="99" y="-230.3" font-family="Times,serif" font-size="14.00">k2</text>
</g>
<!-- k1 -->
<g id="node2" class="node">
<title>k1</title>
<ellipse fill="none" stroke="black" cx="99" cy="-162" rx="27" ry="18"/>
<text text-anchor="middle" x="99" y="-158.3" font-family="Times,serif" font-size="14.00">k1</text>
</g>
<!-- k2&#45;&gt;k1 -->
<g id="edge1" class="edge">
<title>k2&#45;&gt;k1</title>
<path fill="none" stroke="black" d="M99,-215.7C99,-207.98 99,-198.71 99,-190.11"/>
<polygon fill="black" stroke="black" points="102.5,-190.1 99,-180.1 95.5,-190.1 102.5,-190.1"/>
</g>
<!-- k4 -->
<g id="node4" class="node">
<title>k4</title>
<ellipse fill="none" stroke="black" cx="27" cy="-90" rx="27" ry="18"/>
<text text-anchor="middle" x="27" y="-86.3" font-family="Times,serif" font-size="14.00">k4</text>
</g>
<!-- k1&#45;&gt;k4 -->
<g id="edge4" class="edge">
<title>k1&#45;&gt;k4</title>
<path fill="none" stroke="black" d="M84.43,-146.83C74.25,-136.94 60.48,-123.55 48.97,-112.36"/>
<polygon fill="black" stroke="black" points="51.41,-109.85 41.8,-105.38 46.53,-114.87 51.41,-109.85"/>
</g>
<!-- b0 -->
<g id="node5" class="node">
<title>b0</title>
<ellipse fill="none" stroke="black" cx="99" cy="-90" rx="27" ry="18"/>
<text text-anchor="middle" x="99" y="-86.3" font-family="Times,serif" font-size="14.00">b0</text>
</g>
<!-- k1&#45;&gt;b0 -->
<g id="edge5" class="edge">
<title>k1&#45;&gt;b0</title>
<path fill="none" stroke="black" d="M99,-143.7C99,-135.98 99,-126.71 99,-118.11"/>
<polygon fill="black" stroke="black" points="102.5,-118.1 99,-108.1 95.5,-118.1 102.5,-118.1"/>
</g>
<!-- k3 -->
<g id="node3" class="node">
<title>k3</title>
<ellipse fill="none" stroke="black" cx="90" cy="-18" rx="27" ry="18"/>
<text text-anchor="middle" x="90" y="-14.3" font-family="Times,serif" font-size="14.00">k3</text>
</g>
<!-- k3&#45;&gt;k1 -->
<g id="edge2" class="edge">
<title>k3&#45;&gt;k1</title>
<path fill="none" stroke="black" d="M106.21,-32.43C116.63,-42.18 129.26,-56.36 135,-72 140.52,-87.02 139.7,-92.71 135,-108 131.71,-118.69 125.46,-129.15 119.07,-137.92"/>
<polygon fill="black" stroke="black" points="116.12,-136.02 112.75,-146.07 121.65,-140.31 116.12,-136.02"/>
</g>
<!-- k4&#45;&gt;k3 -->
<g id="edge3" class="edge">
<title>k4&#45;&gt;k3</title>
<path fill="none" stroke="black" d="M40.36,-74.15C48.88,-64.69 60.09,-52.24 69.69,-41.56"/>
<polygon fill="black" stroke="black" points="72.57,-43.6 76.66,-33.82 67.37,-38.92 72.57,-43.6"/>
</g>
</g>
</svg>
