<?xml version="1.0" encoding="UTF-8" standalone="no"?>
<!DOCTYPE svg PUBLIC "-//W3C//DTD SVG 1.1//EN"
 "http://www.w3.org/Graphics/SVG/1.1/DTD/svg11.dtd">
<!-- Generated by graphviz version 2.43.0 (0)
 -->
<!-- Title: print Pages: 1 -->
<svg width="1263pt" height="604pt"
 viewBox="0.00 0.00 1262.65 604.00" xmlns="http://www.w3.org/2000/svg" xmlns:xlink="http://www.w3.org/1999/xlink">
<g id="graph0" class="graph" transform="scale(1 1) rotate(0) translate(4 600)">
<title>print</title>
<polygon fill="white" stroke="transparent" points="-4,4 -4,-600 1258.65,-600 1258.65,4 -4,4"/>
<!-- a3 -->
<g id="node1" class="node">
<title>a3</title>
<ellipse fill="none" stroke="black" cx="129.29" cy="-364" rx="27" ry="18"/>
<text text-anchor="middle" x="129.29" y="-360.3" font-family="Times,serif" font-size="14.00">a3</text>
</g>
<!-- b1 -->
<g id="node26" class="node">
<title>b1</title>
<ellipse fill="none" stroke="black" cx="219.29" cy="-516" rx="27" ry="18"/>
<text text-anchor="middle" x="219.29" y="-512.3" font-family="Times,serif" font-size="14.00">b1</text>
</g>
<!-- a3&#45;&gt;b1 -->
<g id="edge37" class="edge">
<title>a3&#45;&gt;b1</title>
<path fill="none" stroke="black" d="M140.05,-380.85C155.38,-407.33 185.22,-458.87 203.29,-490.09"/>
<polygon fill="black" stroke="black" points="200.46,-492.18 208.5,-499.08 206.52,-488.67 200.46,-492.18"/>
</g>
<!-- a4 -->
<g id="node33" class="node">
<title>a4</title>
<ellipse fill="none" stroke="black" cx="219.29" cy="-318" rx="27" ry="18"/>
<text text-anchor="middle" x="219.29" y="-314.3" font-family="Times,serif" font-size="14.00">a4</text>
</g>
<!-- a3&#45;&gt;a4 -->
<g id="edge36" class="edge">
<title>a3&#45;&gt;a4</title>
<path fill="none" stroke="black" d="M151.15,-353.1C162.33,-347.26 176.29,-339.96 188.59,-333.53"/>
<polygon fill="black" stroke="black" points="190.35,-336.56 197.59,-328.82 187.11,-330.35 190.35,-336.56"/>
</g>
<!-- a14 -->
<g id="node2" class="node">
<title>a14</title>
<ellipse fill="none" stroke="black" cx="490.24" cy="-336" rx="27.9" ry="18"/>
<text text-anchor="middle" x="490.24" y="-332.3" font-family="Times,serif" font-size="14.00">a14</text>
</g>
<!-- a15 -->
<g id="node22" class="node">
<title>a15</title>
<ellipse fill="none" stroke="black" cx="582.14" cy="-290" rx="27.9" ry="18"/>
<text text-anchor="middle" x="582.14" y="-286.3" font-family="Times,serif" font-size="14.00">a15</text>
</g>
<!-- a14&#45;&gt;a15 -->
<g id="edge56" class="edge">
<title>a14&#45;&gt;a15</title>
<path fill="none" stroke="black" d="M512.55,-325.1C523.88,-319.3 538.02,-312.06 550.52,-305.67"/>
<polygon fill="black" stroke="black" points="552.37,-308.65 559.67,-300.98 549.18,-302.42 552.37,-308.65"/>
</g>
<!-- a12 -->
<g id="node3" class="node">
<title>a12</title>
<ellipse fill="none" stroke="black" cx="1134.81" cy="-280" rx="27.9" ry="18"/>
<text text-anchor="middle" x="1134.81" y="-276.3" font-family="Times,serif" font-size="14.00">a12</text>
</g>
<!-- a13 -->
<g id="node8" class="node">
<title>a13</title>
<ellipse fill="none" stroke="black" cx="674.03" cy="-290" rx="27.9" ry="18"/>
<text text-anchor="middle" x="674.03" y="-286.3" font-family="Times,serif" font-size="14.00">a13</text>
</g>
<!-- a12&#45;&gt;a13 -->
<g id="edge1" class="edge">
<title>a12&#45;&gt;a13</title>
<path fill="none" stroke="black" d="M1109.41,-272.01C1074.8,-261.4 1009.29,-244 952.02,-244 857.47,-244 857.47,-244 857.47,-244 803.7,-244 789.64,-248.06 737.98,-263 727.24,-266.1 715.91,-270.57 705.86,-274.97"/>
<polygon fill="black" stroke="black" points="704.34,-271.82 696.68,-279.13 707.24,-278.19 704.34,-271.82"/>
</g>
<!-- a17 -->
<g id="node4" class="node">
<title>a17</title>
<ellipse fill="none" stroke="black" cx="858.47" cy="-458" rx="27.9" ry="18"/>
<text text-anchor="middle" x="858.47" y="-454.3" font-family="Times,serif" font-size="14.00">a17</text>
</g>
<!-- a16 -->
<g id="node13" class="node">
<title>a16</title>
<ellipse fill="none" stroke="black" cx="951.02" cy="-412" rx="27.9" ry="18"/>
<text text-anchor="middle" x="951.02" y="-408.3" font-family="Times,serif" font-size="14.00">a16</text>
</g>
<!-- a17&#45;&gt;a16 -->
<g id="edge25" class="edge">
<title>a17&#45;&gt;a16</title>
<path fill="none" stroke="black" d="M880.93,-447.1C892.35,-441.3 906.59,-434.06 919.17,-427.67"/>
<polygon fill="black" stroke="black" points="921.07,-430.63 928.4,-422.98 917.9,-424.39 921.07,-430.63"/>
</g>
<!-- a18 -->
<g id="node30" class="node">
<title>a18</title>
<ellipse fill="none" stroke="black" cx="1134.81" cy="-416" rx="27.9" ry="18"/>
<text text-anchor="middle" x="1134.81" y="-412.3" font-family="Times,serif" font-size="14.00">a18</text>
</g>
<!-- a17&#45;&gt;a18 -->
<g id="edge24" class="edge">
<title>a17&#45;&gt;a18</title>
<path fill="none" stroke="black" d="M886.23,-454.62C926.41,-449.44 1004.68,-439 1070.86,-428 1079.62,-426.54 1089.03,-424.83 1097.84,-423.16"/>
<polygon fill="black" stroke="black" points="1098.67,-426.57 1107.82,-421.24 1097.34,-419.69 1098.67,-426.57"/>
</g>
<!-- b7 -->
<g id="node5" class="node">
<title>b7</title>
<ellipse fill="none" stroke="black" cx="582.14" cy="-462" rx="27" ry="18"/>
<text text-anchor="middle" x="582.14" y="-458.3" font-family="Times,serif" font-size="14.00">b7</text>
</g>
<!-- b8 -->
<g id="node38" class="node">
<title>b8</title>
<ellipse fill="none" stroke="black" cx="674.03" cy="-512" rx="27" ry="18"/>
<text text-anchor="middle" x="674.03" y="-508.3" font-family="Times,serif" font-size="14.00">b8</text>
</g>
<!-- b7&#45;&gt;b8 -->
<g id="edge26" class="edge">
<title>b7&#45;&gt;b8</title>
<path fill="none" stroke="black" d="M603.54,-473.35C615.37,-479.93 630.49,-488.34 643.6,-495.63"/>
<polygon fill="black" stroke="black" points="642.27,-498.9 652.71,-500.7 645.68,-492.78 642.27,-498.9"/>
</g>
<!-- c6 -->
<g id="node6" class="node">
<title>c6</title>
<ellipse fill="none" stroke="black" cx="858.47" cy="-76" rx="27" ry="18"/>
<text text-anchor="middle" x="858.47" y="-72.3" font-family="Times,serif" font-size="14.00">c6</text>
</g>
<!-- c7 -->
<g id="node39" class="node">
<title>c7</title>
<ellipse fill="none" stroke="black" cx="951.02" cy="-122" rx="27" ry="18"/>
<text text-anchor="middle" x="951.02" y="-118.3" font-family="Times,serif" font-size="14.00">c7</text>
</g>
<!-- c6&#45;&gt;c7 -->
<g id="edge39" class="edge">
<title>c6&#45;&gt;c7</title>
<path fill="none" stroke="black" d="M880.47,-86.67C892.24,-92.65 907.12,-100.21 920.09,-106.8"/>
<polygon fill="black" stroke="black" points="918.63,-109.98 929.13,-111.39 921.8,-103.74 918.63,-109.98"/>
</g>
<!-- a5 -->
<g id="node7" class="node">
<title>a5</title>
<ellipse fill="none" stroke="black" cx="309.29" cy="-318" rx="27" ry="18"/>
<text text-anchor="middle" x="309.29" y="-314.3" font-family="Times,serif" font-size="14.00">a5</text>
</g>
<!-- a6 -->
<g id="node17" class="node">
<title>a6</title>
<ellipse fill="none" stroke="black" cx="399.29" cy="-345" rx="27" ry="18"/>
<text text-anchor="middle" x="399.29" y="-341.3" font-family="Times,serif" font-size="14.00">a6</text>
</g>
<!-- a5&#45;&gt;a6 -->
<g id="edge6" class="edge">
<title>a5&#45;&gt;a6</title>
<path fill="none" stroke="black" d="M334.34,-325.38C343.73,-328.26 354.66,-331.61 364.79,-334.72"/>
<polygon fill="black" stroke="black" points="363.99,-338.14 374.58,-337.72 366.05,-331.45 363.99,-338.14"/>
</g>
<!-- a13&#45;&gt;a17 -->
<g id="edge55" class="edge">
<title>a13&#45;&gt;a17</title>
<path fill="none" stroke="black" d="M690.9,-304.62C723.2,-334.35 796.67,-402.01 834.31,-436.67"/>
<polygon fill="black" stroke="black" points="832.04,-439.34 841.77,-443.54 836.78,-434.19 832.04,-439.34"/>
</g>
<!-- a10 -->
<g id="node12" class="node">
<title>a10</title>
<ellipse fill="none" stroke="black" cx="765.93" cy="-290" rx="27.9" ry="18"/>
<text text-anchor="middle" x="765.93" y="-286.3" font-family="Times,serif" font-size="14.00">a10</text>
</g>
<!-- a13&#45;&gt;a10 -->
<g id="edge54" class="edge">
<title>a13&#45;&gt;a10</title>
<path fill="none" stroke="black" d="M702,-290C710.09,-290 719.11,-290 727.74,-290"/>
<polygon fill="black" stroke="black" points="727.97,-293.5 737.97,-290 727.97,-286.5 727.97,-293.5"/>
</g>
<!-- a19 -->
<g id="node9" class="node">
<title>a19</title>
<ellipse fill="none" stroke="black" cx="1042.91" cy="-370" rx="27.9" ry="18"/>
<text text-anchor="middle" x="1042.91" y="-366.3" font-family="Times,serif" font-size="14.00">a19</text>
</g>
<!-- b10 -->
<g id="node10" class="node">
<title>b10</title>
<ellipse fill="none" stroke="black" cx="858.47" cy="-512" rx="28.7" ry="18"/>
<text text-anchor="middle" x="858.47" y="-508.3" font-family="Times,serif" font-size="14.00">b10</text>
</g>
<!-- c1 -->
<g id="node11" class="node">
<title>c1</title>
<ellipse fill="none" stroke="black" cx="765.93" cy="-38" rx="27" ry="18"/>
<text text-anchor="middle" x="765.93" y="-34.3" font-family="Times,serif" font-size="14.00">c1</text>
</g>
<!-- c1&#45;&gt;c6 -->
<g id="edge35" class="edge">
<title>c1&#45;&gt;c6</title>
<path fill="none" stroke="black" d="M789.31,-47.39C800.3,-52.01 813.74,-57.64 825.76,-62.69"/>
<polygon fill="black" stroke="black" points="824.46,-65.94 835.03,-66.58 827.17,-59.49 824.46,-65.94"/>
</g>
<!-- c2 -->
<g id="node29" class="node">
<title>c2</title>
<ellipse fill="none" stroke="black" cx="399.29" cy="-130" rx="27" ry="18"/>
<text text-anchor="middle" x="399.29" y="-126.3" font-family="Times,serif" font-size="14.00">c2</text>
</g>
<!-- c1&#45;&gt;c2 -->
<g id="edge34" class="edge">
<title>c1&#45;&gt;c2</title>
<path fill="none" stroke="black" d="M739.71,-33.29C685.55,-24.47 555.48,-10.29 462.29,-57 441.73,-67.31 425.28,-87.8 414.51,-104.46"/>
<polygon fill="black" stroke="black" points="411.37,-102.88 409.12,-113.23 417.33,-106.54 411.37,-102.88"/>
</g>
<!-- a8 -->
<g id="node36" class="node">
<title>a8</title>
<ellipse fill="none" stroke="black" cx="858.47" cy="-290" rx="27" ry="18"/>
<text text-anchor="middle" x="858.47" y="-286.3" font-family="Times,serif" font-size="14.00">a8</text>
</g>
<!-- a10&#45;&gt;a8 -->
<g id="edge8" class="edge">
<title>a10&#45;&gt;a8</title>
<path fill="none" stroke="black" d="M794.09,-290C802.55,-290 812.03,-290 821.02,-290"/>
<polygon fill="black" stroke="black" points="821.26,-293.5 831.26,-290 821.26,-286.5 821.26,-293.5"/>
</g>
<!-- a16&#45;&gt;a19 -->
<g id="edge32" class="edge">
<title>a16&#45;&gt;a19</title>
<path fill="none" stroke="black" d="M974.24,-401.62C985.23,-396.48 998.69,-390.19 1010.7,-384.58"/>
<polygon fill="black" stroke="black" points="1012.37,-387.67 1019.95,-380.26 1009.4,-381.32 1012.37,-387.67"/>
</g>
<!-- a16&#45;&gt;a18 -->
<g id="edge31" class="edge">
<title>a16&#45;&gt;a18</title>
<path fill="none" stroke="black" d="M979.23,-412.6C1010.38,-413.28 1061.58,-414.41 1096.45,-415.18"/>
<polygon fill="black" stroke="black" points="1096.63,-418.68 1106.7,-415.4 1096.78,-411.68 1096.63,-418.68"/>
</g>
<!-- b2 -->
<g id="node14" class="node">
<title>b2</title>
<ellipse fill="none" stroke="black" cx="309.29" cy="-470" rx="27" ry="18"/>
<text text-anchor="middle" x="309.29" y="-466.3" font-family="Times,serif" font-size="14.00">b2</text>
</g>
<!-- b5 -->
<g id="node23" class="node">
<title>b5</title>
<ellipse fill="none" stroke="black" cx="399.29" cy="-458" rx="27" ry="18"/>
<text text-anchor="middle" x="399.29" y="-454.3" font-family="Times,serif" font-size="14.00">b5</text>
</g>
<!-- b2&#45;&gt;b5 -->
<g id="edge41" class="edge">
<title>b2&#45;&gt;b5</title>
<path fill="none" stroke="black" d="M336.22,-466.46C344.46,-465.34 353.71,-464.08 362.52,-462.88"/>
<polygon fill="black" stroke="black" points="363.12,-466.33 372.55,-461.51 362.17,-459.39 363.12,-466.33"/>
</g>
<!-- b4 -->
<g id="node27" class="node">
<title>b4</title>
<ellipse fill="none" stroke="black" cx="399.29" cy="-512" rx="27" ry="18"/>
<text text-anchor="middle" x="399.29" y="-508.3" font-family="Times,serif" font-size="14.00">b4</text>
</g>
<!-- b2&#45;&gt;b4 -->
<g id="edge40" class="edge">
<title>b2&#45;&gt;b4</title>
<path fill="none" stroke="black" d="M331.6,-480.17C342.43,-485.34 355.8,-491.72 367.71,-497.41"/>
<polygon fill="black" stroke="black" points="366.35,-500.63 376.88,-501.78 369.37,-494.31 366.35,-500.63"/>
</g>
<!-- b3 -->
<g id="node15" class="node">
<title>b3</title>
<ellipse fill="none" stroke="black" cx="490.24" cy="-512" rx="27" ry="18"/>
<text text-anchor="middle" x="490.24" y="-508.3" font-family="Times,serif" font-size="14.00">b3</text>
</g>
<!-- b3&#45;&gt;b8 -->
<g id="edge19" class="edge">
<title>b3&#45;&gt;b8</title>
<path fill="none" stroke="black" d="M517.29,-512C548.52,-512 601.06,-512 636.37,-512"/>
<polygon fill="black" stroke="black" points="636.74,-515.5 646.74,-512 636.74,-508.5 636.74,-515.5"/>
</g>
<!-- a9 -->
<g id="node16" class="node">
<title>a9</title>
<ellipse fill="none" stroke="black" cx="309.29" cy="-206" rx="27" ry="18"/>
<text text-anchor="middle" x="309.29" y="-202.3" font-family="Times,serif" font-size="14.00">a9</text>
</g>
<!-- a9&#45;&gt;c2 -->
<g id="edge18" class="edge">
<title>a9&#45;&gt;c2</title>
<path fill="none" stroke="black" d="M326.43,-192.06C339.75,-180.56 358.84,-164.07 374,-150.98"/>
<polygon fill="black" stroke="black" points="376.68,-153.29 381.96,-144.11 372.1,-148 376.68,-153.29"/>
</g>
<!-- a9&#45;&gt;a8 -->
<g id="edge17" class="edge">
<title>a9&#45;&gt;a8</title>
<path fill="none" stroke="black" d="M336.37,-206C371.21,-206 434.87,-206 489.24,-206 489.24,-206 489.24,-206 675.03,-206 735.85,-206 798.48,-244.99 832.22,-269.84"/>
<polygon fill="black" stroke="black" points="830.47,-272.9 840.56,-276.13 834.68,-267.31 830.47,-272.9"/>
</g>
<!-- a6&#45;&gt;a3 -->
<g id="edge51" class="edge">
<title>a6&#45;&gt;a3</title>
<path fill="none" stroke="black" d="M372.4,-346.84C324.36,-350.24 221.35,-357.54 166.46,-361.44"/>
<polygon fill="black" stroke="black" points="166.21,-357.95 156.48,-362.14 166.7,-364.93 166.21,-357.95"/>
</g>
<!-- a6&#45;&gt;a14 -->
<g id="edge52" class="edge">
<title>a6&#45;&gt;a14</title>
<path fill="none" stroke="black" d="M426.02,-342.4C434.21,-341.57 443.43,-340.64 452.25,-339.74"/>
<polygon fill="black" stroke="black" points="452.74,-343.21 462.33,-338.72 452.03,-336.25 452.74,-343.21"/>
</g>
<!-- b6 -->
<g id="node37" class="node">
<title>b6</title>
<ellipse fill="none" stroke="black" cx="490.24" cy="-458" rx="27" ry="18"/>
<text text-anchor="middle" x="490.24" y="-454.3" font-family="Times,serif" font-size="14.00">b6</text>
</g>
<!-- a6&#45;&gt;b6 -->
<g id="edge53" class="edge">
<title>a6&#45;&gt;b6</title>
<path fill="none" stroke="black" d="M412.66,-360.71C427.65,-379.75 453.04,-412.01 470.45,-434.13"/>
<polygon fill="black" stroke="black" points="467.76,-436.36 476.69,-442.06 473.26,-432.03 467.76,-436.36"/>
</g>
<!-- c4 -->
<g id="node18" class="node">
<title>c4</title>
<ellipse fill="none" stroke="black" cx="582.14" cy="-84" rx="27" ry="18"/>
<text text-anchor="middle" x="582.14" y="-80.3" font-family="Times,serif" font-size="14.00">c4</text>
</g>
<!-- c5 -->
<g id="node19" class="node">
<title>c5</title>
<ellipse fill="none" stroke="black" cx="674.03" cy="-84" rx="27" ry="18"/>
<text text-anchor="middle" x="674.03" y="-80.3" font-family="Times,serif" font-size="14.00">c5</text>
</g>
<!-- c4&#45;&gt;c5 -->
<g id="edge3" class="edge">
<title>c4&#45;&gt;c5</title>
<path fill="none" stroke="black" d="M609.14,-84C617.73,-84 627.45,-84 636.67,-84"/>
<polygon fill="black" stroke="black" points="636.78,-87.5 646.78,-84 636.78,-80.5 636.78,-87.5"/>
</g>
<!-- c5&#45;&gt;c6 -->
<g id="edge27" class="edge">
<title>c5&#45;&gt;c6</title>
<path fill="none" stroke="black" d="M701.17,-82.85C732.6,-81.48 785.54,-79.15 820.99,-77.6"/>
<polygon fill="black" stroke="black" points="821.54,-81.08 831.38,-77.14 821.24,-74.09 821.54,-81.08"/>
</g>
<!-- c5&#45;&gt;c1 -->
<g id="edge30" class="edge">
<title>c5&#45;&gt;c1</title>
<path fill="none" stroke="black" d="M695.88,-73.33C707.48,-67.39 722.13,-59.9 734.94,-53.34"/>
<polygon fill="black" stroke="black" points="736.57,-56.44 743.88,-48.77 733.38,-50.21 736.57,-56.44"/>
</g>
<!-- c5&#45;&gt;c2 -->
<g id="edge29" class="edge">
<title>c5&#45;&gt;c2</title>
<path fill="none" stroke="black" d="M652.34,-94.84C640.33,-100.62 624.72,-107.3 610.08,-111 550.6,-126.05 478.97,-129.53 436.67,-130.15"/>
<polygon fill="black" stroke="black" points="436.54,-126.65 426.57,-130.25 436.61,-133.65 436.54,-126.65"/>
</g>
<!-- c5&#45;&gt;c7 -->
<g id="edge28" class="edge">
<title>c5&#45;&gt;c7</title>
<path fill="none" stroke="black" d="M700.43,-88.19C711.89,-90.04 725.61,-92.2 737.98,-94 799.8,-102.99 871.94,-112.26 914.14,-117.55"/>
<polygon fill="black" stroke="black" points="913.84,-121.04 924.2,-118.81 914.71,-114.1 913.84,-121.04"/>
</g>
<!-- c8 -->
<g id="node20" class="node">
<title>c8</title>
<ellipse fill="none" stroke="black" cx="1042.91" cy="-168" rx="27" ry="18"/>
<text text-anchor="middle" x="1042.91" y="-164.3" font-family="Times,serif" font-size="14.00">c8</text>
</g>
<!-- c9 -->
<g id="node24" class="node">
<title>c9</title>
<ellipse fill="none" stroke="black" cx="1134.81" cy="-168" rx="27" ry="18"/>
<text text-anchor="middle" x="1134.81" y="-164.3" font-family="Times,serif" font-size="14.00">c9</text>
</g>
<!-- c8&#45;&gt;c9 -->
<g id="edge13" class="edge">
<title>c8&#45;&gt;c9</title>
<path fill="none" stroke="black" d="M1069.91,-168C1078.5,-168 1088.22,-168 1097.44,-168"/>
<polygon fill="black" stroke="black" points="1097.55,-171.5 1107.55,-168 1097.55,-164.5 1097.55,-171.5"/>
</g>
<!-- c8&#45;&gt;c2 -->
<g id="edge11" class="edge">
<title>c8&#45;&gt;c2</title>
<path fill="none" stroke="black" d="M1015.63,-168C980.17,-168 915.06,-168 859.47,-168 581.14,-168 581.14,-168 581.14,-168 528.72,-168 469.56,-152.52 433.6,-141.32"/>
<polygon fill="black" stroke="black" points="434.25,-137.86 423.66,-138.15 432.12,-144.53 434.25,-137.86"/>
</g>
<!-- c8&#45;&gt;a18 -->
<g id="edge12" class="edge">
<title>c8&#45;&gt;a18</title>
<path fill="none" stroke="black" d="M1050.23,-185.44C1065.67,-228.04 1105.41,-337.65 1123.97,-388.87"/>
<polygon fill="black" stroke="black" points="1120.79,-390.37 1127.49,-398.58 1127.38,-387.99 1120.79,-390.37"/>
</g>
<!-- a2 -->
<g id="node21" class="node">
<title>a2</title>
<ellipse fill="none" stroke="black" cx="129.29" cy="-155" rx="27" ry="18"/>
<text text-anchor="middle" x="129.29" y="-151.3" font-family="Times,serif" font-size="14.00">a2</text>
</g>
<!-- a2&#45;&gt;c1 -->
<g id="edge20" class="edge">
<title>a2&#45;&gt;c1</title>
<path fill="none" stroke="black" d="M139.16,-138.12C161.61,-97.94 224.91,0 308.29,0 308.29,0 308.29,0 583.14,0 635.96,0 695.62,-15.56 731.74,-26.77"/>
<polygon fill="black" stroke="black" points="731.13,-30.25 741.72,-29.94 733.25,-23.58 731.13,-30.25"/>
</g>
<!-- a15&#45;&gt;a13 -->
<g id="edge23" class="edge">
<title>a15&#45;&gt;a13</title>
<path fill="none" stroke="black" d="M610.11,-290C618.2,-290 627.22,-290 635.84,-290"/>
<polygon fill="black" stroke="black" points="636.08,-293.5 646.08,-290 636.08,-286.5 636.08,-293.5"/>
</g>
<!-- b5&#45;&gt;b6 -->
<g id="edge33" class="edge">
<title>b5&#45;&gt;b6</title>
<path fill="none" stroke="black" d="M426.5,-458C434.82,-458 444.18,-458 453.08,-458"/>
<polygon fill="black" stroke="black" points="453.22,-461.5 463.22,-458 453.22,-454.5 453.22,-461.5"/>
</g>
<!-- start -->
<g id="node25" class="node">
<title>start</title>
<ellipse fill="none" stroke="black" cx="33.15" cy="-182" rx="33.29" ry="18"/>
<text text-anchor="middle" x="33.15" y="-178.3" font-family="Times,serif" font-size="14.00">start</text>
</g>
<!-- start&#45;&gt;a3 -->
<g id="edge5" class="edge">
<title>start&#45;&gt;a3</title>
<path fill="none" stroke="black" d="M43.17,-199.45C59.78,-231.55 95.24,-300.11 114.75,-337.81"/>
<polygon fill="black" stroke="black" points="111.86,-339.86 119.57,-347.13 118.08,-336.64 111.86,-339.86"/>
</g>
<!-- start&#45;&gt;a2 -->
<g id="edge4" class="edge">
<title>start&#45;&gt;a2</title>
<path fill="none" stroke="black" d="M62.91,-173.75C72.8,-170.91 83.98,-167.71 94.25,-164.76"/>
<polygon fill="black" stroke="black" points="95.5,-168.05 104.15,-161.92 93.57,-161.32 95.5,-168.05"/>
</g>
<!-- b1&#45;&gt;b2 -->
<g id="edge47" class="edge">
<title>b1&#45;&gt;b2</title>
<path fill="none" stroke="black" d="M241.15,-505.1C252.33,-499.26 266.29,-491.96 278.59,-485.53"/>
<polygon fill="black" stroke="black" points="280.35,-488.56 287.59,-480.82 277.11,-482.35 280.35,-488.56"/>
</g>
<!-- b1&#45;&gt;b3 -->
<g id="edge48" class="edge">
<title>b1&#45;&gt;b3</title>
<path fill="none" stroke="black" d="M243.99,-523.42C282.54,-534.42 361.08,-552.4 426.29,-539 437.59,-536.68 449.37,-532.24 459.63,-527.62"/>
<polygon fill="black" stroke="black" points="461.42,-530.65 468.95,-523.2 458.41,-524.33 461.42,-530.65"/>
</g>
<!-- b1&#45;&gt;b4 -->
<g id="edge49" class="edge">
<title>b1&#45;&gt;b4</title>
<path fill="none" stroke="black" d="M246.56,-515.41C277.15,-514.72 327.84,-513.58 362.14,-512.81"/>
<polygon fill="black" stroke="black" points="362.29,-516.31 372.21,-512.59 362.14,-509.31 362.29,-516.31"/>
</g>
<!-- b4&#45;&gt;b3 -->
<g id="edge42" class="edge">
<title>b4&#45;&gt;b3</title>
<path fill="none" stroke="black" d="M426.5,-512C434.82,-512 444.18,-512 453.08,-512"/>
<polygon fill="black" stroke="black" points="453.22,-515.5 463.22,-512 453.22,-508.5 453.22,-515.5"/>
</g>
<!-- b9 -->
<g id="node28" class="node">
<title>b9</title>
<ellipse fill="none" stroke="black" cx="765.93" cy="-512" rx="27" ry="18"/>
<text text-anchor="middle" x="765.93" y="-508.3" font-family="Times,serif" font-size="14.00">b9</text>
</g>
<!-- b9&#45;&gt;a17 -->
<g id="edge44" class="edge">
<title>b9&#45;&gt;a17</title>
<path fill="none" stroke="black" d="M786.57,-500.28C798.86,-492.95 814.9,-483.39 828.62,-475.21"/>
<polygon fill="black" stroke="black" points="830.44,-478.2 837.24,-470.07 826.85,-472.18 830.44,-478.2"/>
</g>
<!-- b9&#45;&gt;b10 -->
<g id="edge45" class="edge">
<title>b9&#45;&gt;b10</title>
<path fill="none" stroke="black" d="M793.12,-512C801.37,-512 810.67,-512 819.58,-512"/>
<polygon fill="black" stroke="black" points="819.76,-515.5 829.76,-512 819.76,-508.5 819.76,-515.5"/>
</g>
<!-- b9&#45;&gt;b1 -->
<g id="edge43" class="edge">
<title>b9&#45;&gt;b1</title>
<path fill="none" stroke="black" d="M748.08,-525.87C717.34,-549.73 649.19,-596 583.14,-596 398.29,-596 398.29,-596 398.29,-596 339.51,-596 278.65,-559.26 245.53,-535.57"/>
<polygon fill="black" stroke="black" points="247.47,-532.66 237.33,-529.57 243.33,-538.3 247.47,-532.66"/>
</g>
<!-- c3 -->
<g id="node31" class="node">
<title>c3</title>
<ellipse fill="none" stroke="black" cx="490.24" cy="-84" rx="27" ry="18"/>
<text text-anchor="middle" x="490.24" y="-80.3" font-family="Times,serif" font-size="14.00">c3</text>
</g>
<!-- c2&#45;&gt;c3 -->
<g id="edge38" class="edge">
<title>c2&#45;&gt;c3</title>
<path fill="none" stroke="black" d="M421.37,-119.1C432.67,-113.26 446.79,-105.96 459.21,-99.53"/>
<polygon fill="black" stroke="black" points="461.04,-102.53 468.31,-94.82 457.82,-96.31 461.04,-102.53"/>
</g>
<!-- end -->
<g id="node32" class="node">
<title>end</title>
<ellipse fill="none" stroke="black" cx="1226.7" cy="-416" rx="27.9" ry="18"/>
<text text-anchor="middle" x="1226.7" y="-412.3" font-family="Times,serif" font-size="14.00">end</text>
</g>
<!-- a18&#45;&gt;end -->
<g id="edge46" class="edge">
<title>a18&#45;&gt;end</title>
<path fill="none" stroke="black" d="M1162.78,-416C1170.87,-416 1179.89,-416 1188.51,-416"/>
<polygon fill="black" stroke="black" points="1188.75,-419.5 1198.75,-416 1188.75,-412.5 1188.75,-419.5"/>
</g>
<!-- c3&#45;&gt;c4 -->
<g id="edge2" class="edge">
<title>c3&#45;&gt;c4</title>
<path fill="none" stroke="black" d="M517.24,-84C525.83,-84 535.55,-84 544.77,-84"/>
<polygon fill="black" stroke="black" points="544.88,-87.5 554.88,-84 544.88,-80.5 544.88,-87.5"/>
</g>
<!-- a4&#45;&gt;a5 -->
<g id="edge22" class="edge">
<title>a4&#45;&gt;a5</title>
<path fill="none" stroke="black" d="M246.7,-318C254.69,-318 263.6,-318 272.12,-318"/>
<polygon fill="black" stroke="black" points="272.21,-321.5 282.21,-318 272.21,-314.5 272.21,-321.5"/>
</g>
<!-- a4&#45;&gt;a9 -->
<g id="edge21" class="edge">
<title>a4&#45;&gt;a9</title>
<path fill="none" stroke="black" d="M232.9,-301.95C247.67,-283.16 272.28,-251.83 289.35,-230.11"/>
<polygon fill="black" stroke="black" points="292.28,-232.04 295.71,-222.02 286.78,-227.72 292.28,-232.04"/>
</g>
<!-- a7 -->
<g id="node34" class="node">
<title>a7</title>
<ellipse fill="none" stroke="black" cx="951.02" cy="-303" rx="27" ry="18"/>
<text text-anchor="middle" x="951.02" y="-299.3" font-family="Times,serif" font-size="14.00">a7</text>
</g>
<!-- a7&#45;&gt;a3 -->
<g id="edge14" class="edge">
<title>a7&#45;&gt;a3</title>
<path fill="none" stroke="black" d="M936.07,-318.62C907.54,-348.76 839.06,-412 766.93,-412 308.29,-412 308.29,-412 308.29,-412 255.42,-412 196.67,-392.01 161.64,-377.83"/>
<polygon fill="black" stroke="black" points="162.56,-374.43 151.99,-373.83 159.88,-380.89 162.56,-374.43"/>
</g>
<!-- a7&#45;&gt;a14 -->
<g id="edge15" class="edge">
<title>a7&#45;&gt;a14</title>
<path fill="none" stroke="black" d="M925.98,-310.16C891.22,-319.87 824.74,-336 766.93,-336 673.03,-336 673.03,-336 673.03,-336 623.05,-336 565.34,-336 528.59,-336"/>
<polygon fill="black" stroke="black" points="528.34,-332.5 518.34,-336 528.34,-339.5 528.34,-332.5"/>
</g>
<!-- a11 -->
<g id="node35" class="node">
<title>a11</title>
<ellipse fill="none" stroke="black" cx="1042.91" cy="-303" rx="27.9" ry="18"/>
<text text-anchor="middle" x="1042.91" y="-299.3" font-family="Times,serif" font-size="14.00">a11</text>
</g>
<!-- a7&#45;&gt;a11 -->
<g id="edge16" class="edge">
<title>a7&#45;&gt;a11</title>
<path fill="none" stroke="black" d="M978.02,-303C986.29,-303 995.61,-303 1004.53,-303"/>
<polygon fill="black" stroke="black" points="1004.72,-306.5 1014.72,-303 1004.72,-299.5 1004.72,-306.5"/>
</g>
<!-- a11&#45;&gt;a12 -->
<g id="edge9" class="edge">
<title>a11&#45;&gt;a12</title>
<path fill="none" stroke="black" d="M1069.43,-296.47C1078.52,-294.14 1088.93,-291.48 1098.68,-288.99"/>
<polygon fill="black" stroke="black" points="1099.71,-292.34 1108.53,-286.47 1097.98,-285.55 1099.71,-292.34"/>
</g>
<!-- a8&#45;&gt;a7 -->
<g id="edge7" class="edge">
<title>a8&#45;&gt;a7</title>
<path fill="none" stroke="black" d="M885.18,-293.69C894.33,-295.01 904.81,-296.51 914.64,-297.92"/>
<polygon fill="black" stroke="black" points="914.17,-301.39 924.56,-299.35 915.16,-294.46 914.17,-301.39"/>
</g>
<!-- b6&#45;&gt;b7 -->
<g id="edge50" class="edge">
<title>b6&#45;&gt;b7</title>
<path fill="none" stroke="black" d="M517.24,-459.16C525.83,-459.54 535.55,-459.97 544.77,-460.38"/>
<polygon fill="black" stroke="black" points="544.74,-463.88 554.88,-460.83 545.05,-456.89 544.74,-463.88"/>
</g>
<!-- b8&#45;&gt;b9 -->
<g id="edge57" class="edge">
<title>b8&#45;&gt;b9</title>
<path fill="none" stroke="black" d="M701.03,-512C709.62,-512 719.34,-512 728.56,-512"/>
<polygon fill="black" stroke="black" points="728.67,-515.5 738.67,-512 728.67,-508.5 728.67,-515.5"/>
</g>
<!-- c7&#45;&gt;c8 -->
<g id="edge10" class="edge">
<title>c7&#45;&gt;c8</title>
<path fill="none" stroke="black" d="M972.87,-132.67C984.47,-138.61 999.11,-146.1 1011.93,-152.66"/>
<polygon fill="black" stroke="black" points="1010.37,-155.79 1020.86,-157.23 1013.56,-149.56 1010.37,-155.79"/>
</g>
</g>
</svg>
