<?xml version="1.0" encoding="UTF-8" standalone="no"?>
<!DOCTYPE svg PUBLIC "-//W3C//DTD SVG 1.1//EN"
 "http://www.w3.org/Graphics/SVG/1.1/DTD/svg11.dtd">
<!-- Generated by graphviz version 2.43.0 (0)
 -->
<!-- Title: cluster Pages: 1 -->
<svg width="1131pt" height="1214pt"
 viewBox="0.00 0.00 1131.07 1214.00" xmlns="http://www.w3.org/2000/svg" xmlns:xlink="http://www.w3.org/1999/xlink">
<g id="graph0" class="graph" transform="scale(1 1) rotate(0) translate(4 1210)">
<title>cluster</title>
<polygon fill="white" stroke="transparent" points="-4,4 -4,-1210 1127.07,-1210 1127.07,4 -4,4"/>
<g id="clust1" class="cluster">
<title>cluster_0xc00006f980</title>
<polygon fill="none" stroke="#ffffff" stroke-width="10" points="8,-8 8,-1198 1115.07,-1198 1115.07,-8 8,-8"/>
<text text-anchor="middle" x="561.53" y="-1162" font-family="Times,serif" font-size="40.00">main</text>
</g>
<g id="clust2" class="cluster">
<title>cluster_0xc00006fe00</title>
<polygon fill="none" stroke="#09f425" stroke-width="10" points="208.74,-554 208.74,-752 927.07,-752 927.07,-554 208.74,-554"/>
<text text-anchor="middle" x="567.9" y="-716" font-family="Times,serif" font-size="40.00">sub4</text>
</g>
<g id="clust3" class="cluster">
<title>cluster_0xc0000c6300</title>
<polygon fill="none" stroke="#5fc2dc" stroke-width="10" points="16,-760 16,-1138 661.87,-1138 661.87,-760 16,-760"/>
<text text-anchor="middle" x="338.94" y="-1102" font-family="Times,serif" font-size="40.00">sub2</text>
</g>
<g id="clust4" class="cluster">
<title>cluster_0xc0000c6750</title>
<polygon fill="none" stroke="#5fc2dc" stroke-width="10" points="24,-880 24,-1078 653.87,-1078 653.87,-880 24,-880"/>
<text text-anchor="middle" x="338.94" y="-1042" font-family="Times,serif" font-size="40.00">sub2</text>
</g>
<g id="clust5" class="cluster">
<title>cluster_0xc0000c68a0</title>
<polygon fill="none" stroke="#5fc2dc" stroke-width="10" points="24,-768 24,-872 187.79,-872 187.79,-768 24,-768"/>
<text text-anchor="middle" x="105.9" y="-836" font-family="Times,serif" font-size="40.00">sub2</text>
</g>
<g id="clust6" class="cluster">
<title>cluster_0xc0000c6d20</title>
<polygon fill="none" stroke="#8c1610" stroke-width="10" points="485.83,-16 485.83,-234 1107.07,-234 1107.07,-16 485.83,-16"/>
<text text-anchor="middle" x="796.45" y="-198" font-family="Times,serif" font-size="40.00">sub3</text>
</g>
<g id="clust7" class="cluster">
<title>cluster_0xc0000c7080</title>
<polygon fill="none" stroke="#5fc2dc" stroke-width="10" points="471.69,-242 471.69,-546 935.07,-546 935.07,-242 471.69,-242"/>
<text text-anchor="middle" x="703.38" y="-510" font-family="Times,serif" font-size="40.00">sub2</text>
</g>
<g id="clust8" class="cluster">
<title>cluster_0xc0000c7350</title>
<polygon fill="none" stroke="#5fc2dc" stroke-width="10" points="479.69,-362 479.69,-486 927.07,-486 927.07,-362 479.69,-362"/>
<text text-anchor="middle" x="703.38" y="-450" font-family="Times,serif" font-size="40.00">sub2</text>
</g>
<g id="clust9" class="cluster">
<title>cluster_0xc0000c7500</title>
<polygon fill="none" stroke="#5fc2dc" stroke-width="10" points="484.88,-250 484.88,-354 746.42,-354 746.42,-250 484.88,-250"/>
<text text-anchor="middle" x="615.65" y="-318" font-family="Times,serif" font-size="40.00">sub2</text>
</g>
<!-- c9 -->
<g id="node1" class="node">
<title>c9</title>
<ellipse fill="none" stroke="black" cx="334.69" cy="-610" rx="27" ry="18"/>
<text text-anchor="middle" x="334.69" y="-606.3" font-family="Times,serif" font-size="14.00">c9</text>
</g>
<!-- b8 -->
<g id="node2" class="node">
<title>b8</title>
<ellipse fill="none" stroke="black" cx="520.83" cy="-45" rx="27" ry="18"/>
<text text-anchor="middle" x="520.83" y="-41.3" font-family="Times,serif" font-size="14.00">b8</text>
</g>
<!-- b9 -->
<g id="node30" class="node">
<title>b9</title>
<ellipse fill="none" stroke="black" cx="617.93" cy="-111" rx="27" ry="18"/>
<text text-anchor="middle" x="617.93" y="-107.3" font-family="Times,serif" font-size="14.00">b9</text>
</g>
<!-- b8&#45;&gt;b9 -->
<g id="edge56" class="edge">
<title>b8&#45;&gt;b9</title>
<path fill="none" stroke="black" d="M540.17,-57.73C554.38,-67.59 574.27,-81.39 590.24,-92.48"/>
<polygon fill="black" stroke="black" points="588.44,-95.49 598.65,-98.31 592.43,-89.74 588.44,-95.49"/>
</g>
<!-- c4 -->
<g id="node3" class="node">
<title>c4</title>
<ellipse fill="none" stroke="black" cx="520.83" cy="-654" rx="27" ry="18"/>
<text text-anchor="middle" x="520.83" y="-650.3" font-family="Times,serif" font-size="14.00">c4</text>
</g>
<!-- c5 -->
<g id="node23" class="node">
<title>c5</title>
<ellipse fill="none" stroke="black" cx="617.93" cy="-674" rx="27" ry="18"/>
<text text-anchor="middle" x="617.93" y="-670.3" font-family="Times,serif" font-size="14.00">c5</text>
</g>
<!-- c4&#45;&gt;c5 -->
<g id="edge13" class="edge">
<title>c4&#45;&gt;c5</title>
<path fill="none" stroke="black" d="M546.82,-659.25C557.54,-661.51 570.26,-664.19 581.9,-666.63"/>
<polygon fill="black" stroke="black" points="581.27,-670.08 591.78,-668.71 582.71,-663.23 581.27,-670.08"/>
</g>
<!-- a15 -->
<g id="node4" class="node">
<title>a15</title>
<ellipse fill="none" stroke="black" cx="59.95" cy="-943" rx="27.9" ry="18"/>
<text text-anchor="middle" x="59.95" y="-939.3" font-family="Times,serif" font-size="14.00">a15</text>
</g>
<!-- a13 -->
<g id="node10" class="node">
<title>a13</title>
<ellipse fill="none" stroke="black" cx="151.84" cy="-980" rx="27.9" ry="18"/>
<text text-anchor="middle" x="151.84" y="-976.3" font-family="Times,serif" font-size="14.00">a13</text>
</g>
<!-- a15&#45;&gt;a13 -->
<g id="edge30" class="edge">
<title>a15&#45;&gt;a13</title>
<path fill="none" stroke="black" d="M87.43,-947.69C98.76,-951.66 111.99,-957.08 123.42,-962.44"/>
<polygon fill="black" stroke="black" points="122,-965.64 132.52,-966.89 125.07,-959.35 122,-965.64"/>
</g>
<!-- a15&#45;&gt;a13 -->
<g id="edge37" class="edge">
<title>a15&#45;&gt;a13</title>
<path fill="none" stroke="black" d="M79.57,-956.26C89.88,-961.53 103.04,-967.29 115.24,-971.96"/>
<polygon fill="black" stroke="black" points="114.15,-975.29 124.74,-975.45 116.56,-968.72 114.15,-975.29"/>
</g>
<!-- b3 -->
<g id="node5" class="node">
<title>b3</title>
<ellipse fill="none" stroke="black" cx="982.07" cy="-65" rx="27" ry="18"/>
<text text-anchor="middle" x="982.07" y="-61.3" font-family="Times,serif" font-size="14.00">b3</text>
</g>
<!-- b3&#45;&gt;b8 -->
<g id="edge46" class="edge">
<title>b3&#45;&gt;b8</title>
<path fill="none" stroke="black" d="M955.82,-60.36C921.41,-54.45 857.8,-45 803.07,-45 709.47,-45 709.47,-45 709.47,-45 656.77,-45 595.73,-45 557.95,-45"/>
<polygon fill="black" stroke="black" points="557.94,-41.5 547.94,-45 557.94,-48.5 557.94,-41.5"/>
</g>
<!-- b5 -->
<g id="node6" class="node">
<title>b5</title>
<ellipse fill="none" stroke="black" cx="892.07" cy="-156" rx="27" ry="18"/>
<text text-anchor="middle" x="892.07" y="-152.3" font-family="Times,serif" font-size="14.00">b5</text>
</g>
<!-- b6 -->
<g id="node36" class="node">
<title>b6</title>
<ellipse fill="none" stroke="black" cx="982.07" cy="-156" rx="27" ry="18"/>
<text text-anchor="middle" x="982.07" y="-152.3" font-family="Times,serif" font-size="14.00">b6</text>
</g>
<!-- b5&#45;&gt;b6 -->
<g id="edge53" class="edge">
<title>b5&#45;&gt;b6</title>
<path fill="none" stroke="black" d="M919.47,-156C927.46,-156 936.38,-156 944.89,-156"/>
<polygon fill="black" stroke="black" points="944.99,-159.5 954.99,-156 944.99,-152.5 944.99,-159.5"/>
</g>
<!-- b10 -->
<g id="node7" class="node">
<title>b10</title>
<ellipse fill="none" stroke="black" cx="710.47" cy="-84" rx="28.7" ry="18"/>
<text text-anchor="middle" x="710.47" y="-80.3" font-family="Times,serif" font-size="14.00">b10</text>
</g>
<!-- a3 -->
<g id="node8" class="node">
<title>a3</title>
<ellipse fill="none" stroke="black" cx="617.93" cy="-398" rx="27" ry="18"/>
<text text-anchor="middle" x="617.93" y="-394.3" font-family="Times,serif" font-size="14.00">a3</text>
</g>
<!-- a4 -->
<g id="node18" class="node">
<title>a4</title>
<ellipse fill="none" stroke="black" cx="710.47" cy="-388" rx="27" ry="18"/>
<text text-anchor="middle" x="710.47" y="-384.3" font-family="Times,serif" font-size="14.00">a4</text>
</g>
<!-- a3&#45;&gt;a4 -->
<g id="edge59" class="edge">
<title>a3&#45;&gt;a4</title>
<path fill="none" stroke="black" d="M641.78,-389.52C651.46,-387.7 662.98,-386.21 673.75,-385.33"/>
<polygon fill="black" stroke="black" points="674,-388.82 683.75,-384.68 673.55,-381.84 674,-388.82"/>
</g>
<!-- a3&#45;&gt;a4 -->
<g id="edge67" class="edge">
<title>a3&#45;&gt;a4</title>
<path fill="none" stroke="black" d="M644.63,-401.32C654.51,-400.86 665.93,-399.73 676.41,-398.18"/>
<polygon fill="black" stroke="black" points="677.19,-401.6 686.48,-396.5 676.05,-394.69 677.19,-401.6"/>
</g>
<!-- b1 -->
<g id="node21" class="node">
<title>b1</title>
<ellipse fill="none" stroke="black" cx="710.47" cy="-138" rx="27" ry="18"/>
<text text-anchor="middle" x="710.47" y="-134.3" font-family="Times,serif" font-size="14.00">b1</text>
</g>
<!-- a3&#45;&gt;b1 -->
<g id="edge8" class="edge">
<title>a3&#45;&gt;b1</title>
<path fill="none" stroke="green" stroke-width="5" d="M637.46,-385.22C646.22,-378.2 656.03,-368.74 661.87,-358 686.06,-313.6 671.16,-295.42 681.87,-246 687.83,-218.53 695.91,-187.47 701.79,-165.73"/>
<polygon fill="green" stroke="green" stroke-width="5" points="706.07,-166.67 704.48,-155.87 697.63,-164.36 706.07,-166.67"/>
</g>
<!-- a8 -->
<g id="node9" class="node">
<title>a8</title>
<ellipse fill="none" stroke="black" cx="334.69" cy="-953" rx="27" ry="18"/>
<text text-anchor="middle" x="334.69" y="-949.3" font-family="Times,serif" font-size="14.00">a8</text>
</g>
<!-- a7 -->
<g id="node25" class="node">
<title>a7</title>
<ellipse fill="none" stroke="black" cx="424.69" cy="-953" rx="27" ry="18"/>
<text text-anchor="middle" x="424.69" y="-949.3" font-family="Times,serif" font-size="14.00">a7</text>
</g>
<!-- a8&#45;&gt;a7 -->
<g id="edge31" class="edge">
<title>a8&#45;&gt;a7</title>
<path fill="none" stroke="black" d="M360.2,-946.88C369.09,-946.27 379.31,-946.1 388.91,-946.38"/>
<polygon fill="black" stroke="black" points="388.84,-949.88 399,-946.86 389.18,-942.89 388.84,-949.88"/>
</g>
<!-- a8&#45;&gt;a7 -->
<g id="edge43" class="edge">
<title>a8&#45;&gt;a7</title>
<path fill="none" stroke="black" d="M360.2,-959.12C369.09,-959.73 379.31,-959.9 388.91,-959.62"/>
<polygon fill="black" stroke="black" points="389.18,-963.11 399,-959.14 388.84,-956.12 389.18,-963.11"/>
</g>
<!-- a10 -->
<g id="node19" class="node">
<title>a10</title>
<ellipse fill="none" stroke="black" cx="243.74" cy="-980" rx="27.9" ry="18"/>
<text text-anchor="middle" x="243.74" y="-976.3" font-family="Times,serif" font-size="14.00">a10</text>
</g>
<!-- a13&#45;&gt;a10 -->
<g id="edge27" class="edge">
<title>a13&#45;&gt;a10</title>
<path fill="none" stroke="black" d="M178.36,-973.84C187.36,-973.26 197.64,-973.11 207.31,-973.39"/>
<polygon fill="black" stroke="black" points="207.31,-976.89 217.47,-973.86 207.64,-969.9 207.31,-976.89"/>
</g>
<!-- a13&#45;&gt;a10 -->
<g id="edge44" class="edge">
<title>a13&#45;&gt;a10</title>
<path fill="none" stroke="black" d="M178.36,-986.16C187.36,-986.74 197.64,-986.89 207.31,-986.61"/>
<polygon fill="black" stroke="black" points="207.64,-990.1 217.47,-986.14 207.31,-983.11 207.64,-990.1"/>
</g>
<!-- c1 -->
<g id="node11" class="node">
<title>c1</title>
<ellipse fill="none" stroke="black" cx="710.47" cy="-617" rx="27" ry="18"/>
<text text-anchor="middle" x="710.47" y="-613.3" font-family="Times,serif" font-size="14.00">c1</text>
</g>
<!-- c6 -->
<g id="node17" class="node">
<title>c6</title>
<ellipse fill="none" stroke="black" cx="802.07" cy="-627" rx="27" ry="18"/>
<text text-anchor="middle" x="802.07" y="-623.3" font-family="Times,serif" font-size="14.00">c6</text>
</g>
<!-- c1&#45;&gt;c6 -->
<g id="edge23" class="edge">
<title>c1&#45;&gt;c6</title>
<path fill="none" stroke="black" d="M737.39,-619.89C746.02,-620.86 755.81,-621.95 765.07,-622.98"/>
<polygon fill="black" stroke="black" points="764.89,-626.48 775.21,-624.11 765.66,-619.53 764.89,-626.48"/>
</g>
<!-- c2 -->
<g id="node26" class="node">
<title>c2</title>
<ellipse fill="none" stroke="black" cx="334.69" cy="-664" rx="27" ry="18"/>
<text text-anchor="middle" x="334.69" y="-660.3" font-family="Times,serif" font-size="14.00">c2</text>
</g>
<!-- c1&#45;&gt;c2 -->
<g id="edge22" class="edge">
<title>c1&#45;&gt;c2</title>
<path fill="none" stroke="black" d="M684.92,-623.17C677.56,-624.75 669.43,-626.21 661.87,-627 545.09,-639.14 510.88,-595.79 397.69,-627 384.75,-630.57 371.8,-637.62 361.1,-644.62"/>
<polygon fill="black" stroke="black" points="358.94,-641.85 352.69,-650.41 362.91,-647.62 358.94,-641.85"/>
</g>
<!-- c7 -->
<g id="node12" class="node">
<title>c7</title>
<ellipse fill="none" stroke="black" cx="892.07" cy="-627" rx="27" ry="18"/>
<text text-anchor="middle" x="892.07" y="-623.3" font-family="Times,serif" font-size="14.00">c7</text>
</g>
<!-- c8 -->
<g id="node13" class="node">
<title>c8</title>
<ellipse fill="none" stroke="black" cx="243.74" cy="-637" rx="27" ry="18"/>
<text text-anchor="middle" x="243.74" y="-633.3" font-family="Times,serif" font-size="14.00">c8</text>
</g>
<!-- c7&#45;&gt;c8 -->
<g id="edge11" class="edge">
<title>c7&#45;&gt;c8</title>
<path fill="none" stroke="black" d="M871.68,-615.11C839.59,-596.6 772.87,-563 711.47,-563 423.69,-563 423.69,-563 423.69,-563 371.37,-563 355.02,-560.72 307.69,-583 291.81,-590.47 276.78,-603.07 265.39,-614.22"/>
<polygon fill="black" stroke="black" points="262.63,-612.03 258.13,-621.62 267.63,-616.94 262.63,-612.03"/>
</g>
<!-- c8&#45;&gt;c9 -->
<g id="edge19" class="edge">
<title>c8&#45;&gt;c9</title>
<path fill="none" stroke="black" d="M268.57,-629.76C278.25,-626.83 289.59,-623.39 300.08,-620.2"/>
<polygon fill="black" stroke="black" points="301.23,-623.51 309.78,-617.26 299.2,-616.81 301.23,-623.51"/>
</g>
<!-- c8&#45;&gt;c2 -->
<g id="edge18" class="edge">
<title>c8&#45;&gt;c2</title>
<path fill="none" stroke="black" d="M268.57,-644.24C278.25,-647.17 289.59,-650.61 300.08,-653.8"/>
<polygon fill="black" stroke="black" points="299.2,-657.19 309.78,-656.74 301.23,-650.49 299.2,-657.19"/>
</g>
<!-- a18 -->
<g id="node33" class="node">
<title>a18</title>
<ellipse fill="none" stroke="black" cx="59.95" cy="-794" rx="27.9" ry="18"/>
<text text-anchor="middle" x="59.95" y="-790.3" font-family="Times,serif" font-size="14.00">a18</text>
</g>
<!-- c8&#45;&gt;a18 -->
<g id="edge5" class="edge">
<title>c8&#45;&gt;a18</title>
<path fill="none" stroke="green" stroke-width="5" d="M226.45,-651.06C194.41,-678.74 123.03,-740.38 85.34,-772.93"/>
<polygon fill="green" stroke="green" stroke-width="5" points="82.11,-769.94 77.4,-779.79 87.83,-776.57 82.11,-769.94"/>
</g>
<!-- a5 -->
<g id="node14" class="node">
<title>a5</title>
<ellipse fill="none" stroke="black" cx="802.07" cy="-388" rx="27" ry="18"/>
<text text-anchor="middle" x="802.07" y="-384.3" font-family="Times,serif" font-size="14.00">a5</text>
</g>
<!-- a6 -->
<g id="node15" class="node">
<title>a6</title>
<ellipse fill="none" stroke="black" cx="892.07" cy="-388" rx="27" ry="18"/>
<text text-anchor="middle" x="892.07" y="-384.3" font-family="Times,serif" font-size="14.00">a6</text>
</g>
<!-- a5&#45;&gt;a6 -->
<g id="edge60" class="edge">
<title>a5&#45;&gt;a6</title>
<path fill="none" stroke="black" d="M827.58,-381.88C836.47,-381.27 846.69,-381.1 856.29,-381.38"/>
<polygon fill="black" stroke="black" points="856.23,-384.88 866.38,-381.86 856.56,-377.89 856.23,-384.88"/>
</g>
<!-- a5&#45;&gt;a6 -->
<g id="edge68" class="edge">
<title>a5&#45;&gt;a6</title>
<path fill="none" stroke="black" d="M827.58,-394.12C836.47,-394.73 846.69,-394.9 856.29,-394.62"/>
<polygon fill="black" stroke="black" points="856.56,-398.11 866.38,-394.14 856.23,-391.12 856.56,-398.11"/>
</g>
<!-- a6&#45;&gt;a3 -->
<g id="edge64" class="edge">
<title>a6&#45;&gt;a3</title>
<path fill="none" stroke="black" d="M866.21,-393.35C855.18,-397.91 841.83,-403.34 829.07,-406 765.02,-419.34 746.73,-414.6 681.87,-406 673,-404.82 663.61,-402.75 654.86,-400.72"/>
<polygon fill="black" stroke="black" points="655.49,-397.27 644.95,-398.4 653.89,-404.08 655.49,-397.27"/>
</g>
<!-- a6&#45;&gt;a3 -->
<g id="edge66" class="edge">
<title>a6&#45;&gt;a3</title>
<path fill="none" stroke="black" d="M876.85,-403.4C864.63,-411.76 846.31,-420.41 829.07,-424 765.02,-437.34 746.73,-432.6 681.87,-424 669.76,-422.39 656.67,-419.12 645.58,-415.19"/>
<polygon fill="black" stroke="black" points="646.63,-411.85 636.04,-411.44 644.06,-418.36 646.63,-411.85"/>
</g>
<!-- a6&#45;&gt;b6 -->
<g id="edge4" class="edge">
<title>a6&#45;&gt;b6</title>
<path fill="none" stroke="green" stroke-width="5" d="M899.68,-370.56C914.95,-330.32 952.71,-230.77 970.92,-182.75"/>
<polygon fill="green" stroke="green" stroke-width="5" points="975.04,-184.23 974.5,-173.32 966.86,-181.12 975.04,-184.23"/>
</g>
<!-- a19 -->
<g id="node16" class="node">
<title>a19</title>
<ellipse fill="none" stroke="black" cx="710.47" cy="-276" rx="27.9" ry="18"/>
<text text-anchor="middle" x="710.47" y="-272.3" font-family="Times,serif" font-size="14.00">a19</text>
</g>
<!-- c6&#45;&gt;c7 -->
<g id="edge20" class="edge">
<title>c6&#45;&gt;c7</title>
<path fill="none" stroke="black" d="M829.47,-627C837.46,-627 846.38,-627 854.89,-627"/>
<polygon fill="black" stroke="black" points="854.99,-630.5 864.99,-627 854.99,-623.5 854.99,-630.5"/>
</g>
<!-- a4&#45;&gt;a5 -->
<g id="edge62" class="edge">
<title>a4&#45;&gt;a5</title>
<path fill="none" stroke="black" d="M735.95,-381.91C745.34,-381.26 756.23,-381.09 766.39,-381.41"/>
<polygon fill="black" stroke="black" points="766.46,-384.91 776.62,-381.91 766.8,-377.92 766.46,-384.91"/>
</g>
<!-- a4&#45;&gt;a5 -->
<g id="edge69" class="edge">
<title>a4&#45;&gt;a5</title>
<path fill="none" stroke="black" d="M735.95,-394.09C745.34,-394.74 756.23,-394.91 766.39,-394.59"/>
<polygon fill="black" stroke="black" points="766.8,-398.08 776.62,-394.09 766.46,-391.09 766.8,-398.08"/>
</g>
<!-- a10&#45;&gt;a8 -->
<g id="edge26" class="edge">
<title>a10&#45;&gt;a8</title>
<path fill="none" stroke="black" d="M264.92,-968.11C274.57,-964.31 286.43,-960.41 297.56,-957.32"/>
<polygon fill="black" stroke="black" points="298.7,-960.64 307.5,-954.73 296.94,-953.87 298.7,-960.64"/>
</g>
<!-- a10&#45;&gt;a8 -->
<g id="edge38" class="edge">
<title>a10&#45;&gt;a8</title>
<path fill="none" stroke="black" d="M271.91,-978.03C282.21,-975.5 293.97,-971.96 304.45,-968.26"/>
<polygon fill="black" stroke="black" points="305.88,-971.46 314.02,-964.68 303.42,-964.91 305.88,-971.46"/>
</g>
<!-- a16 -->
<g id="node20" class="node">
<title>a16</title>
<ellipse fill="none" stroke="black" cx="617.93" cy="-276" rx="27.9" ry="18"/>
<text text-anchor="middle" x="617.93" y="-272.3" font-family="Times,serif" font-size="14.00">a16</text>
</g>
<!-- a16&#45;&gt;a19 -->
<g id="edge65" class="edge">
<title>a16&#45;&gt;a19</title>
<path fill="none" stroke="black" d="M644.63,-269.84C653.69,-269.26 664.05,-269.11 673.79,-269.39"/>
<polygon fill="black" stroke="black" points="673.86,-272.89 684.02,-269.86 674.19,-265.9 673.86,-272.89"/>
</g>
<!-- a16&#45;&gt;a19 -->
<g id="edge71" class="edge">
<title>a16&#45;&gt;a19</title>
<path fill="none" stroke="black" d="M644.63,-282.16C653.69,-282.74 664.05,-282.89 673.79,-282.61"/>
<polygon fill="black" stroke="black" points="674.19,-286.1 684.02,-282.14 673.86,-279.11 674.19,-286.1"/>
</g>
<!-- b1&#45;&gt;b3 -->
<g id="edge51" class="edge">
<title>b1&#45;&gt;b3</title>
<path fill="none" stroke="black" d="M729.35,-125.09C741.7,-116.67 758.76,-106 775.07,-99 831.11,-74.95 902.46,-67.83 944.8,-65.77"/>
<polygon fill="black" stroke="black" points="945.07,-69.26 954.91,-65.35 944.77,-62.27 945.07,-69.26"/>
</g>
<!-- b4 -->
<g id="node22" class="node">
<title>b4</title>
<ellipse fill="none" stroke="black" cx="892.07" cy="-102" rx="27" ry="18"/>
<text text-anchor="middle" x="892.07" y="-98.3" font-family="Times,serif" font-size="14.00">b4</text>
</g>
<!-- b1&#45;&gt;b4 -->
<g id="edge52" class="edge">
<title>b1&#45;&gt;b4</title>
<path fill="none" stroke="black" d="M732.71,-127.43C744.83,-121.88 760.46,-115.53 775.07,-112 801.31,-105.66 831.74,-103.21 854.85,-102.32"/>
<polygon fill="black" stroke="black" points="855.02,-105.82 864.91,-102.02 854.81,-98.82 855.02,-105.82"/>
</g>
<!-- b2 -->
<g id="node29" class="node">
<title>b2</title>
<ellipse fill="none" stroke="black" cx="802.07" cy="-139" rx="27" ry="18"/>
<text text-anchor="middle" x="802.07" y="-135.3" font-family="Times,serif" font-size="14.00">b2</text>
</g>
<!-- b1&#45;&gt;b2 -->
<g id="edge50" class="edge">
<title>b1&#45;&gt;b2</title>
<path fill="none" stroke="black" d="M737.87,-138.29C746.25,-138.39 755.68,-138.49 764.64,-138.59"/>
<polygon fill="black" stroke="black" points="764.82,-142.1 774.86,-138.71 764.9,-135.1 764.82,-142.1"/>
</g>
<!-- b4&#45;&gt;b3 -->
<g id="edge54" class="edge">
<title>b4&#45;&gt;b3</title>
<path fill="none" stroke="black" d="M915.28,-92.66C925.59,-88.33 938.05,-83.09 949.34,-78.34"/>
<polygon fill="black" stroke="black" points="951.01,-81.44 958.87,-74.33 948.3,-74.98 951.01,-81.44"/>
</g>
<!-- c5&#45;&gt;c1 -->
<g id="edge17" class="edge">
<title>c5&#45;&gt;c1</title>
<path fill="none" stroke="black" d="M638.13,-661.91C650.73,-653.98 667.43,-643.47 681.5,-634.61"/>
<polygon fill="black" stroke="black" points="683.7,-637.36 690.3,-629.07 679.97,-631.44 683.7,-637.36"/>
</g>
<!-- c5&#45;&gt;c7 -->
<g id="edge15" class="edge">
<title>c5&#45;&gt;c7</title>
<path fill="none" stroke="black" d="M644.93,-674.14C685.09,-673.77 764.31,-670.73 829.07,-654 839.92,-651.2 851.31,-646.73 861.31,-642.23"/>
<polygon fill="black" stroke="black" points="862.86,-645.37 870.42,-637.95 859.88,-639.03 862.86,-645.37"/>
</g>
<!-- c5&#45;&gt;c6 -->
<g id="edge14" class="edge">
<title>c5&#45;&gt;c6</title>
<path fill="none" stroke="black" d="M643.98,-668.65C669.78,-663.02 711.1,-653.64 746.42,-644 753.31,-642.12 760.64,-639.96 767.62,-637.81"/>
<polygon fill="black" stroke="black" points="769,-641.05 777.5,-634.73 766.92,-634.37 769,-641.05"/>
</g>
<!-- c5&#45;&gt;c2 -->
<g id="edge16" class="edge">
<title>c5&#45;&gt;c2</title>
<path fill="none" stroke="black" d="M591.13,-677.57C550.01,-682.64 467.13,-690.35 397.69,-681 388.1,-679.71 377.9,-677.35 368.6,-674.78"/>
<polygon fill="black" stroke="black" points="369.51,-671.4 358.93,-671.96 367.55,-678.12 369.51,-671.4"/>
</g>
<!-- start -->
<g id="node24" class="node">
<title>start</title>
<ellipse fill="none" stroke="black" cx="520.83" cy="-398" rx="33.29" ry="18"/>
<text text-anchor="middle" x="520.83" y="-394.3" font-family="Times,serif" font-size="14.00">start</text>
</g>
<!-- start&#45;&gt;a3 -->
<g id="edge7" class="edge">
<title>start&#45;&gt;a3</title>
<path fill="none" stroke="green" stroke-width="5" d="M545.83,-386.1C558.25,-384.26 573.53,-384.01 586.74,-385.33"/>
<polygon fill="green" stroke="green" stroke-width="5" points="586.29,-389.69 596.8,-386.73 587.5,-381.02 586.29,-389.69"/>
</g>
<!-- start&#45;&gt;a3 -->
<g id="edge63" class="edge">
<title>start&#45;&gt;a3</title>
<path fill="none" stroke="black" d="M554.03,-398C562.53,-398 571.77,-398 580.48,-398"/>
<polygon fill="black" stroke="black" points="580.76,-401.5 590.76,-398 580.76,-394.5 580.76,-401.5"/>
</g>
<!-- start&#45;&gt;a3 -->
<g id="edge70" class="edge">
<title>start&#45;&gt;a3</title>
<path fill="none" stroke="black" d="M545.83,-409.9C558.25,-411.74 573.53,-411.99 586.74,-410.67"/>
<polygon fill="black" stroke="black" points="587.37,-414.11 596.8,-409.27 586.41,-407.18 587.37,-414.11"/>
</g>
<!-- a2 -->
<g id="node27" class="node">
<title>a2</title>
<ellipse fill="none" stroke="black" cx="617.93" cy="-600" rx="27" ry="18"/>
<text text-anchor="middle" x="617.93" y="-596.3" font-family="Times,serif" font-size="14.00">a2</text>
</g>
<!-- start&#45;&gt;a2 -->
<g id="edge6" class="edge">
<title>start&#45;&gt;a2</title>
<path fill="none" stroke="green" stroke-width="5" d="M530.1,-415.57C546.84,-451.12 584.78,-531.72 604.5,-573.61"/>
<polygon fill="green" stroke="green" stroke-width="5" points="600.66,-575.71 608.88,-582.9 608.57,-571.99 600.66,-575.71"/>
</g>
<!-- a11 -->
<g id="node32" class="node">
<title>a11</title>
<ellipse fill="none" stroke="black" cx="520.83" cy="-975" rx="27.9" ry="18"/>
<text text-anchor="middle" x="520.83" y="-971.3" font-family="Times,serif" font-size="14.00">a11</text>
</g>
<!-- a7&#45;&gt;a11 -->
<g id="edge28" class="edge">
<title>a7&#45;&gt;a11</title>
<path fill="none" stroke="black" d="M451.91,-953C463.19,-954.92 476.47,-957.92 488.28,-961.21"/>
<polygon fill="black" stroke="black" points="487.61,-964.67 498.19,-964.16 489.6,-957.96 487.61,-964.67"/>
</g>
<!-- a7&#45;&gt;a11 -->
<g id="edge41" class="edge">
<title>a7&#45;&gt;a11</title>
<path fill="none" stroke="black" d="M446.58,-963.6C457.16,-967.01 470.33,-970.38 482.57,-972.91"/>
<polygon fill="black" stroke="black" points="482.08,-976.38 492.56,-974.82 483.39,-969.5 482.08,-976.38"/>
</g>
<!-- a14 -->
<g id="node39" class="node">
<title>a14</title>
<ellipse fill="none" stroke="black" cx="520.83" cy="-911" rx="27.9" ry="18"/>
<text text-anchor="middle" x="520.83" y="-907.3" font-family="Times,serif" font-size="14.00">a14</text>
</g>
<!-- a7&#45;&gt;a14 -->
<g id="edge29" class="edge">
<title>a7&#45;&gt;a14</title>
<path fill="none" stroke="black" d="M443.39,-939.69C454.99,-933.28 470.55,-925.96 484.6,-920.16"/>
<polygon fill="black" stroke="black" points="486.02,-923.36 494.02,-916.42 483.44,-916.86 486.02,-923.36"/>
</g>
<!-- a7&#45;&gt;a14 -->
<g id="edge40" class="edge">
<title>a7&#45;&gt;a14</title>
<path fill="none" stroke="black" d="M450.91,-947.8C463.89,-942.9 479.71,-935.88 492.91,-929.18"/>
<polygon fill="black" stroke="black" points="494.78,-932.15 501.99,-924.38 491.51,-925.96 494.78,-932.15"/>
</g>
<!-- c3 -->
<g id="node31" class="node">
<title>c3</title>
<ellipse fill="none" stroke="black" cx="424.69" cy="-654" rx="27" ry="18"/>
<text text-anchor="middle" x="424.69" y="-650.3" font-family="Times,serif" font-size="14.00">c3</text>
</g>
<!-- c2&#45;&gt;c3 -->
<g id="edge10" class="edge">
<title>c2&#45;&gt;c3</title>
<path fill="none" stroke="black" d="M361.61,-661.05C369.85,-660.12 379.11,-659.07 387.91,-658.07"/>
<polygon fill="black" stroke="black" points="388.4,-661.53 397.94,-656.93 387.61,-654.58 388.4,-661.53"/>
</g>
<!-- a2&#45;&gt;c1 -->
<g id="edge9" class="edge">
<title>a2&#45;&gt;c1</title>
<path fill="none" stroke="green" stroke-width="5" d="M645.12,-598.73C655.41,-600.02 667.31,-602.16 678.06,-604.64"/>
<polygon fill="green" stroke="green" stroke-width="5" points="677.15,-608.93 687.92,-607.1 679.28,-600.44 677.15,-608.93"/>
</g>
<!-- a2&#45;&gt;c1 -->
<g id="edge12" class="edge">
<title>a2&#45;&gt;c1</title>
<path fill="none" stroke="black" d="M640.85,-609.99C650.52,-612.6 662.16,-615.04 673.08,-616.8"/>
<polygon fill="black" stroke="black" points="672.85,-620.3 683.24,-618.26 673.85,-613.37 672.85,-620.3"/>
</g>
<!-- b7 -->
<g id="node28" class="node">
<title>b7</title>
<ellipse fill="none" stroke="black" cx="1072.07" cy="-99" rx="27" ry="18"/>
<text text-anchor="middle" x="1072.07" y="-95.3" font-family="Times,serif" font-size="14.00">b7</text>
</g>
<!-- b7&#45;&gt;b8 -->
<g id="edge47" class="edge">
<title>b7&#45;&gt;b8</title>
<path fill="none" stroke="black" d="M1059.6,-82.71C1048.47,-68.3 1030.2,-48.06 1009.07,-38 962.23,-15.7 944.95,-25 893.07,-25 709.47,-25 709.47,-25 709.47,-25 656.17,-25 594.83,-33.08 557.19,-38.97"/>
<polygon fill="black" stroke="black" points="556.56,-35.52 547.23,-40.56 557.66,-42.44 556.56,-35.52"/>
</g>
<!-- b2&#45;&gt;b5 -->
<g id="edge49" class="edge">
<title>b2&#45;&gt;b5</title>
<path fill="none" stroke="black" d="M828.52,-143.92C837.08,-145.57 846.78,-147.44 855.95,-149.21"/>
<polygon fill="black" stroke="black" points="855.49,-152.69 865.98,-151.15 856.82,-145.82 855.49,-152.69"/>
</g>
<!-- b2&#45;&gt;b4 -->
<g id="edge48" class="edge">
<title>b2&#45;&gt;b4</title>
<path fill="none" stroke="black" d="M825.28,-129.66C835.59,-125.33 848.05,-120.09 859.34,-115.34"/>
<polygon fill="black" stroke="black" points="861.01,-118.44 868.87,-111.33 858.3,-111.98 861.01,-118.44"/>
</g>
<!-- b9&#45;&gt;b10 -->
<g id="edge58" class="edge">
<title>b9&#45;&gt;b10</title>
<path fill="none" stroke="black" d="M643.19,-103.76C652.8,-100.9 664.03,-97.55 674.48,-94.43"/>
<polygon fill="black" stroke="black" points="675.61,-97.75 684.19,-91.54 673.61,-91.04 675.61,-97.75"/>
</g>
<!-- b9&#45;&gt;b1 -->
<g id="edge57" class="edge">
<title>b9&#45;&gt;b1</title>
<path fill="none" stroke="black" d="M643.19,-118.24C653.22,-121.23 665.01,-124.74 675.85,-127.97"/>
<polygon fill="black" stroke="black" points="674.87,-131.33 685.45,-130.84 676.87,-124.63 674.87,-131.33"/>
</g>
<!-- a17 -->
<g id="node35" class="node">
<title>a17</title>
<ellipse fill="none" stroke="black" cx="520.83" cy="-276" rx="27.9" ry="18"/>
<text text-anchor="middle" x="520.83" y="-272.3" font-family="Times,serif" font-size="14.00">a17</text>
</g>
<!-- b9&#45;&gt;a17 -->
<g id="edge3" class="edge">
<title>b9&#45;&gt;a17</title>
<path fill="none" stroke="green" stroke-width="5" d="M609.83,-128.56C599.3,-153.76 578.16,-201.18 553.98,-238 550.64,-243.09 546.7,-248.26 542.75,-253.07"/>
<polygon fill="green" stroke="green" stroke-width="5" points="539.34,-250.32 536.18,-260.77 546,-256 539.34,-250.32"/>
</g>
<!-- c3&#45;&gt;c4 -->
<g id="edge21" class="edge">
<title>c3&#45;&gt;c4</title>
<path fill="none" stroke="black" d="M451.91,-654C461.7,-654 473.01,-654 483.55,-654"/>
<polygon fill="black" stroke="black" points="483.75,-657.5 493.75,-654 483.75,-650.5 483.75,-657.5"/>
</g>
<!-- a12 -->
<g id="node34" class="node">
<title>a12</title>
<ellipse fill="none" stroke="black" cx="617.93" cy="-987" rx="27.9" ry="18"/>
<text text-anchor="middle" x="617.93" y="-983.3" font-family="Times,serif" font-size="14.00">a12</text>
</g>
<!-- a11&#45;&gt;a12 -->
<g id="edge24" class="edge">
<title>a11&#45;&gt;a12</title>
<path fill="none" stroke="black" d="M548.57,-972.24C559.34,-972.92 571.88,-974.39 583.26,-976.26"/>
<polygon fill="black" stroke="black" points="582.83,-979.74 593.3,-978.09 584.09,-972.86 582.83,-979.74"/>
</g>
<!-- a11&#45;&gt;a12 -->
<g id="edge42" class="edge">
<title>a11&#45;&gt;a12</title>
<path fill="none" stroke="black" d="M545.34,-983.88C555.7,-985.98 568.12,-987.77 579.69,-988.91"/>
<polygon fill="black" stroke="black" points="579.74,-992.42 589.99,-989.75 580.31,-985.45 579.74,-992.42"/>
</g>
<!-- end -->
<g id="node37" class="node">
<title>end</title>
<ellipse fill="none" stroke="black" cx="151.84" cy="-794" rx="27.9" ry="18"/>
<text text-anchor="middle" x="151.84" y="-790.3" font-family="Times,serif" font-size="14.00">end</text>
</g>
<!-- a18&#45;&gt;end -->
<g id="edge1" class="edge">
<title>a18&#45;&gt;end</title>
<path fill="none" stroke="green" stroke-width="5" d="M81.8,-782.4C93.14,-780.42 107.4,-779.99 120,-781.11"/>
<polygon fill="green" stroke="green" stroke-width="5" points="119.63,-785.47 130.11,-782.42 120.75,-776.79 119.63,-785.47"/>
</g>
<!-- a18&#45;&gt;end -->
<g id="edge32" class="edge">
<title>a18&#45;&gt;end</title>
<path fill="none" stroke="black" d="M87.92,-794C96.01,-794 105.03,-794 113.65,-794"/>
<polygon fill="black" stroke="black" points="113.89,-797.5 123.89,-794 113.89,-790.5 113.89,-797.5"/>
</g>
<!-- a18&#45;&gt;end -->
<g id="edge45" class="edge">
<title>a18&#45;&gt;end</title>
<path fill="none" stroke="black" d="M81.8,-805.6C93.14,-807.58 107.4,-808.01 120,-806.89"/>
<polygon fill="black" stroke="black" points="120.64,-810.34 130.11,-805.58 119.74,-803.4 120.64,-810.34"/>
</g>
<!-- a12&#45;&gt;a13 -->
<g id="edge25" class="edge">
<title>a12&#45;&gt;a13</title>
<path fill="none" stroke="black" d="M589.81,-985.86C578.75,-987.94 565.82,-990.91 553.98,-993 497.45,-1003 483.09,-1008 425.69,-1008 333.69,-1008 333.69,-1008 333.69,-1008 277.98,-1008 262.5,-1012.59 208.74,-998 201.75,-996.1 194.58,-993.34 187.8,-990.47"/>
<polygon fill="black" stroke="black" points="188.79,-987.08 178.23,-986.25 185.97,-993.48 188.79,-987.08"/>
</g>
<!-- a12&#45;&gt;a13 -->
<g id="edge35" class="edge">
<title>a12&#45;&gt;a13</title>
<path fill="none" stroke="black" d="M598.04,-999.79C585.6,-1004.33 568.91,-1008.36 553.98,-1011 497.45,-1021 483.09,-1026 425.69,-1026 333.69,-1026 333.69,-1026 333.69,-1026 277.98,-1026 262.5,-1030.59 208.74,-1016 197.11,-1012.85 184.98,-1007.3 175,-1001.3"/>
<polygon fill="black" stroke="black" points="176.8,-998.29 166.52,-995.72 172.95,-1004.14 176.8,-998.29"/>
</g>
<!-- a17&#45;&gt;a16 -->
<g id="edge61" class="edge">
<title>a17&#45;&gt;a16</title>
<path fill="none" stroke="black" d="M547.32,-269.94C557.76,-269.24 570.03,-269.07 581.34,-269.44"/>
<polygon fill="black" stroke="black" points="581.21,-272.94 591.37,-269.94 581.56,-265.95 581.21,-272.94"/>
</g>
<!-- a17&#45;&gt;a16 -->
<g id="edge72" class="edge">
<title>a17&#45;&gt;a16</title>
<path fill="none" stroke="black" d="M547.32,-282.06C557.76,-282.76 570.03,-282.93 581.34,-282.56"/>
<polygon fill="black" stroke="black" points="581.56,-286.05 591.37,-282.06 581.21,-279.06 581.56,-286.05"/>
</g>
<!-- b6&#45;&gt;b7 -->
<g id="edge55" class="edge">
<title>b6&#45;&gt;b7</title>
<path fill="none" stroke="black" d="M1002.16,-143.63C1014.27,-135.79 1030.13,-125.52 1043.58,-116.8"/>
<polygon fill="black" stroke="black" points="1045.52,-119.72 1052.01,-111.34 1041.72,-113.84 1045.52,-119.72"/>
</g>
<!-- a9 -->
<g id="node38" class="node">
<title>a9</title>
<ellipse fill="none" stroke="black" cx="243.74" cy="-926" rx="27" ry="18"/>
<text text-anchor="middle" x="243.74" y="-922.3" font-family="Times,serif" font-size="14.00">a9</text>
</g>
<!-- a9&#45;&gt;a8 -->
<g id="edge33" class="edge">
<title>a9&#45;&gt;a8</title>
<path fill="none" stroke="black" d="M270.94,-927.74C281.46,-930.28 293.62,-933.92 304.42,-937.73"/>
<polygon fill="black" stroke="black" points="303.28,-941.04 313.88,-941.26 305.73,-934.48 303.28,-941.04"/>
</g>
<!-- a9&#45;&gt;a8 -->
<g id="edge36" class="edge">
<title>a9&#45;&gt;a8</title>
<path fill="none" stroke="black" d="M264.48,-937.71C274.3,-941.61 286.47,-945.61 297.86,-948.76"/>
<polygon fill="black" stroke="black" points="297.03,-952.16 307.58,-951.29 298.79,-945.38 297.03,-952.16"/>
</g>
<!-- a9&#45;&gt;c2 -->
<g id="edge2" class="edge">
<title>a9&#45;&gt;c2</title>
<path fill="none" stroke="green" stroke-width="5" d="M250.71,-908.4C265.93,-863.56 306.26,-744.78 324.5,-691.06"/>
<polygon fill="green" stroke="green" stroke-width="5" points="328.66,-692.4 327.74,-681.52 320.38,-689.58 328.66,-692.4"/>
</g>
<!-- a14&#45;&gt;a15 -->
<g id="edge34" class="edge">
<title>a14&#45;&gt;a15</title>
<path fill="none" stroke="black" d="M497.54,-900.86C463.01,-891.18 394.45,-880 335.69,-880 242.74,-880 242.74,-880 242.74,-880 185.26,-880 121.63,-905.11 86.97,-923.94"/>
<polygon fill="black" stroke="black" points="84.95,-921.07 77.99,-929.06 88.41,-927.15 84.95,-921.07"/>
</g>
<!-- a14&#45;&gt;a15 -->
<g id="edge39" class="edge">
<title>a14&#45;&gt;a15</title>
<path fill="none" stroke="black" d="M492.81,-911.88C457.02,-908.22 391.87,-898 335.69,-898 242.74,-898 242.74,-898 242.74,-898 189.77,-898 131.58,-919.33 95.66,-932.94"/>
<polygon fill="black" stroke="black" points="94.24,-929.73 86.13,-936.55 96.73,-936.28 94.24,-929.73"/>
</g>
</g>
</svg>
