<?xml version="1.0" encoding="UTF-8" standalone="no"?>
<!DOCTYPE svg PUBLIC "-//W3C//DTD SVG 1.1//EN"
 "http://www.w3.org/Graphics/SVG/1.1/DTD/svg11.dtd">
<!-- Generated by graphviz version 2.43.0 (0)
 -->
<!-- Title: G Pages: 1 -->
<svg width="616pt" height="908pt"
 viewBox="0.00 0.00 616.00 908.00" xmlns="http://www.w3.org/2000/svg" xmlns:xlink="http://www.w3.org/1999/xlink">
<g id="graph0" class="graph" transform="scale(1 1) rotate(0) translate(4 904)">
<title>G</title>
<polygon fill="white" stroke="transparent" points="-4,4 -4,-904 612,-904 612,4 -4,4"/>
<!-- start -->
<g id="node1" class="node">
<title>start</title>
<ellipse fill="none" stroke="black" cx="240" cy="-882" rx="33.29" ry="18"/>
<text text-anchor="middle" x="240" y="-878.3" font-family="Times,serif" font-size="14.00">start</text>
</g>
<!-- a2 -->
<g id="node2" class="node">
<title>a2</title>
<ellipse fill="none" stroke="black" cx="204" cy="-810" rx="27" ry="18"/>
<text text-anchor="middle" x="204" y="-806.3" font-family="Times,serif" font-size="14.00">a2</text>
</g>
<!-- start&#45;&gt;a2 -->
<g id="edge1" class="edge">
<title>start&#45;&gt;a2</title>
<path fill="none" stroke="black" d="M231.47,-864.41C227.16,-856.04 221.85,-845.71 217.05,-836.37"/>
<polygon fill="black" stroke="black" points="220.16,-834.76 212.47,-827.47 213.93,-837.96 220.16,-834.76"/>
</g>
<!-- a3 -->
<g id="node3" class="node">
<title>a3</title>
<ellipse fill="none" stroke="black" cx="295" cy="-810" rx="27" ry="18"/>
<text text-anchor="middle" x="295" y="-806.3" font-family="Times,serif" font-size="14.00">a3</text>
</g>
<!-- start&#45;&gt;a3 -->
<g id="edge2" class="edge">
<title>start&#45;&gt;a3</title>
<path fill="none" stroke="black" d="M252.48,-865.12C259.61,-856.04 268.69,-844.49 276.62,-834.39"/>
<polygon fill="black" stroke="black" points="279.52,-836.37 282.95,-826.34 274.02,-832.04 279.52,-836.37"/>
</g>
<!-- c1 -->
<g id="node30" class="node">
<title>c1</title>
<ellipse fill="none" stroke="black" cx="85" cy="-666" rx="27" ry="18"/>
<text text-anchor="middle" x="85" y="-662.3" font-family="Times,serif" font-size="14.00">c1</text>
</g>
<!-- a2&#45;&gt;c1 -->
<g id="edge41" class="edge">
<title>a2&#45;&gt;c1</title>
<path fill="none" stroke="black" d="M191.26,-793.8C170.42,-768.93 128.88,-719.36 104.37,-690.11"/>
<polygon fill="black" stroke="black" points="106.75,-687.5 97.64,-682.09 101.38,-692 106.75,-687.5"/>
</g>
<!-- a4 -->
<g id="node4" class="node">
<title>a4</title>
<ellipse fill="none" stroke="black" cx="240" cy="-738" rx="27" ry="18"/>
<text text-anchor="middle" x="240" y="-734.3" font-family="Times,serif" font-size="14.00">a4</text>
</g>
<!-- a3&#45;&gt;a4 -->
<g id="edge3" class="edge">
<title>a3&#45;&gt;a4</title>
<path fill="none" stroke="black" d="M283.07,-793.81C275.79,-784.55 266.34,-772.52 258.15,-762.09"/>
<polygon fill="black" stroke="black" points="260.84,-759.86 251.91,-754.16 255.34,-764.18 260.84,-759.86"/>
</g>
<!-- b1 -->
<g id="node20" class="node">
<title>b1</title>
<ellipse fill="none" stroke="black" cx="395" cy="-234" rx="27" ry="18"/>
<text text-anchor="middle" x="395" y="-230.3" font-family="Times,serif" font-size="14.00">b1</text>
</g>
<!-- a3&#45;&gt;b1 -->
<g id="edge39" class="edge">
<title>a3&#45;&gt;b1</title>
<path fill="none" stroke="black" d="M314.51,-797.23C347.32,-775.78 410,-726.96 410,-667 410,-667 410,-667 410,-377 410,-336.77 403.97,-290.49 399.56,-261.99"/>
<polygon fill="black" stroke="black" points="403,-261.31 397.96,-251.99 396.08,-262.41 403,-261.31"/>
</g>
<!-- a9 -->
<g id="node5" class="node">
<title>a9</title>
<ellipse fill="none" stroke="black" cx="234" cy="-666" rx="27" ry="18"/>
<text text-anchor="middle" x="234" y="-662.3" font-family="Times,serif" font-size="14.00">a9</text>
</g>
<!-- a4&#45;&gt;a9 -->
<g id="edge4" class="edge">
<title>a4&#45;&gt;a9</title>
<path fill="none" stroke="black" d="M238.52,-719.7C237.86,-711.98 237.06,-702.71 236.32,-694.11"/>
<polygon fill="black" stroke="black" points="239.81,-693.77 235.47,-684.1 232.83,-694.37 239.81,-693.77"/>
</g>
<!-- a5 -->
<g id="node6" class="node">
<title>a5</title>
<ellipse fill="none" stroke="black" cx="355" cy="-666" rx="27" ry="18"/>
<text text-anchor="middle" x="355" y="-662.3" font-family="Times,serif" font-size="14.00">a5</text>
</g>
<!-- a4&#45;&gt;a5 -->
<g id="edge5" class="edge">
<title>a4&#45;&gt;a5</title>
<path fill="none" stroke="black" d="M259.25,-725.28C277.74,-714.03 305.89,-696.89 326.89,-684.11"/>
<polygon fill="black" stroke="black" points="328.97,-686.94 335.69,-678.75 325.33,-680.96 328.97,-686.94"/>
</g>
<!-- a8 -->
<g id="node11" class="node">
<title>a8</title>
<ellipse fill="none" stroke="black" cx="234" cy="-594" rx="27" ry="18"/>
<text text-anchor="middle" x="234" y="-590.3" font-family="Times,serif" font-size="14.00">a8</text>
</g>
<!-- a9&#45;&gt;a8 -->
<g id="edge13" class="edge">
<title>a9&#45;&gt;a8</title>
<path fill="none" stroke="black" d="M234,-647.7C234,-639.98 234,-630.71 234,-622.11"/>
<polygon fill="black" stroke="black" points="237.5,-622.1 234,-612.1 230.5,-622.1 237.5,-622.1"/>
</g>
<!-- c2 -->
<g id="node31" class="node">
<title>c2</title>
<ellipse fill="none" stroke="black" cx="131" cy="-594" rx="27" ry="18"/>
<text text-anchor="middle" x="131" y="-590.3" font-family="Times,serif" font-size="14.00">c2</text>
</g>
<!-- a9&#45;&gt;c2 -->
<g id="edge42" class="edge">
<title>a9&#45;&gt;c2</title>
<path fill="none" stroke="black" d="M215.59,-652.49C199.47,-641.54 175.87,-625.49 157.69,-613.14"/>
<polygon fill="black" stroke="black" points="159.49,-610.13 149.25,-607.41 155.56,-615.92 159.49,-610.13"/>
</g>
<!-- a6 -->
<g id="node7" class="node">
<title>a6</title>
<ellipse fill="none" stroke="black" cx="355" cy="-594" rx="27" ry="18"/>
<text text-anchor="middle" x="355" y="-590.3" font-family="Times,serif" font-size="14.00">a6</text>
</g>
<!-- a5&#45;&gt;a6 -->
<g id="edge6" class="edge">
<title>a5&#45;&gt;a6</title>
<path fill="none" stroke="black" d="M355,-647.7C355,-639.98 355,-630.71 355,-622.11"/>
<polygon fill="black" stroke="black" points="358.5,-622.1 355,-612.1 351.5,-622.1 358.5,-622.1"/>
</g>
<!-- a6&#45;&gt;a3 -->
<g id="edge7" class="edge">
<title>a6&#45;&gt;a3</title>
<path fill="none" stroke="black" d="M368.75,-609.93C376.96,-619.9 386.62,-633.75 391,-648 395.7,-663.29 396.15,-668.85 391,-684 376.69,-726.13 341.82,-765.18 318.29,-788.05"/>
<polygon fill="black" stroke="black" points="315.63,-785.75 310.79,-795.18 320.45,-790.83 315.63,-785.75"/>
</g>
<!-- a14 -->
<g id="node8" class="node">
<title>a14</title>
<ellipse fill="none" stroke="black" cx="354" cy="-450" rx="27.9" ry="18"/>
<text text-anchor="middle" x="354" y="-446.3" font-family="Times,serif" font-size="14.00">a14</text>
</g>
<!-- a6&#45;&gt;a14 -->
<g id="edge8" class="edge">
<title>a6&#45;&gt;a14</title>
<path fill="none" stroke="black" d="M354.88,-575.87C354.71,-551.67 354.4,-507.21 354.19,-478.39"/>
<polygon fill="black" stroke="black" points="357.69,-478.16 354.12,-468.19 350.69,-478.21 357.69,-478.16"/>
</g>
<!-- b6 -->
<g id="node25" class="node">
<title>b6</title>
<ellipse fill="none" stroke="black" cx="491" cy="-522" rx="27" ry="18"/>
<text text-anchor="middle" x="491" y="-518.3" font-family="Times,serif" font-size="14.00">b6</text>
</g>
<!-- a6&#45;&gt;b6 -->
<g id="edge40" class="edge">
<title>a6&#45;&gt;b6</title>
<path fill="none" stroke="black" d="M375.66,-582.37C398.42,-570.65 435.24,-551.7 461.15,-538.37"/>
<polygon fill="black" stroke="black" points="462.86,-541.42 470.15,-533.73 459.66,-535.2 462.86,-541.42"/>
</g>
<!-- a15 -->
<g id="node16" class="node">
<title>a15</title>
<ellipse fill="none" stroke="black" cx="354" cy="-378" rx="27.9" ry="18"/>
<text text-anchor="middle" x="354" y="-374.3" font-family="Times,serif" font-size="14.00">a15</text>
</g>
<!-- a14&#45;&gt;a15 -->
<g id="edge19" class="edge">
<title>a14&#45;&gt;a15</title>
<path fill="none" stroke="black" d="M354,-431.7C354,-423.98 354,-414.71 354,-406.11"/>
<polygon fill="black" stroke="black" points="357.5,-406.1 354,-396.1 350.5,-406.1 357.5,-406.1"/>
</g>
<!-- a7 -->
<g id="node9" class="node">
<title>a7</title>
<ellipse fill="none" stroke="black" cx="290" cy="-522" rx="27" ry="18"/>
<text text-anchor="middle" x="290" y="-518.3" font-family="Times,serif" font-size="14.00">a7</text>
</g>
<!-- a7&#45;&gt;a3 -->
<g id="edge9" class="edge">
<title>a7&#45;&gt;a3</title>
<path fill="none" stroke="black" d="M290.3,-540.31C291.14,-588.31 293.5,-723.44 294.52,-781.7"/>
<polygon fill="black" stroke="black" points="291.03,-782.03 294.7,-791.97 298.03,-781.91 291.03,-782.03"/>
</g>
<!-- a7&#45;&gt;a14 -->
<g id="edge10" class="edge">
<title>a7&#45;&gt;a14</title>
<path fill="none" stroke="black" d="M303.57,-506.15C312.31,-496.6 323.83,-483.99 333.66,-473.25"/>
<polygon fill="black" stroke="black" points="336.28,-475.57 340.45,-465.82 331.12,-470.84 336.28,-475.57"/>
</g>
<!-- a11 -->
<g id="node10" class="node">
<title>a11</title>
<ellipse fill="none" stroke="black" cx="280" cy="-450" rx="27.9" ry="18"/>
<text text-anchor="middle" x="280" y="-446.3" font-family="Times,serif" font-size="14.00">a11</text>
</g>
<!-- a7&#45;&gt;a11 -->
<g id="edge11" class="edge">
<title>a7&#45;&gt;a11</title>
<path fill="none" stroke="black" d="M287.58,-504.05C286.48,-496.35 285.15,-487.03 283.91,-478.36"/>
<polygon fill="black" stroke="black" points="287.35,-477.68 282.47,-468.28 280.42,-478.67 287.35,-477.68"/>
</g>
<!-- a12 -->
<g id="node13" class="node">
<title>a12</title>
<ellipse fill="none" stroke="black" cx="280" cy="-378" rx="27.9" ry="18"/>
<text text-anchor="middle" x="280" y="-374.3" font-family="Times,serif" font-size="14.00">a12</text>
</g>
<!-- a11&#45;&gt;a12 -->
<g id="edge15" class="edge">
<title>a11&#45;&gt;a12</title>
<path fill="none" stroke="black" d="M280,-431.7C280,-423.98 280,-414.71 280,-406.11"/>
<polygon fill="black" stroke="black" points="283.5,-406.1 280,-396.1 276.5,-406.1 283.5,-406.1"/>
</g>
<!-- a8&#45;&gt;a7 -->
<g id="edge12" class="edge">
<title>a8&#45;&gt;a7</title>
<path fill="none" stroke="black" d="M246.15,-577.81C253.56,-568.55 263.18,-556.52 271.52,-546.09"/>
<polygon fill="black" stroke="black" points="274.36,-548.15 277.87,-538.16 268.89,-543.78 274.36,-548.15"/>
</g>
<!-- a10 -->
<g id="node12" class="node">
<title>a10</title>
<ellipse fill="none" stroke="black" cx="242" cy="-234" rx="27.9" ry="18"/>
<text text-anchor="middle" x="242" y="-230.3" font-family="Times,serif" font-size="14.00">a10</text>
</g>
<!-- a10&#45;&gt;a8 -->
<g id="edge14" class="edge">
<title>a10&#45;&gt;a8</title>
<path fill="none" stroke="black" d="M238.44,-251.96C233.2,-278.5 224,-331.52 224,-377 224,-451 224,-451 224,-451 224,-491.1 228.02,-537.42 230.96,-565.96"/>
<polygon fill="black" stroke="black" points="227.49,-566.4 232.02,-575.98 234.45,-565.66 227.49,-566.4"/>
</g>
<!-- a13 -->
<g id="node14" class="node">
<title>a13</title>
<ellipse fill="none" stroke="black" cx="298" cy="-306" rx="27.9" ry="18"/>
<text text-anchor="middle" x="298" y="-302.3" font-family="Times,serif" font-size="14.00">a13</text>
</g>
<!-- a12&#45;&gt;a13 -->
<g id="edge16" class="edge">
<title>a12&#45;&gt;a13</title>
<path fill="none" stroke="black" d="M284.36,-360.05C286.39,-352.14 288.86,-342.54 291.14,-333.69"/>
<polygon fill="black" stroke="black" points="294.58,-334.35 293.68,-323.79 287.8,-332.6 294.58,-334.35"/>
</g>
<!-- a13&#45;&gt;a10 -->
<g id="edge17" class="edge">
<title>a13&#45;&gt;a10</title>
<path fill="none" stroke="black" d="M285.57,-289.46C278.25,-280.31 268.84,-268.55 260.65,-258.31"/>
<polygon fill="black" stroke="black" points="263.37,-256.11 254.39,-250.49 257.91,-260.49 263.37,-256.11"/>
</g>
<!-- a17 -->
<g id="node15" class="node">
<title>a17</title>
<ellipse fill="none" stroke="black" cx="316" cy="-234" rx="27.9" ry="18"/>
<text text-anchor="middle" x="316" y="-230.3" font-family="Times,serif" font-size="14.00">a17</text>
</g>
<!-- a13&#45;&gt;a17 -->
<g id="edge18" class="edge">
<title>a13&#45;&gt;a17</title>
<path fill="none" stroke="black" d="M302.36,-288.05C304.39,-280.14 306.86,-270.54 309.14,-261.69"/>
<polygon fill="black" stroke="black" points="312.58,-262.35 311.68,-251.79 305.8,-260.6 312.58,-262.35"/>
</g>
<!-- a16 -->
<g id="node17" class="node">
<title>a16</title>
<ellipse fill="none" stroke="black" cx="316" cy="-162" rx="27.9" ry="18"/>
<text text-anchor="middle" x="316" y="-158.3" font-family="Times,serif" font-size="14.00">a16</text>
</g>
<!-- a17&#45;&gt;a16 -->
<g id="edge23" class="edge">
<title>a17&#45;&gt;a16</title>
<path fill="none" stroke="black" d="M316,-215.7C316,-207.98 316,-198.71 316,-190.11"/>
<polygon fill="black" stroke="black" points="319.5,-190.1 316,-180.1 312.5,-190.1 319.5,-190.1"/>
</g>
<!-- a18 -->
<g id="node18" class="node">
<title>a18</title>
<ellipse fill="none" stroke="black" cx="248" cy="-90" rx="27.9" ry="18"/>
<text text-anchor="middle" x="248" y="-86.3" font-family="Times,serif" font-size="14.00">a18</text>
</g>
<!-- a17&#45;&gt;a18 -->
<g id="edge22" class="edge">
<title>a17&#45;&gt;a18</title>
<path fill="none" stroke="black" d="M303.46,-217.49C295.66,-207.28 285.84,-193.39 279,-180 268.75,-159.93 260.55,-135.69 255.17,-117.58"/>
<polygon fill="black" stroke="black" points="258.53,-116.61 252.4,-107.96 251.8,-118.54 258.53,-116.61"/>
</g>
<!-- a15&#45;&gt;a13 -->
<g id="edge20" class="edge">
<title>a15&#45;&gt;a13</title>
<path fill="none" stroke="black" d="M341.57,-361.46C334.25,-352.31 324.84,-340.55 316.65,-330.31"/>
<polygon fill="black" stroke="black" points="319.37,-328.11 310.39,-322.49 313.91,-332.49 319.37,-328.11"/>
</g>
<!-- a16&#45;&gt;a18 -->
<g id="edge21" class="edge">
<title>a16&#45;&gt;a18</title>
<path fill="none" stroke="black" d="M301.58,-146.15C292.29,-136.6 280.05,-123.99 269.61,-113.25"/>
<polygon fill="black" stroke="black" points="271.88,-110.56 262.4,-105.82 266.86,-115.44 271.88,-110.56"/>
</g>
<!-- a19 -->
<g id="node19" class="node">
<title>a19</title>
<ellipse fill="none" stroke="black" cx="322" cy="-90" rx="27.9" ry="18"/>
<text text-anchor="middle" x="322" y="-86.3" font-family="Times,serif" font-size="14.00">a19</text>
</g>
<!-- a16&#45;&gt;a19 -->
<g id="edge24" class="edge">
<title>a16&#45;&gt;a19</title>
<path fill="none" stroke="black" d="M317.48,-143.7C318.14,-135.98 318.94,-126.71 319.68,-118.11"/>
<polygon fill="black" stroke="black" points="323.17,-118.37 320.53,-108.1 316.19,-117.77 323.17,-118.37"/>
</g>
<!-- end -->
<g id="node39" class="node">
<title>end</title>
<ellipse fill="none" stroke="black" cx="248" cy="-18" rx="27.9" ry="18"/>
<text text-anchor="middle" x="248" y="-14.3" font-family="Times,serif" font-size="14.00">end</text>
</g>
<!-- a18&#45;&gt;end -->
<g id="edge57" class="edge">
<title>a18&#45;&gt;end</title>
<path fill="none" stroke="black" d="M248,-71.7C248,-63.98 248,-54.71 248,-46.11"/>
<polygon fill="black" stroke="black" points="251.5,-46.1 248,-36.1 244.5,-46.1 251.5,-46.1"/>
</g>
<!-- b2 -->
<g id="node21" class="node">
<title>b2</title>
<ellipse fill="none" stroke="black" cx="471" cy="-162" rx="27" ry="18"/>
<text text-anchor="middle" x="471" y="-158.3" font-family="Times,serif" font-size="14.00">b2</text>
</g>
<!-- b1&#45;&gt;b2 -->
<g id="edge25" class="edge">
<title>b1&#45;&gt;b2</title>
<path fill="none" stroke="black" d="M410.38,-218.83C421.2,-208.87 435.86,-195.37 448.05,-184.14"/>
<polygon fill="black" stroke="black" points="450.66,-186.49 455.64,-177.14 445.92,-181.34 450.66,-186.49"/>
</g>
<!-- b3 -->
<g id="node22" class="node">
<title>b3</title>
<ellipse fill="none" stroke="black" cx="452" cy="-18" rx="27" ry="18"/>
<text text-anchor="middle" x="452" y="-14.3" font-family="Times,serif" font-size="14.00">b3</text>
</g>
<!-- b1&#45;&gt;b3 -->
<g id="edge26" class="edge">
<title>b1&#45;&gt;b3</title>
<path fill="none" stroke="black" d="M394.67,-215.92C394.65,-185.82 397.07,-121.8 416,-72 419.97,-61.55 426.37,-51.14 432.68,-42.34"/>
<polygon fill="black" stroke="black" points="435.64,-44.23 438.87,-34.15 430.05,-40.02 435.64,-44.23"/>
</g>
<!-- b4 -->
<g id="node23" class="node">
<title>b4</title>
<ellipse fill="none" stroke="black" cx="452" cy="-90" rx="27" ry="18"/>
<text text-anchor="middle" x="452" y="-86.3" font-family="Times,serif" font-size="14.00">b4</text>
</g>
<!-- b1&#45;&gt;b4 -->
<g id="edge27" class="edge">
<title>b1&#45;&gt;b4</title>
<path fill="none" stroke="black" d="M401.65,-216.43C411.48,-191.96 429.96,-145.91 441.59,-116.94"/>
<polygon fill="black" stroke="black" points="444.92,-118.05 445.39,-107.46 438.42,-115.44 444.92,-118.05"/>
</g>
<!-- b2&#45;&gt;b4 -->
<g id="edge28" class="edge">
<title>b2&#45;&gt;b4</title>
<path fill="none" stroke="black" d="M466.4,-144.05C464.25,-136.14 461.65,-126.54 459.24,-117.69"/>
<polygon fill="black" stroke="black" points="462.55,-116.52 456.56,-107.79 455.8,-118.36 462.55,-116.52"/>
</g>
<!-- b5 -->
<g id="node24" class="node">
<title>b5</title>
<ellipse fill="none" stroke="black" cx="581" cy="-90" rx="27" ry="18"/>
<text text-anchor="middle" x="581" y="-86.3" font-family="Times,serif" font-size="14.00">b5</text>
</g>
<!-- b2&#45;&gt;b5 -->
<g id="edge30" class="edge">
<title>b2&#45;&gt;b5</title>
<path fill="none" stroke="black" d="M490.16,-148.81C507.67,-137.67 533.76,-121.06 553.49,-108.5"/>
<polygon fill="black" stroke="black" points="555.5,-111.37 562.06,-103.05 551.74,-105.47 555.5,-111.37"/>
</g>
<!-- b8 -->
<g id="node27" class="node">
<title>b8</title>
<ellipse fill="none" stroke="black" cx="491" cy="-378" rx="27" ry="18"/>
<text text-anchor="middle" x="491" y="-374.3" font-family="Times,serif" font-size="14.00">b8</text>
</g>
<!-- b3&#45;&gt;b8 -->
<g id="edge36" class="edge">
<title>b3&#45;&gt;b8</title>
<path fill="none" stroke="black" d="M465.92,-33.84C487.35,-58.32 526,-109.57 526,-161 526,-235 526,-235 526,-235 526,-276.38 511.81,-322.63 501.5,-350.77"/>
<polygon fill="black" stroke="black" points="498.17,-349.69 497.91,-360.28 504.72,-352.16 498.17,-349.69"/>
</g>
<!-- b4&#45;&gt;b3 -->
<g id="edge29" class="edge">
<title>b4&#45;&gt;b3</title>
<path fill="none" stroke="black" d="M452,-71.7C452,-63.98 452,-54.71 452,-46.11"/>
<polygon fill="black" stroke="black" points="455.5,-46.1 452,-36.1 448.5,-46.1 455.5,-46.1"/>
</g>
<!-- b5&#45;&gt;b6 -->
<g id="edge31" class="edge">
<title>b5&#45;&gt;b6</title>
<path fill="none" stroke="black" d="M579.22,-108.03C576.6,-134.66 572,-187.79 572,-233 572,-379 572,-379 572,-379 572,-426.84 536.88,-473.24 512.89,-499.36"/>
<polygon fill="black" stroke="black" points="510.19,-497.13 505.86,-506.8 515.27,-501.94 510.19,-497.13"/>
</g>
<!-- b7 -->
<g id="node26" class="node">
<title>b7</title>
<ellipse fill="none" stroke="black" cx="491" cy="-450" rx="27" ry="18"/>
<text text-anchor="middle" x="491" y="-446.3" font-family="Times,serif" font-size="14.00">b7</text>
</g>
<!-- b6&#45;&gt;b7 -->
<g id="edge32" class="edge">
<title>b6&#45;&gt;b7</title>
<path fill="none" stroke="black" d="M491,-503.7C491,-495.98 491,-486.71 491,-478.11"/>
<polygon fill="black" stroke="black" points="494.5,-478.1 491,-468.1 487.5,-478.1 494.5,-478.1"/>
</g>
<!-- b7&#45;&gt;b8 -->
<g id="edge33" class="edge">
<title>b7&#45;&gt;b8</title>
<path fill="none" stroke="black" d="M491,-431.7C491,-423.98 491,-414.71 491,-406.11"/>
<polygon fill="black" stroke="black" points="494.5,-406.1 491,-396.1 487.5,-406.1 494.5,-406.1"/>
</g>
<!-- b9 -->
<g id="node28" class="node">
<title>b9</title>
<ellipse fill="none" stroke="black" cx="465" cy="-306" rx="27" ry="18"/>
<text text-anchor="middle" x="465" y="-302.3" font-family="Times,serif" font-size="14.00">b9</text>
</g>
<!-- b8&#45;&gt;b9 -->
<g id="edge34" class="edge">
<title>b8&#45;&gt;b9</title>
<path fill="none" stroke="black" d="M484.84,-360.41C481.84,-352.34 478.16,-342.43 474.79,-333.35"/>
<polygon fill="black" stroke="black" points="478.06,-332.11 471.3,-323.96 471.5,-334.55 478.06,-332.11"/>
</g>
<!-- b9&#45;&gt;a17 -->
<g id="edge37" class="edge">
<title>b9&#45;&gt;a17</title>
<path fill="none" stroke="black" d="M443.65,-294.97C418.49,-283.15 376.46,-263.4 347.54,-249.82"/>
<polygon fill="black" stroke="black" points="348.82,-246.55 338.28,-245.47 345.84,-252.89 348.82,-246.55"/>
</g>
<!-- b9&#45;&gt;b1 -->
<g id="edge35" class="edge">
<title>b9&#45;&gt;b1</title>
<path fill="none" stroke="black" d="M450.5,-290.5C440.73,-280.73 427.69,-267.69 416.7,-256.7"/>
<polygon fill="black" stroke="black" points="419.03,-254.08 409.49,-249.49 414.08,-259.03 419.03,-254.08"/>
</g>
<!-- b10 -->
<g id="node29" class="node">
<title>b10</title>
<ellipse fill="none" stroke="black" cx="469" cy="-234" rx="28.7" ry="18"/>
<text text-anchor="middle" x="469" y="-230.3" font-family="Times,serif" font-size="14.00">b10</text>
</g>
<!-- b9&#45;&gt;b10 -->
<g id="edge38" class="edge">
<title>b9&#45;&gt;b10</title>
<path fill="none" stroke="black" d="M465.99,-287.7C466.43,-279.98 466.96,-270.71 467.45,-262.11"/>
<polygon fill="black" stroke="black" points="470.95,-262.29 468.02,-252.1 463.96,-261.89 470.95,-262.29"/>
</g>
<!-- c1&#45;&gt;c2 -->
<g id="edge43" class="edge">
<title>c1&#45;&gt;c2</title>
<path fill="none" stroke="black" d="M95.44,-649.12C101.2,-640.34 108.48,-629.26 114.96,-619.42"/>
<polygon fill="black" stroke="black" points="118.04,-621.1 120.6,-610.82 112.19,-617.26 118.04,-621.1"/>
</g>
<!-- c6 -->
<g id="node35" class="node">
<title>c6</title>
<ellipse fill="none" stroke="black" cx="49" cy="-306" rx="27" ry="18"/>
<text text-anchor="middle" x="49" y="-302.3" font-family="Times,serif" font-size="14.00">c6</text>
</g>
<!-- c1&#45;&gt;c6 -->
<g id="edge47" class="edge">
<title>c1&#45;&gt;c6</title>
<path fill="none" stroke="black" d="M69.41,-650.94C44.87,-627.19 0,-576.44 0,-523 0,-523 0,-523 0,-449 0,-406.08 20.26,-359.65 34.72,-331.97"/>
<polygon fill="black" stroke="black" points="37.89,-333.46 39.55,-322.99 31.73,-330.14 37.89,-333.46"/>
</g>
<!-- c3 -->
<g id="node32" class="node">
<title>c3</title>
<ellipse fill="none" stroke="black" cx="131" cy="-522" rx="27" ry="18"/>
<text text-anchor="middle" x="131" y="-518.3" font-family="Times,serif" font-size="14.00">c3</text>
</g>
<!-- c2&#45;&gt;c3 -->
<g id="edge44" class="edge">
<title>c2&#45;&gt;c3</title>
<path fill="none" stroke="black" d="M131,-575.7C131,-567.98 131,-558.71 131,-550.11"/>
<polygon fill="black" stroke="black" points="134.5,-550.1 131,-540.1 127.5,-550.1 134.5,-550.1"/>
</g>
<!-- c4 -->
<g id="node33" class="node">
<title>c4</title>
<ellipse fill="none" stroke="black" cx="131" cy="-450" rx="27" ry="18"/>
<text text-anchor="middle" x="131" y="-446.3" font-family="Times,serif" font-size="14.00">c4</text>
</g>
<!-- c3&#45;&gt;c4 -->
<g id="edge45" class="edge">
<title>c3&#45;&gt;c4</title>
<path fill="none" stroke="black" d="M131,-503.7C131,-495.98 131,-486.71 131,-478.11"/>
<polygon fill="black" stroke="black" points="134.5,-478.1 131,-468.1 127.5,-478.1 134.5,-478.1"/>
</g>
<!-- c5 -->
<g id="node34" class="node">
<title>c5</title>
<ellipse fill="none" stroke="black" cx="76" cy="-378" rx="27" ry="18"/>
<text text-anchor="middle" x="76" y="-374.3" font-family="Times,serif" font-size="14.00">c5</text>
</g>
<!-- c4&#45;&gt;c5 -->
<g id="edge48" class="edge">
<title>c4&#45;&gt;c5</title>
<path fill="none" stroke="black" d="M119.07,-433.81C111.79,-424.55 102.34,-412.52 94.15,-402.09"/>
<polygon fill="black" stroke="black" points="96.84,-399.86 87.91,-394.16 91.34,-404.18 96.84,-399.86"/>
</g>
<!-- c5&#45;&gt;c1 -->
<g id="edge51" class="edge">
<title>c5&#45;&gt;c1</title>
<path fill="none" stroke="black" d="M74.38,-396.17C73.48,-406.53 72.45,-420.01 72,-432 69.19,-506.46 77.13,-594.19 81.82,-637.69"/>
<polygon fill="black" stroke="black" points="78.36,-638.21 82.94,-647.76 85.31,-637.44 78.36,-638.21"/>
</g>
<!-- c5&#45;&gt;c2 -->
<g id="edge50" class="edge">
<title>c5&#45;&gt;c2</title>
<path fill="none" stroke="black" d="M75.4,-396.07C74.91,-426.16 76.41,-490.16 95,-540 98.91,-550.47 105.3,-560.89 111.61,-569.68"/>
<polygon fill="black" stroke="black" points="108.99,-572.02 117.81,-577.88 114.57,-567.79 108.99,-572.02"/>
</g>
<!-- c5&#45;&gt;c6 -->
<g id="edge46" class="edge">
<title>c5&#45;&gt;c6</title>
<path fill="none" stroke="black" d="M69.6,-360.41C66.49,-352.34 62.67,-342.43 59.17,-333.35"/>
<polygon fill="black" stroke="black" points="62.4,-332.03 55.54,-323.96 55.87,-334.55 62.4,-332.03"/>
</g>
<!-- c7 -->
<g id="node36" class="node">
<title>c7</title>
<ellipse fill="none" stroke="black" cx="104" cy="-234" rx="27" ry="18"/>
<text text-anchor="middle" x="104" y="-230.3" font-family="Times,serif" font-size="14.00">c7</text>
</g>
<!-- c5&#45;&gt;c7 -->
<g id="edge49" class="edge">
<title>c5&#45;&gt;c7</title>
<path fill="none" stroke="black" d="M79.38,-359.87C84.17,-335.56 92.99,-290.82 98.67,-262.01"/>
<polygon fill="black" stroke="black" points="102.11,-262.68 100.61,-252.19 95.24,-261.32 102.11,-262.68"/>
</g>
<!-- c6&#45;&gt;c7 -->
<g id="edge52" class="edge">
<title>c6&#45;&gt;c7</title>
<path fill="none" stroke="black" d="M60.93,-289.81C68.21,-280.55 77.66,-268.52 85.85,-258.09"/>
<polygon fill="black" stroke="black" points="88.66,-260.18 92.09,-250.16 83.16,-255.86 88.66,-260.18"/>
</g>
<!-- c8 -->
<g id="node37" class="node">
<title>c8</title>
<ellipse fill="none" stroke="black" cx="182" cy="-162" rx="27" ry="18"/>
<text text-anchor="middle" x="182" y="-158.3" font-family="Times,serif" font-size="14.00">c8</text>
</g>
<!-- c7&#45;&gt;c8 -->
<g id="edge53" class="edge">
<title>c7&#45;&gt;c8</title>
<path fill="none" stroke="black" d="M119.41,-219.17C130.73,-209.01 146.31,-195.03 159.09,-183.56"/>
<polygon fill="black" stroke="black" points="161.52,-186.09 166.62,-176.8 156.84,-180.88 161.52,-186.09"/>
</g>
<!-- c8&#45;&gt;a18 -->
<g id="edge55" class="edge">
<title>c8&#45;&gt;a18</title>
<path fill="none" stroke="black" d="M196,-146.15C205.01,-136.6 216.89,-123.99 227.02,-113.25"/>
<polygon fill="black" stroke="black" points="229.71,-115.5 234.02,-105.82 224.62,-110.7 229.71,-115.5"/>
</g>
<!-- c8&#45;&gt;c2 -->
<g id="edge54" class="edge">
<title>c8&#45;&gt;c2</title>
<path fill="none" stroke="black" d="M182.79,-180.04C183.96,-206.7 186,-259.87 186,-305 186,-451 186,-451 186,-451 186,-491.45 182.88,-502.8 167,-540 162.61,-550.28 156.12,-560.66 149.85,-569.47"/>
<polygon fill="black" stroke="black" points="146.89,-567.59 143.75,-577.7 152.52,-571.76 146.89,-567.59"/>
</g>
<!-- c9 -->
<g id="node38" class="node">
<title>c9</title>
<ellipse fill="none" stroke="black" cx="175" cy="-90" rx="27" ry="18"/>
<text text-anchor="middle" x="175" y="-86.3" font-family="Times,serif" font-size="14.00">c9</text>
</g>
<!-- c8&#45;&gt;c9 -->
<g id="edge56" class="edge">
<title>c8&#45;&gt;c9</title>
<path fill="none" stroke="black" d="M180.27,-143.7C179.5,-135.98 178.57,-126.71 177.71,-118.11"/>
<polygon fill="black" stroke="black" points="181.19,-117.71 176.71,-108.1 174.22,-118.4 181.19,-117.71"/>
</g>
</g>
</svg>
