<?xml version="1.0" encoding="UTF-8" standalone="no"?>
<!DOCTYPE svg PUBLIC "-//W3C//DTD SVG 1.1//EN"
 "http://www.w3.org/Graphics/SVG/1.1/DTD/svg11.dtd">
<!-- Generated by graphviz version 2.43.0 (0)
 -->
<!-- Title: cluster Pages: 1 -->
<svg width="1767pt" height="1234pt"
 viewBox="0.00 0.00 1766.75 1234.00" xmlns="http://www.w3.org/2000/svg" xmlns:xlink="http://www.w3.org/1999/xlink">
<g id="graph0" class="graph" transform="scale(1 1) rotate(0) translate(4 1230)">
<title>cluster</title>
<polygon fill="white" stroke="transparent" points="-4,4 -4,-1230 1762.75,-1230 1762.75,4 -4,4"/>
<g id="clust1" class="cluster">
<title>cluster_0xc00006f980</title>
<polygon fill="none" stroke="#ffffff" stroke-width="10" points="8,-8 8,-1218 1750.75,-1218 1750.75,-8 8,-8"/>
<text text-anchor="middle" x="879.38" y="-1182" font-family="Times,serif" font-size="40.00">main</text>
</g>
<g id="clust2" class="cluster">
<title>cluster_0xc00016e180</title>
<polygon fill="none" stroke="#09f425" stroke-width="10" points="377.6,-588 377.6,-772 1094.33,-772 1094.33,-588 377.6,-588"/>
<text text-anchor="middle" x="735.96" y="-736" font-family="Times,serif" font-size="40.00">sub4</text>
</g>
<g id="clust3" class="cluster">
<title>cluster_0xc00016f8f0</title>
<polygon fill="none" stroke="#8c1610" stroke-width="10" points="16,-16 16,-214 823.38,-214 823.38,-16 16,-16"/>
<text text-anchor="middle" x="419.69" y="-178" font-family="Times,serif" font-size="40.00">sub3</text>
</g>
<g id="clust4" class="cluster">
<title>cluster_0xc000227e00</title>
<polygon fill="none" stroke="#5fc2dc" stroke-width="10" points="1015.38,-780 1015.38,-1158 1742.75,-1158 1742.75,-780 1015.38,-780"/>
<text text-anchor="middle" x="1379.07" y="-1122" font-family="Times,serif" font-size="40.00">sub2</text>
</g>
<g id="clust5" class="cluster">
<title>cluster_0xc0003d4c90</title>
<polygon fill="none" stroke="#5fc2dc" stroke-width="10" points="1023.38,-900 1023.38,-1098 1734.75,-1098 1734.75,-900 1023.38,-900"/>
<text text-anchor="middle" x="1379.07" y="-1062" font-family="Times,serif" font-size="40.00">sub2</text>
</g>
<g id="clust6" class="cluster">
<title>cluster_0xc00006fa10</title>
<polygon fill="none" stroke="#5fc2dc" stroke-width="10" points="1023.38,-788 1023.38,-892 1187.17,-892 1187.17,-788 1023.38,-788"/>
<text text-anchor="middle" x="1105.28" y="-856" font-family="Times,serif" font-size="40.00">sub2</text>
</g>
<g id="clust7" class="cluster">
<title>cluster_0xc00006fe90</title>
<polygon fill="none" stroke="#5fc2dc" stroke-width="10" points="368.65,-222 368.65,-580 741.38,-580 741.38,-222 368.65,-222"/>
<text text-anchor="middle" x="555.02" y="-544" font-family="Times,serif" font-size="40.00">sub2</text>
</g>
<g id="clust8" class="cluster">
<title>cluster_0xc000134690</title>
<polygon fill="none" stroke="#5fc2dc" stroke-width="10" points="377.6,-342 377.6,-520 733.38,-520 733.38,-342 377.6,-342"/>
<text text-anchor="middle" x="555.49" y="-484" font-family="Times,serif" font-size="40.00">sub2</text>
</g>
<g id="clust9" class="cluster">
<title>cluster_0xc000134b40</title>
<polygon fill="none" stroke="#5fc2dc" stroke-width="10" points="376.65,-230 376.65,-334 643.38,-334 643.38,-230 376.65,-230"/>
<text text-anchor="middle" x="510.02" y="-298" font-family="Times,serif" font-size="40.00">sub2</text>
</g>
<!-- a14 -->
<g id="node1" class="node">
<title>a14</title>
<ellipse fill="none" stroke="black" cx="1059.33" cy="-936" rx="27.9" ry="18"/>
<text text-anchor="middle" x="1059.33" y="-932.3" font-family="Times,serif" font-size="14.00">a14</text>
</g>
<!-- a15 -->
<g id="node28" class="node">
<title>a15</title>
<ellipse fill="none" stroke="black" cx="1151.23" cy="-973" rx="27.9" ry="18"/>
<text text-anchor="middle" x="1151.23" y="-969.3" font-family="Times,serif" font-size="14.00">a15</text>
</g>
<!-- a14&#45;&gt;a15 -->
<g id="edge46" class="edge">
<title>a14&#45;&gt;a15</title>
<path fill="none" stroke="black" d="M1086.82,-940.69C1098.15,-944.66 1111.37,-950.08 1122.8,-955.44"/>
<polygon fill="black" stroke="black" points="1121.38,-958.64 1131.9,-959.89 1124.46,-952.35 1121.38,-958.64"/>
</g>
<!-- a14&#45;&gt;a15 -->
<g id="edge51" class="edge">
<title>a14&#45;&gt;a15</title>
<path fill="none" stroke="black" d="M1078.96,-949.26C1089.27,-954.53 1102.42,-960.29 1114.62,-964.96"/>
<polygon fill="black" stroke="black" points="1113.53,-968.29 1124.13,-968.45 1115.94,-961.72 1113.53,-968.29"/>
</g>
<!-- a17 -->
<g id="node2" class="node">
<title>a17</title>
<ellipse fill="none" stroke="black" cx="412.6" cy="-256" rx="27.9" ry="18"/>
<text text-anchor="middle" x="412.6" y="-252.3" font-family="Times,serif" font-size="14.00">a17</text>
</g>
<!-- a16 -->
<g id="node16" class="node">
<title>a16</title>
<ellipse fill="none" stroke="black" cx="510.34" cy="-256" rx="27.9" ry="18"/>
<text text-anchor="middle" x="510.34" y="-252.3" font-family="Times,serif" font-size="14.00">a16</text>
</g>
<!-- a17&#45;&gt;a16 -->
<g id="edge61" class="edge">
<title>a17&#45;&gt;a16</title>
<path fill="none" stroke="black" d="M439,-249.96C449.61,-249.24 462.11,-249.07 473.62,-249.45"/>
<polygon fill="black" stroke="black" points="473.66,-252.95 483.82,-249.95 474,-245.96 473.66,-252.95"/>
</g>
<!-- a17&#45;&gt;a16 -->
<g id="edge71" class="edge">
<title>a17&#45;&gt;a16</title>
<path fill="none" stroke="black" d="M439,-262.04C449.61,-262.76 462.11,-262.93 473.62,-262.55"/>
<polygon fill="black" stroke="black" points="474,-266.04 483.82,-262.05 473.66,-259.05 474,-266.04"/>
</g>
<!-- a18 -->
<g id="node3" class="node">
<title>a18</title>
<ellipse fill="none" stroke="black" cx="1059.33" cy="-814" rx="27.9" ry="18"/>
<text text-anchor="middle" x="1059.33" y="-810.3" font-family="Times,serif" font-size="14.00">a18</text>
</g>
<!-- end -->
<g id="node26" class="node">
<title>end</title>
<ellipse fill="none" stroke="black" cx="1151.23" cy="-814" rx="27.9" ry="18"/>
<text text-anchor="middle" x="1151.23" y="-810.3" font-family="Times,serif" font-size="14.00">end</text>
</g>
<!-- a18&#45;&gt;end -->
<g id="edge4" class="edge">
<title>a18&#45;&gt;end</title>
<path fill="none" stroke="green" stroke-width="5" d="M1081.18,-802.4C1092.53,-800.42 1106.78,-799.99 1119.39,-801.11"/>
<polygon fill="green" stroke="green" stroke-width="5" points="1119.01,-805.47 1129.49,-802.42 1120.14,-796.79 1119.01,-805.47"/>
</g>
<!-- a18&#45;&gt;end -->
<g id="edge39" class="edge">
<title>a18&#45;&gt;end</title>
<path fill="none" stroke="black" d="M1087.3,-814C1095.39,-814 1104.41,-814 1113.04,-814"/>
<polygon fill="black" stroke="black" points="1113.27,-817.5 1123.27,-814 1113.27,-810.5 1113.27,-817.5"/>
</g>
<!-- a18&#45;&gt;end -->
<g id="edge58" class="edge">
<title>a18&#45;&gt;end</title>
<path fill="none" stroke="black" d="M1081.18,-825.6C1092.53,-827.58 1106.78,-828.01 1119.39,-826.89"/>
<polygon fill="black" stroke="black" points="1120.02,-830.34 1129.49,-825.58 1119.12,-823.4 1120.02,-830.34"/>
</g>
<!-- c3 -->
<g id="node4" class="node">
<title>c3</title>
<ellipse fill="none" stroke="black" cx="412.6" cy="-624" rx="27" ry="18"/>
<text text-anchor="middle" x="412.6" y="-620.3" font-family="Times,serif" font-size="14.00">c3</text>
</g>
<!-- c4 -->
<g id="node8" class="node">
<title>c4</title>
<ellipse fill="none" stroke="black" cx="510.34" cy="-661" rx="27" ry="18"/>
<text text-anchor="middle" x="510.34" y="-657.3" font-family="Times,serif" font-size="14.00">c4</text>
</g>
<!-- c3&#45;&gt;c4 -->
<g id="edge10" class="edge">
<title>c3&#45;&gt;c4</title>
<path fill="none" stroke="black" d="M436.29,-632.77C448.48,-637.48 463.72,-643.37 477.12,-648.55"/>
<polygon fill="black" stroke="black" points="475.89,-651.83 486.48,-652.17 478.42,-645.3 475.89,-651.83"/>
</g>
<!-- a2 -->
<g id="node5" class="node">
<title>a2</title>
<ellipse fill="none" stroke="black" cx="607.44" cy="-634" rx="27" ry="18"/>
<text text-anchor="middle" x="607.44" y="-630.3" font-family="Times,serif" font-size="14.00">a2</text>
</g>
<!-- c1 -->
<g id="node24" class="node">
<title>c1</title>
<ellipse fill="none" stroke="black" cx="698.38" cy="-634" rx="27" ry="18"/>
<text text-anchor="middle" x="698.38" y="-630.3" font-family="Times,serif" font-size="14.00">c1</text>
</g>
<!-- a2&#45;&gt;c1 -->
<g id="edge5" class="edge">
<title>a2&#45;&gt;c1</title>
<path fill="none" stroke="green" stroke-width="5" d="M633.21,-627.88C642.27,-627.26 652.7,-627.1 662.48,-627.39"/>
<polygon fill="green" stroke="green" stroke-width="5" points="662.54,-631.77 672.74,-627.89 662.96,-623.03 662.54,-631.77"/>
</g>
<!-- a2&#45;&gt;c1 -->
<g id="edge23" class="edge">
<title>a2&#45;&gt;c1</title>
<path fill="none" stroke="black" d="M633.21,-640.12C642.27,-640.74 652.7,-640.9 662.48,-640.61"/>
<polygon fill="black" stroke="black" points="662.92,-644.09 672.74,-640.11 662.58,-637.1 662.92,-644.09"/>
</g>
<!-- a11 -->
<g id="node6" class="node">
<title>a11</title>
<ellipse fill="none" stroke="black" cx="1606.91" cy="-985" rx="27.9" ry="18"/>
<text text-anchor="middle" x="1606.91" y="-981.3" font-family="Times,serif" font-size="14.00">a11</text>
</g>
<!-- a12 -->
<g id="node19" class="node">
<title>a12</title>
<ellipse fill="none" stroke="black" cx="1698.81" cy="-1008" rx="27.9" ry="18"/>
<text text-anchor="middle" x="1698.81" y="-1004.3" font-family="Times,serif" font-size="14.00">a12</text>
</g>
<!-- a11&#45;&gt;a12 -->
<g id="edge41" class="edge">
<title>a11&#45;&gt;a12</title>
<path fill="none" stroke="black" d="M1634.88,-985.66C1645.07,-987.66 1656.74,-990.58 1667.24,-993.74"/>
<polygon fill="black" stroke="black" points="1666.26,-997.11 1676.85,-996.83 1668.4,-990.44 1666.26,-997.11"/>
</g>
<!-- a11&#45;&gt;a12 -->
<g id="edge54" class="edge">
<title>a11&#45;&gt;a12</title>
<path fill="none" stroke="black" d="M1629.22,-996.29C1638.66,-999.51 1650.05,-1002.69 1660.81,-1005.19"/>
<polygon fill="black" stroke="black" points="1660.34,-1008.67 1670.85,-1007.35 1661.81,-1001.82 1660.34,-1008.67"/>
</g>
<!-- b4 -->
<g id="node7" class="node">
<title>b4</title>
<ellipse fill="none" stroke="black" cx="51" cy="-45" rx="27" ry="18"/>
<text text-anchor="middle" x="51" y="-41.3" font-family="Times,serif" font-size="14.00">b4</text>
</g>
<!-- b3 -->
<g id="node17" class="node">
<title>b3</title>
<ellipse fill="none" stroke="black" cx="141" cy="-82" rx="27" ry="18"/>
<text text-anchor="middle" x="141" y="-78.3" font-family="Times,serif" font-size="14.00">b3</text>
</g>
<!-- b4&#45;&gt;b3 -->
<g id="edge34" class="edge">
<title>b4&#45;&gt;b3</title>
<path fill="none" stroke="black" d="M74.21,-54.34C84.52,-58.67 96.98,-63.91 108.27,-68.66"/>
<polygon fill="black" stroke="black" points="107.23,-72.02 117.8,-72.67 109.94,-65.56 107.23,-72.02"/>
</g>
<!-- c5 -->
<g id="node33" class="node">
<title>c5</title>
<ellipse fill="none" stroke="black" cx="607.44" cy="-688" rx="27" ry="18"/>
<text text-anchor="middle" x="607.44" y="-684.3" font-family="Times,serif" font-size="14.00">c5</text>
</g>
<!-- c4&#45;&gt;c5 -->
<g id="edge11" class="edge">
<title>c4&#45;&gt;c5</title>
<path fill="none" stroke="black" d="M535.34,-667.81C546.51,-670.99 560.01,-674.82 572.23,-678.29"/>
<polygon fill="black" stroke="black" points="571.54,-681.73 582.12,-681.1 573.45,-675 571.54,-681.73"/>
</g>
<!-- c8 -->
<g id="node9" class="node">
<title>c8</title>
<ellipse fill="none" stroke="black" cx="968.38" cy="-692" rx="27" ry="18"/>
<text text-anchor="middle" x="968.38" y="-688.3" font-family="Times,serif" font-size="14.00">c8</text>
</g>
<!-- c8&#45;&gt;a18 -->
<g id="edge8" class="edge">
<title>c8&#45;&gt;a18</title>
<path fill="none" stroke="green" stroke-width="5" d="M976.64,-709.14C984.62,-726.9 998.58,-754.95 1015.38,-776 1020.34,-782.2 1026.37,-788.23 1032.34,-793.59"/>
<polygon fill="green" stroke="green" stroke-width="5" points="1029.87,-797.24 1040.31,-800.43 1035.57,-790.6 1029.87,-797.24"/>
</g>
<!-- c9 -->
<g id="node10" class="node">
<title>c9</title>
<ellipse fill="none" stroke="black" cx="1059.33" cy="-692" rx="27" ry="18"/>
<text text-anchor="middle" x="1059.33" y="-688.3" font-family="Times,serif" font-size="14.00">c9</text>
</g>
<!-- c8&#45;&gt;c9 -->
<g id="edge21" class="edge">
<title>c8&#45;&gt;c9</title>
<path fill="none" stroke="black" d="M995.59,-692C1003.91,-692 1013.27,-692 1022.17,-692"/>
<polygon fill="black" stroke="black" points="1022.31,-695.5 1032.31,-692 1022.31,-688.5 1022.31,-695.5"/>
</g>
<!-- c2 -->
<g id="node39" class="node">
<title>c2</title>
<ellipse fill="none" stroke="black" cx="1059.33" cy="-637" rx="27" ry="18"/>
<text text-anchor="middle" x="1059.33" y="-633.3" font-family="Times,serif" font-size="14.00">c2</text>
</g>
<!-- c8&#45;&gt;c2 -->
<g id="edge22" class="edge">
<title>c8&#45;&gt;c2</title>
<path fill="none" stroke="black" d="M988.68,-680.07C1000.92,-672.5 1016.95,-662.59 1030.55,-654.18"/>
<polygon fill="black" stroke="black" points="1032.4,-657.15 1039.07,-648.91 1028.72,-651.19 1032.4,-657.15"/>
</g>
<!-- a5 -->
<g id="node11" class="node">
<title>a5</title>
<ellipse fill="none" stroke="black" cx="412.6" cy="-405" rx="27" ry="18"/>
<text text-anchor="middle" x="412.6" y="-401.3" font-family="Times,serif" font-size="14.00">a5</text>
</g>
<!-- a6 -->
<g id="node12" class="node">
<title>a6</title>
<ellipse fill="none" stroke="black" cx="510.34" cy="-368" rx="27" ry="18"/>
<text text-anchor="middle" x="510.34" y="-364.3" font-family="Times,serif" font-size="14.00">a6</text>
</g>
<!-- a5&#45;&gt;a6 -->
<g id="edge65" class="edge">
<title>a5&#45;&gt;a6</title>
<path fill="none" stroke="black" d="M432.06,-392.41C443.98,-386.59 459.87,-380.09 474.15,-375.07"/>
<polygon fill="black" stroke="black" points="475.34,-378.36 483.7,-371.85 473.11,-371.72 475.34,-378.36"/>
</g>
<!-- a5&#45;&gt;a6 -->
<g id="edge66" class="edge">
<title>a5&#45;&gt;a6</title>
<path fill="none" stroke="black" d="M439,-401.22C452.11,-397.05 468.12,-390.91 481.56,-384.93"/>
<polygon fill="black" stroke="black" points="483.21,-388.02 490.8,-380.63 480.26,-381.67 483.21,-388.02"/>
</g>
<!-- a3 -->
<g id="node21" class="node">
<title>a3</title>
<ellipse fill="none" stroke="black" cx="607.44" cy="-422" rx="27" ry="18"/>
<text text-anchor="middle" x="607.44" y="-418.3" font-family="Times,serif" font-size="14.00">a3</text>
</g>
<!-- a6&#45;&gt;a3 -->
<g id="edge64" class="edge">
<title>a6&#45;&gt;a3</title>
<path fill="none" stroke="black" d="M535.34,-375.67C549.65,-382.74 567.76,-393.02 582.12,-402.22"/>
<polygon fill="black" stroke="black" points="580.24,-405.17 590.51,-407.77 584.1,-399.33 580.24,-405.17"/>
</g>
<!-- a6&#45;&gt;a3 -->
<g id="edge70" class="edge">
<title>a6&#45;&gt;a3</title>
<path fill="none" stroke="black" d="M527.47,-382.38C540.02,-390.97 557.86,-401.51 573.41,-409.71"/>
<polygon fill="black" stroke="black" points="572.22,-413.03 582.72,-414.46 575.41,-406.8 572.22,-413.03"/>
</g>
<!-- b6 -->
<g id="node37" class="node">
<title>b6</title>
<ellipse fill="none" stroke="black" cx="698.38" cy="-82" rx="27" ry="18"/>
<text text-anchor="middle" x="698.38" y="-78.3" font-family="Times,serif" font-size="14.00">b6</text>
</g>
<!-- a6&#45;&gt;b6 -->
<g id="edge3" class="edge">
<title>a6&#45;&gt;b6</title>
<path fill="none" stroke="green" stroke-width="5" d="M528.72,-354.74C534.06,-349.95 539.56,-344.19 543.49,-338 571.5,-293.85 554.49,-271.92 579.49,-226 605.64,-177.96 648.76,-130.49 674.97,-103.84"/>
<polygon fill="green" stroke="green" stroke-width="5" points="678.25,-106.75 682.21,-96.57 672.05,-100.57 678.25,-106.75"/>
</g>
<!-- a7 -->
<g id="node13" class="node">
<title>a7</title>
<ellipse fill="none" stroke="black" cx="1515.96" cy="-973" rx="27" ry="18"/>
<text text-anchor="middle" x="1515.96" y="-969.3" font-family="Times,serif" font-size="14.00">a7</text>
</g>
<!-- a7&#45;&gt;a14 -->
<g id="edge42" class="edge">
<title>a7&#45;&gt;a14</title>
<path fill="none" stroke="black" d="M1499.82,-958.47C1469.79,-936.75 1400.03,-900 1336.02,-900 1242.12,-900 1242.12,-900 1242.12,-900 1188.83,-900 1127.7,-911.49 1091.64,-921.98"/>
<polygon fill="black" stroke="black" points="1090.25,-918.75 1081.73,-925.04 1092.31,-925.44 1090.25,-918.75"/>
</g>
<!-- a7&#45;&gt;a14 -->
<g id="edge52" class="edge">
<title>a7&#45;&gt;a14</title>
<path fill="none" stroke="black" d="M1491.61,-964.77C1458.32,-948.94 1394.75,-918 1336.02,-918 1242.12,-918 1242.12,-918 1242.12,-918 1191.74,-918 1134.34,-928.27 1097.75,-934.03"/>
<polygon fill="black" stroke="black" points="1096.91,-930.62 1087.55,-935.59 1097.97,-937.54 1096.91,-930.62"/>
</g>
<!-- a7&#45;&gt;a11 -->
<g id="edge43" class="edge">
<title>a7&#45;&gt;a11</title>
<path fill="none" stroke="black" d="M1542.69,-970.28C1552.06,-970.95 1562.79,-972.28 1572.71,-973.97"/>
<polygon fill="black" stroke="black" points="1572.19,-977.43 1582.67,-975.85 1573.5,-970.55 1572.19,-977.43"/>
</g>
<!-- a7&#45;&gt;a11 -->
<g id="edge53" class="edge">
<title>a7&#45;&gt;a11</title>
<path fill="none" stroke="black" d="M1539.41,-981.98C1548.35,-983.89 1558.87,-985.55 1568.88,-986.67"/>
<polygon fill="black" stroke="black" points="1568.75,-990.17 1579.04,-987.63 1569.41,-983.2 1568.75,-990.17"/>
</g>
<!-- a8 -->
<g id="node14" class="node">
<title>a8</title>
<ellipse fill="none" stroke="black" cx="1425.96" cy="-973" rx="27" ry="18"/>
<text text-anchor="middle" x="1425.96" y="-969.3" font-family="Times,serif" font-size="14.00">a8</text>
</g>
<!-- a8&#45;&gt;a7 -->
<g id="edge44" class="edge">
<title>a8&#45;&gt;a7</title>
<path fill="none" stroke="black" d="M1451.48,-966.88C1460.37,-966.27 1470.58,-966.1 1480.19,-966.38"/>
<polygon fill="black" stroke="black" points="1480.12,-969.88 1490.28,-966.86 1480.46,-962.89 1480.12,-969.88"/>
</g>
<!-- a8&#45;&gt;a7 -->
<g id="edge48" class="edge">
<title>a8&#45;&gt;a7</title>
<path fill="none" stroke="black" d="M1451.48,-979.12C1460.37,-979.73 1470.58,-979.9 1480.19,-979.62"/>
<polygon fill="black" stroke="black" points="1480.46,-983.11 1490.28,-979.14 1480.12,-976.12 1480.46,-983.11"/>
</g>
<!-- a10 -->
<g id="node15" class="node">
<title>a10</title>
<ellipse fill="none" stroke="black" cx="1335.02" cy="-1000" rx="27.9" ry="18"/>
<text text-anchor="middle" x="1335.02" y="-996.3" font-family="Times,serif" font-size="14.00">a10</text>
</g>
<!-- a10&#45;&gt;a8 -->
<g id="edge47" class="edge">
<title>a10&#45;&gt;a8</title>
<path fill="none" stroke="black" d="M1356.2,-988.11C1365.85,-984.31 1377.71,-980.41 1388.84,-977.32"/>
<polygon fill="black" stroke="black" points="1389.98,-980.64 1398.78,-974.73 1388.22,-973.87 1389.98,-980.64"/>
</g>
<!-- a10&#45;&gt;a8 -->
<g id="edge55" class="edge">
<title>a10&#45;&gt;a8</title>
<path fill="none" stroke="black" d="M1363.19,-998.03C1373.49,-995.5 1385.25,-991.96 1395.73,-988.26"/>
<polygon fill="black" stroke="black" points="1397.15,-991.46 1405.3,-984.68 1394.7,-984.91 1397.15,-991.46"/>
</g>
<!-- a19 -->
<g id="node29" class="node">
<title>a19</title>
<ellipse fill="none" stroke="black" cx="607.44" cy="-256" rx="27.9" ry="18"/>
<text text-anchor="middle" x="607.44" y="-252.3" font-family="Times,serif" font-size="14.00">a19</text>
</g>
<!-- a16&#45;&gt;a19 -->
<g id="edge62" class="edge">
<title>a16&#45;&gt;a19</title>
<path fill="none" stroke="black" d="M536.83,-249.94C547.27,-249.24 559.54,-249.07 570.85,-249.44"/>
<polygon fill="black" stroke="black" points="570.72,-252.94 580.88,-249.94 571.07,-245.95 570.72,-252.94"/>
</g>
<!-- a16&#45;&gt;a19 -->
<g id="edge72" class="edge">
<title>a16&#45;&gt;a19</title>
<path fill="none" stroke="black" d="M536.83,-262.06C547.27,-262.76 559.54,-262.93 570.85,-262.56"/>
<polygon fill="black" stroke="black" points="571.07,-266.05 580.88,-262.06 570.72,-259.06 571.07,-266.05"/>
</g>
<!-- b8 -->
<g id="node38" class="node">
<title>b8</title>
<ellipse fill="none" stroke="black" cx="231" cy="-102" rx="27" ry="18"/>
<text text-anchor="middle" x="231" y="-98.3" font-family="Times,serif" font-size="14.00">b8</text>
</g>
<!-- b3&#45;&gt;b8 -->
<g id="edge36" class="edge">
<title>b3&#45;&gt;b8</title>
<path fill="none" stroke="black" d="M166.98,-87.68C175.79,-89.68 185.85,-91.97 195.32,-94.12"/>
<polygon fill="black" stroke="black" points="194.73,-97.57 205.26,-96.38 196.28,-90.75 194.73,-97.57"/>
</g>
<!-- a9 -->
<g id="node18" class="node">
<title>a9</title>
<ellipse fill="none" stroke="black" cx="1335.02" cy="-946" rx="27" ry="18"/>
<text text-anchor="middle" x="1335.02" y="-942.3" font-family="Times,serif" font-size="14.00">a9</text>
</g>
<!-- a9&#45;&gt;a8 -->
<g id="edge45" class="edge">
<title>a9&#45;&gt;a8</title>
<path fill="none" stroke="black" d="M1362.22,-947.74C1372.74,-950.28 1384.9,-953.92 1395.7,-957.73"/>
<polygon fill="black" stroke="black" points="1394.56,-961.04 1405.15,-961.26 1397.01,-954.48 1394.56,-961.04"/>
</g>
<!-- a9&#45;&gt;a8 -->
<g id="edge49" class="edge">
<title>a9&#45;&gt;a8</title>
<path fill="none" stroke="black" d="M1355.76,-957.71C1365.57,-961.61 1377.75,-965.61 1389.14,-968.76"/>
<polygon fill="black" stroke="black" points="1388.3,-972.16 1398.86,-971.29 1390.06,-965.38 1388.3,-972.16"/>
</g>
<!-- a9&#45;&gt;c2 -->
<g id="edge2" class="edge">
<title>a9&#45;&gt;c2</title>
<path fill="none" stroke="green" stroke-width="5" d="M1321.93,-929.93C1288.23,-885.56 1189.45,-758.49 1094.33,-665 1091.61,-662.32 1088.65,-659.63 1085.66,-657.02"/>
<polygon fill="green" stroke="green" stroke-width="5" points="1088.26,-653.48 1077.79,-650.39 1082.62,-660.18 1088.26,-653.48"/>
</g>
<!-- a13 -->
<g id="node27" class="node">
<title>a13</title>
<ellipse fill="none" stroke="black" cx="1243.12" cy="-1000" rx="27.9" ry="18"/>
<text text-anchor="middle" x="1243.12" y="-996.3" font-family="Times,serif" font-size="14.00">a13</text>
</g>
<!-- a12&#45;&gt;a13 -->
<g id="edge40" class="edge">
<title>a12&#45;&gt;a13</title>
<path fill="none" stroke="black" d="M1670.76,-1008.9C1635.59,-1014.68 1572.13,-1028 1516.96,-1028 1424.96,-1028 1424.96,-1028 1424.96,-1028 1372.38,-1028 1358.09,-1030.75 1307.07,-1018 1297.93,-1015.72 1288.43,-1012.26 1279.65,-1008.85"/>
<polygon fill="black" stroke="black" points="1280.7,-1005.5 1270.11,-1005.07 1278.12,-1012.01 1280.7,-1005.5"/>
</g>
<!-- a12&#45;&gt;a13 -->
<g id="edge50" class="edge">
<title>a12&#45;&gt;a13</title>
<path fill="none" stroke="black" d="M1676.82,-1019.25C1643.3,-1031.02 1575.47,-1046 1516.96,-1046 1424.96,-1046 1424.96,-1046 1424.96,-1046 1372.38,-1046 1358.09,-1048.75 1307.07,-1036 1293.41,-1032.59 1278.93,-1026.56 1267.3,-1020.17"/>
<polygon fill="black" stroke="black" points="1269.04,-1017.14 1258.66,-1015.02 1265.46,-1023.15 1269.04,-1017.14"/>
</g>
<!-- c7 -->
<g id="node20" class="node">
<title>c7</title>
<ellipse fill="none" stroke="black" cx="878.38" cy="-692" rx="27" ry="18"/>
<text text-anchor="middle" x="878.38" y="-688.3" font-family="Times,serif" font-size="14.00">c7</text>
</g>
<!-- c7&#45;&gt;c8 -->
<g id="edge16" class="edge">
<title>c7&#45;&gt;c8</title>
<path fill="none" stroke="black" d="M905.79,-692C913.78,-692 922.69,-692 931.21,-692"/>
<polygon fill="black" stroke="black" points="931.3,-695.5 941.3,-692 931.3,-688.5 931.3,-695.5"/>
</g>
<!-- a4 -->
<g id="node34" class="node">
<title>a4</title>
<ellipse fill="none" stroke="black" cx="698.38" cy="-432" rx="27" ry="18"/>
<text text-anchor="middle" x="698.38" y="-428.3" font-family="Times,serif" font-size="14.00">a4</text>
</g>
<!-- a3&#45;&gt;a4 -->
<g id="edge63" class="edge">
<title>a3&#45;&gt;a4</title>
<path fill="none" stroke="black" d="M634.16,-418.71C643.61,-419.17 654.43,-420.26 664.42,-421.75"/>
<polygon fill="black" stroke="black" points="664,-425.23 674.44,-423.43 665.16,-418.32 664,-425.23"/>
</g>
<!-- a3&#45;&gt;a4 -->
<g id="edge69" class="edge">
<title>a3&#45;&gt;a4</title>
<path fill="none" stroke="black" d="M631.34,-430.56C640.51,-432.3 651.29,-433.73 661.46,-434.6"/>
<polygon fill="black" stroke="black" points="661.52,-438.11 671.73,-435.3 661.99,-431.13 661.52,-438.11"/>
</g>
<!-- b1 -->
<g id="node35" class="node">
<title>b1</title>
<ellipse fill="none" stroke="black" cx="412.6" cy="-82" rx="27" ry="18"/>
<text text-anchor="middle" x="412.6" y="-78.3" font-family="Times,serif" font-size="14.00">b1</text>
</g>
<!-- a3&#45;&gt;b1 -->
<g id="edge9" class="edge">
<title>a3&#45;&gt;b1</title>
<path fill="none" stroke="green" stroke-width="5" d="M600.75,-404.29C585.3,-356.11 543.63,-226.25 543.49,-226 515.16,-175.9 466.76,-128.51 437.71,-102.54"/>
<polygon fill="green" stroke="green" stroke-width="5" points="440.46,-99.13 430.07,-95.8 434.67,-105.69 440.46,-99.13"/>
</g>
<!-- b2 -->
<g id="node22" class="node">
<title>b2</title>
<ellipse fill="none" stroke="black" cx="510.34" cy="-82" rx="27" ry="18"/>
<text text-anchor="middle" x="510.34" y="-78.3" font-family="Times,serif" font-size="14.00">b2</text>
</g>
<!-- b2&#45;&gt;b4 -->
<g id="edge28" class="edge">
<title>b2&#45;&gt;b4</title>
<path fill="none" stroke="black" d="M488.62,-71.28C454.72,-54.77 384.89,-25 322,-25 230,-25 230,-25 230,-25 180.19,-25 123.02,-32.83 87.2,-38.69"/>
<polygon fill="black" stroke="black" points="86.53,-35.26 77.25,-40.36 87.69,-42.16 86.53,-35.26"/>
</g>
<!-- b5 -->
<g id="node36" class="node">
<title>b5</title>
<ellipse fill="none" stroke="black" cx="607.44" cy="-82" rx="27" ry="18"/>
<text text-anchor="middle" x="607.44" y="-78.3" font-family="Times,serif" font-size="14.00">b5</text>
</g>
<!-- b2&#45;&gt;b5 -->
<g id="edge29" class="edge">
<title>b2&#45;&gt;b5</title>
<path fill="none" stroke="black" d="M537.58,-82C547.66,-82 559.35,-82 570.21,-82"/>
<polygon fill="black" stroke="black" points="570.29,-85.5 580.29,-82 570.29,-78.5 570.29,-85.5"/>
</g>
<!-- b10 -->
<g id="node23" class="node">
<title>b10</title>
<ellipse fill="none" stroke="black" cx="412.6" cy="-136" rx="28.7" ry="18"/>
<text text-anchor="middle" x="412.6" y="-132.3" font-family="Times,serif" font-size="14.00">b10</text>
</g>
<!-- c6 -->
<g id="node25" class="node">
<title>c6</title>
<ellipse fill="none" stroke="black" cx="788.38" cy="-674" rx="27" ry="18"/>
<text text-anchor="middle" x="788.38" y="-670.3" font-family="Times,serif" font-size="14.00">c6</text>
</g>
<!-- c1&#45;&gt;c6 -->
<g id="edge15" class="edge">
<title>c1&#45;&gt;c6</title>
<path fill="none" stroke="black" d="M721.14,-643.89C731.71,-648.7 744.62,-654.56 756.22,-659.83"/>
<polygon fill="black" stroke="black" points="755.02,-663.14 765.58,-664.09 757.92,-656.76 755.02,-663.14"/>
</g>
<!-- c1&#45;&gt;c2 -->
<g id="edge14" class="edge">
<title>c1&#45;&gt;c2</title>
<path fill="none" stroke="black" d="M725.53,-633.01C777.14,-631.24 895.77,-628.05 995.38,-632 1004.12,-632.35 1013.53,-632.96 1022.34,-633.65"/>
<polygon fill="black" stroke="black" points="1022.07,-637.14 1032.33,-634.47 1022.65,-630.16 1022.07,-637.14"/>
</g>
<!-- c6&#45;&gt;c7 -->
<g id="edge13" class="edge">
<title>c6&#45;&gt;c7</title>
<path fill="none" stroke="black" d="M814.37,-679.11C823.1,-680.9 833.07,-682.94 842.46,-684.86"/>
<polygon fill="black" stroke="black" points="841.84,-688.3 852.34,-686.88 843.24,-681.44 841.84,-688.3"/>
</g>
<!-- a13&#45;&gt;a10 -->
<g id="edge38" class="edge">
<title>a13&#45;&gt;a10</title>
<path fill="none" stroke="black" d="M1269.64,-993.84C1278.64,-993.26 1288.92,-993.11 1298.59,-993.39"/>
<polygon fill="black" stroke="black" points="1298.59,-996.89 1308.74,-993.86 1298.92,-989.9 1298.59,-996.89"/>
</g>
<!-- a13&#45;&gt;a10 -->
<g id="edge56" class="edge">
<title>a13&#45;&gt;a10</title>
<path fill="none" stroke="black" d="M1269.64,-1006.16C1278.64,-1006.74 1288.92,-1006.89 1298.59,-1006.61"/>
<polygon fill="black" stroke="black" points="1298.92,-1010.1 1308.74,-1006.14 1298.59,-1003.11 1298.92,-1010.1"/>
</g>
<!-- a15&#45;&gt;a13 -->
<g id="edge37" class="edge">
<title>a15&#45;&gt;a13</title>
<path fill="none" stroke="black" d="M1179.2,-974.86C1189.54,-977.35 1201.41,-980.86 1212.03,-984.55"/>
<polygon fill="black" stroke="black" points="1211.15,-987.96 1221.74,-988.12 1213.57,-981.39 1211.15,-987.96"/>
</g>
<!-- a15&#45;&gt;a13 -->
<g id="edge57" class="edge">
<title>a15&#45;&gt;a13</title>
<path fill="none" stroke="black" d="M1172.63,-984.89C1182.22,-988.63 1193.98,-992.46 1205.07,-995.53"/>
<polygon fill="black" stroke="black" points="1204.43,-998.98 1214.98,-998.1 1206.19,-992.2 1204.43,-998.98"/>
</g>
<!-- b9 -->
<g id="node30" class="node">
<title>b9</title>
<ellipse fill="none" stroke="black" cx="321" cy="-129" rx="27" ry="18"/>
<text text-anchor="middle" x="321" y="-125.3" font-family="Times,serif" font-size="14.00">b9</text>
</g>
<!-- b9&#45;&gt;a17 -->
<g id="edge1" class="edge">
<title>b9&#45;&gt;a17</title>
<path fill="none" stroke="green" stroke-width="5" d="M328.91,-146.5C336.82,-165.29 351,-195.48 368.65,-218 373.55,-224.25 379.56,-230.29 385.52,-235.65"/>
<polygon fill="green" stroke="green" stroke-width="5" points="383.06,-239.31 393.5,-242.49 388.76,-232.66 383.06,-239.31"/>
</g>
<!-- b9&#45;&gt;b10 -->
<g id="edge24" class="edge">
<title>b9&#45;&gt;b10</title>
<path fill="none" stroke="black" d="M347.92,-131.02C356.09,-131.66 365.29,-132.38 374.1,-133.07"/>
<polygon fill="black" stroke="black" points="373.94,-136.57 384.18,-133.86 374.48,-129.59 373.94,-136.57"/>
</g>
<!-- b9&#45;&gt;b1 -->
<g id="edge25" class="edge">
<title>b9&#45;&gt;b1</title>
<path fill="none" stroke="black" d="M342.78,-118.1C354.43,-111.99 369.15,-104.27 381.99,-97.53"/>
<polygon fill="black" stroke="black" points="383.7,-100.59 390.93,-92.84 380.45,-94.39 383.7,-100.59"/>
</g>
<!-- start -->
<g id="node31" class="node">
<title>start</title>
<ellipse fill="none" stroke="black" cx="510.34" cy="-422" rx="33.29" ry="18"/>
<text text-anchor="middle" x="510.34" y="-418.3" font-family="Times,serif" font-size="14.00">start</text>
</g>
<!-- start&#45;&gt;a2 -->
<g id="edge6" class="edge">
<title>start&#45;&gt;a2</title>
<path fill="none" stroke="green" stroke-width="5" d="M519.29,-439.71C536.01,-477 574.93,-563.75 594.6,-607.61"/>
<polygon fill="green" stroke="green" stroke-width="5" points="590.63,-609.45 598.71,-616.79 598.61,-605.87 590.63,-609.45"/>
</g>
<!-- start&#45;&gt;a3 -->
<g id="edge7" class="edge">
<title>start&#45;&gt;a3</title>
<path fill="none" stroke="green" stroke-width="5" d="M535.34,-410.1C547.76,-408.26 563.04,-408.01 576.25,-409.33"/>
<polygon fill="green" stroke="green" stroke-width="5" points="575.8,-413.69 586.31,-410.73 577.01,-405.02 575.8,-413.69"/>
</g>
<!-- start&#45;&gt;a3 -->
<g id="edge59" class="edge">
<title>start&#45;&gt;a3</title>
<path fill="none" stroke="black" d="M543.54,-422C552.04,-422 561.28,-422 569.99,-422"/>
<polygon fill="black" stroke="black" points="570.27,-425.5 580.27,-422 570.27,-418.5 570.27,-425.5"/>
</g>
<!-- start&#45;&gt;a3 -->
<g id="edge67" class="edge">
<title>start&#45;&gt;a3</title>
<path fill="none" stroke="black" d="M535.34,-433.9C547.76,-435.74 563.04,-435.99 576.25,-434.67"/>
<polygon fill="black" stroke="black" points="576.88,-438.11 586.31,-433.27 575.92,-431.18 576.88,-438.11"/>
</g>
<!-- b7 -->
<g id="node32" class="node">
<title>b7</title>
<ellipse fill="none" stroke="black" cx="788.38" cy="-63" rx="27" ry="18"/>
<text text-anchor="middle" x="788.38" y="-59.3" font-family="Times,serif" font-size="14.00">b7</text>
</g>
<!-- b7&#45;&gt;b8 -->
<g id="edge35" class="edge">
<title>b7&#45;&gt;b8</title>
<path fill="none" stroke="black" d="M762.14,-58.16C755.42,-56.99 748.14,-55.84 741.38,-55 682.58,-47.69 667.69,-45 608.44,-45 509.34,-45 509.34,-45 509.34,-45 446.65,-45 430.07,-42.48 368.65,-55 331.65,-62.54 290.92,-77.46 263.64,-88.48"/>
<polygon fill="black" stroke="black" points="262.15,-85.31 254.23,-92.34 264.81,-91.78 262.15,-85.31"/>
</g>
<!-- c5&#45;&gt;c7 -->
<g id="edge18" class="edge">
<title>c5&#45;&gt;c7</title>
<path fill="none" stroke="black" d="M633.94,-691.9C674.22,-697.53 755.02,-706.66 823.38,-701 829.45,-700.5 835.86,-699.68 842.07,-698.74"/>
<polygon fill="black" stroke="black" points="842.92,-702.15 852.22,-697.08 841.78,-695.24 842.92,-702.15"/>
</g>
<!-- c5&#45;&gt;c1 -->
<g id="edge20" class="edge">
<title>c5&#45;&gt;c1</title>
<path fill="none" stroke="black" d="M628.18,-676.02C640.15,-668.74 655.64,-659.34 668.92,-651.28"/>
<polygon fill="black" stroke="black" points="670.97,-654.13 677.7,-645.95 667.33,-648.15 670.97,-654.13"/>
</g>
<!-- c5&#45;&gt;c6 -->
<g id="edge17" class="edge">
<title>c5&#45;&gt;c6</title>
<path fill="none" stroke="black" d="M634.46,-685.96C665.2,-683.56 716.55,-679.54 751.17,-676.83"/>
<polygon fill="black" stroke="black" points="751.64,-680.31 761.33,-676.04 751.09,-673.33 751.64,-680.31"/>
</g>
<!-- c5&#45;&gt;c2 -->
<g id="edge19" class="edge">
<title>c5&#45;&gt;c2</title>
<path fill="none" stroke="black" d="M633.5,-683.18C670.62,-676.01 736.43,-663.13 741.38,-661 751.35,-656.72 751.09,-650.44 761.38,-647 808.64,-631.22 953.65,-633.56 1021.99,-635.66"/>
<polygon fill="black" stroke="black" points="1022.16,-639.17 1032.27,-635.99 1022.39,-632.17 1022.16,-639.17"/>
</g>
<!-- a4&#45;&gt;a5 -->
<g id="edge60" class="edge">
<title>a4&#45;&gt;a5</title>
<path fill="none" stroke="black" d="M671.4,-433.42C662.64,-435.82 652.71,-438.57 643.38,-440 570.38,-451.22 547.7,-462.01 477.19,-440 464.9,-436.16 452.9,-429.02 442.68,-422.07"/>
<polygon fill="black" stroke="black" points="444.4,-419 434.21,-416.1 440.37,-424.72 444.4,-419"/>
</g>
<!-- a4&#45;&gt;a5 -->
<g id="edge68" class="edge">
<title>a4&#45;&gt;a5</title>
<path fill="none" stroke="black" d="M681.15,-446.25C670.59,-451.44 656.4,-456 643.38,-458 570.38,-469.22 547.7,-480.01 477.19,-458 459.74,-452.55 442.86,-440.45 430.88,-428.96"/>
<polygon fill="black" stroke="black" points="433.22,-426.34 423.76,-421.57 428.18,-431.2 433.22,-426.34"/>
</g>
<!-- b1&#45;&gt;b4 -->
<g id="edge33" class="edge">
<title>b1&#45;&gt;b4</title>
<path fill="none" stroke="black" d="M386.29,-77.13C374.66,-75.02 360.67,-72.66 348,-71 254.77,-58.82 144.26,-50.8 88.33,-47.2"/>
<polygon fill="black" stroke="black" points="88.42,-43.69 78.21,-46.55 87.97,-50.68 88.42,-43.69"/>
</g>
<!-- b1&#45;&gt;b3 -->
<g id="edge32" class="edge">
<title>b1&#45;&gt;b3</title>
<path fill="none" stroke="black" d="M385.69,-79.63C346.39,-76.38 269.35,-71.32 204,-75 195.47,-75.48 186.3,-76.33 177.71,-77.27"/>
<polygon fill="black" stroke="black" points="177.11,-73.82 167.59,-78.46 177.92,-80.77 177.11,-73.82"/>
</g>
<!-- b1&#45;&gt;b2 -->
<g id="edge31" class="edge">
<title>b1&#45;&gt;b2</title>
<path fill="none" stroke="black" d="M439.76,-82C450,-82 461.92,-82 472.97,-82"/>
<polygon fill="black" stroke="black" points="473.21,-85.5 483.21,-82 473.21,-78.5 473.21,-85.5"/>
</g>
<!-- b5&#45;&gt;b6 -->
<g id="edge30" class="edge">
<title>b5&#45;&gt;b6</title>
<path fill="none" stroke="black" d="M634.64,-82C642.97,-82 652.32,-82 661.22,-82"/>
<polygon fill="black" stroke="black" points="661.37,-85.5 671.37,-82 661.37,-78.5 661.37,-85.5"/>
</g>
<!-- b6&#45;&gt;b7 -->
<g id="edge26" class="edge">
<title>b6&#45;&gt;b7</title>
<path fill="none" stroke="black" d="M724.37,-76.61C733.1,-74.72 743.07,-72.57 752.46,-70.54"/>
<polygon fill="black" stroke="black" points="753.3,-73.94 762.34,-68.41 751.83,-67.1 753.3,-73.94"/>
</g>
<!-- b8&#45;&gt;b9 -->
<g id="edge27" class="edge">
<title>b8&#45;&gt;b9</title>
<path fill="none" stroke="black" d="M256.05,-109.38C265.44,-112.26 276.36,-115.61 286.5,-118.72"/>
<polygon fill="black" stroke="black" points="285.7,-122.14 296.29,-121.72 287.75,-115.45 285.7,-122.14"/>
</g>
<!-- c2&#45;&gt;c3 -->
<g id="edge12" class="edge">
<title>c2&#45;&gt;c3</title>
<path fill="none" stroke="black" d="M1035.25,-628.42C1001.51,-616.67 936.53,-597 879.38,-597 606.44,-597 606.44,-597 606.44,-597 550.82,-597 487.04,-608.15 448.56,-616.12"/>
<polygon fill="black" stroke="black" points="447.46,-612.78 438.4,-618.27 448.91,-619.62 447.46,-612.78"/>
</g>
</g>
</svg>
