<?xml version="1.0" encoding="UTF-8" standalone="no"?>
<!DOCTYPE svg PUBLIC "-//W3C//DTD SVG 1.1//EN"
 "http://www.w3.org/Graphics/SVG/1.1/DTD/svg11.dtd">
<!-- Generated by graphviz version 2.43.0 (0)
 -->
<!-- Title: cluster Pages: 1 -->
<svg width="1357pt" height="938pt"
 viewBox="0.00 0.00 1356.65 938.00" xmlns="http://www.w3.org/2000/svg" xmlns:xlink="http://www.w3.org/1999/xlink">
<g id="graph0" class="graph" transform="scale(1 1) rotate(0) translate(4 934)">
<title>cluster</title>
<polygon fill="white" stroke="transparent" points="-4,4 -4,-934 1352.65,-934 1352.65,4 -4,4"/>
<g id="clust1" class="cluster">
<title>cluster_0xc00006f980</title>
<polygon fill="none" stroke="#ffffff" stroke-width="10" points="8,-8 8,-922 1340.65,-922 1340.65,-8 8,-8"/>
<text text-anchor="middle" x="674.32" y="-886" font-family="Times,serif" font-size="40.00">main</text>
</g>
<g id="clust2" class="cluster">
<title>cluster_0xc00006fe30</title>
<polygon fill="none" stroke="#8c1610" stroke-width="10" points="16,-408 16,-606 874.12,-606 874.12,-408 16,-408"/>
<text text-anchor="middle" x="445.06" y="-570" font-family="Times,serif" font-size="40.00">sub3</text>
</g>
<g id="clust3" class="cluster">
<title>cluster_0xc0000c02d0</title>
<polygon fill="none" stroke="#09f425" stroke-width="10" points="620.33,-614 620.33,-812 1332.65,-812 1332.65,-614 620.33,-614"/>
<text text-anchor="middle" x="976.49" y="-776" font-family="Times,serif" font-size="40.00">sub4</text>
</g>
<g id="clust4" class="cluster">
<title>cluster_0xc0000c09c0</title>
<polygon fill="none" stroke="#5fc2dc" stroke-width="10" points="225.15,-182 225.15,-400 1242.65,-400 1242.65,-182 225.15,-182"/>
<text text-anchor="middle" x="733.9" y="-364" font-family="Times,serif" font-size="40.00">sub2</text>
</g>
<g id="clust5" class="cluster">
<title>cluster_0xc0000c0ab0</title>
<polygon fill="none" stroke="#1bfdda" stroke-width="10" points="204,-16 204,-174 316.29,-174 316.29,-16 204,-16"/>
<text text-anchor="middle" x="260.15" y="-138" font-family="Times,serif" font-size="40.00">sub1</text>
</g>
<!-- a7 -->
<g id="node1" class="node">
<title>a7</title>
<ellipse fill="none" stroke="black" cx="260.15" cy="-238" rx="27" ry="18"/>
<text text-anchor="middle" x="260.15" y="-234.3" font-family="Times,serif" font-size="14.00">a7</text>
</g>
<!-- a3 -->
<g id="node7" class="node">
<title>a3</title>
<ellipse fill="none" stroke="black" cx="380.24" cy="-302" rx="27" ry="18"/>
<text text-anchor="middle" x="380.24" y="-298.3" font-family="Times,serif" font-size="14.00">a3</text>
</g>
<!-- a7&#45;&gt;a3 -->
<g id="edge40" class="edge">
<title>a7&#45;&gt;a3</title>
<path fill="none" stroke="black" d="M281.72,-249.15C300.48,-259.32 328.43,-274.47 349.61,-285.94"/>
<polygon fill="black" stroke="black" points="348.05,-289.08 358.51,-290.77 351.39,-282.92 348.05,-289.08"/>
</g>
<!-- a14 -->
<g id="node25" class="node">
<title>a14</title>
<ellipse fill="none" stroke="black" cx="747.23" cy="-256" rx="27.9" ry="18"/>
<text text-anchor="middle" x="747.23" y="-252.3" font-family="Times,serif" font-size="14.00">a14</text>
</g>
<!-- a7&#45;&gt;a14 -->
<g id="edge41" class="edge">
<title>a7&#45;&gt;a14</title>
<path fill="none" stroke="black" d="M285.73,-243.84C303.98,-247.87 329.54,-252.87 352.29,-255 482.8,-267.23 638.7,-261.71 708.82,-258.16"/>
<polygon fill="black" stroke="black" points="709.12,-261.65 718.92,-257.63 708.75,-254.66 709.12,-261.65"/>
</g>
<!-- a11 -->
<g id="node29" class="node">
<title>a11</title>
<ellipse fill="none" stroke="black" cx="380.24" cy="-228" rx="27.9" ry="18"/>
<text text-anchor="middle" x="380.24" y="-224.3" font-family="Times,serif" font-size="14.00">a11</text>
</g>
<!-- a7&#45;&gt;a11 -->
<g id="edge42" class="edge">
<title>a7&#45;&gt;a11</title>
<path fill="none" stroke="black" d="M287.06,-235.81C303.18,-234.44 324.17,-232.66 342.05,-231.15"/>
<polygon fill="black" stroke="black" points="342.49,-234.62 352.16,-230.29 341.9,-227.65 342.49,-234.62"/>
</g>
<!-- a18 -->
<g id="node2" class="node">
<title>a18</title>
<ellipse fill="none" stroke="black" cx="1206.7" cy="-322" rx="27.9" ry="18"/>
<text text-anchor="middle" x="1206.7" y="-318.3" font-family="Times,serif" font-size="14.00">a18</text>
</g>
<!-- end -->
<g id="node12" class="node">
<title>end</title>
<ellipse fill="none" stroke="black" cx="260.15" cy="-42" rx="27.9" ry="18"/>
<text text-anchor="middle" x="260.15" y="-38.3" font-family="Times,serif" font-size="14.00">end</text>
</g>
<!-- a18&#45;&gt;end -->
<g id="edge5" class="edge">
<title>a18&#45;&gt;end</title>
<path fill="none" stroke="green" stroke-width="5" d="M1204.05,-340.08C1196.03,-427.12 1160.74,-799.48 1142.75,-816 1103.82,-851.77 1076.78,-821 1023.91,-821 746.23,-821 746.23,-821 746.23,-821 690.23,-821 666.11,-848.26 620.33,-816 579.99,-787.57 550.92,-657.46 537.38,-610 511.89,-520.62 538.62,-489.16 501.38,-404 484.59,-365.59 462.91,-366.51 444.19,-329 417.8,-276.12 433.42,-254.44 408.19,-201 377.67,-136.36 370.55,-115.54 316.29,-69 309.79,-63.42 301.94,-58.69 294.23,-54.82"/>
<polygon fill="green" stroke="green" stroke-width="5" points="295.9,-50.77 284.99,-50.52 292.21,-58.7 295.9,-50.77"/>
</g>
<!-- b4 -->
<g id="node3" class="node">
<title>b4</title>
<ellipse fill="none" stroke="black" cx="51" cy="-437" rx="27" ry="18"/>
<text text-anchor="middle" x="51" y="-433.3" font-family="Times,serif" font-size="14.00">b4</text>
</g>
<!-- b3 -->
<g id="node31" class="node">
<title>b3</title>
<ellipse fill="none" stroke="black" cx="141" cy="-474" rx="27" ry="18"/>
<text text-anchor="middle" x="141" y="-470.3" font-family="Times,serif" font-size="14.00">b3</text>
</g>
<!-- b4&#45;&gt;b3 -->
<g id="edge10" class="edge">
<title>b4&#45;&gt;b3</title>
<path fill="none" stroke="black" d="M74.21,-446.34C84.52,-450.67 96.98,-455.91 108.27,-460.66"/>
<polygon fill="black" stroke="black" points="107.23,-464.02 117.8,-464.67 109.94,-457.56 107.23,-464.02"/>
</g>
<!-- b7 -->
<g id="node4" class="node">
<title>b7</title>
<ellipse fill="none" stroke="black" cx="839.12" cy="-462" rx="27" ry="18"/>
<text text-anchor="middle" x="839.12" y="-458.3" font-family="Times,serif" font-size="14.00">b7</text>
</g>
<!-- b8 -->
<g id="node5" class="node">
<title>b8</title>
<ellipse fill="none" stroke="black" cx="260.15" cy="-494" rx="27" ry="18"/>
<text text-anchor="middle" x="260.15" y="-490.3" font-family="Times,serif" font-size="14.00">b8</text>
</g>
<!-- b7&#45;&gt;b8 -->
<g id="edge16" class="edge">
<title>b7&#45;&gt;b8</title>
<path fill="none" stroke="black" d="M813.62,-468.44C778.89,-476.98 713.22,-491 656.33,-491 471.79,-491 471.79,-491 471.79,-491 410.59,-491 339.41,-492.28 297.43,-493.17"/>
<polygon fill="black" stroke="black" points="297.34,-489.67 287.42,-493.39 297.49,-496.67 297.34,-489.67"/>
</g>
<!-- b9 -->
<g id="node16" class="node">
<title>b9</title>
<ellipse fill="none" stroke="black" cx="380.24" cy="-528" rx="27" ry="18"/>
<text text-anchor="middle" x="380.24" y="-524.3" font-family="Times,serif" font-size="14.00">b9</text>
</g>
<!-- b8&#45;&gt;b9 -->
<g id="edge17" class="edge">
<title>b8&#45;&gt;b9</title>
<path fill="none" stroke="black" d="M285.33,-500.96C302.6,-505.94 326.08,-512.7 345.24,-518.21"/>
<polygon fill="black" stroke="black" points="344.51,-521.64 355.09,-521.05 346.45,-514.92 344.51,-521.64"/>
</g>
<!-- c7 -->
<g id="node6" class="node">
<title>c7</title>
<ellipse fill="none" stroke="black" cx="655.33" cy="-714" rx="27" ry="18"/>
<text text-anchor="middle" x="655.33" y="-710.3" font-family="Times,serif" font-size="14.00">c7</text>
</g>
<!-- c8 -->
<g id="node11" class="node">
<title>c8</title>
<ellipse fill="none" stroke="black" cx="747.23" cy="-714" rx="27" ry="18"/>
<text text-anchor="middle" x="747.23" y="-710.3" font-family="Times,serif" font-size="14.00">c8</text>
</g>
<!-- c7&#45;&gt;c8 -->
<g id="edge35" class="edge">
<title>c7&#45;&gt;c8</title>
<path fill="none" stroke="black" d="M682.33,-714C690.92,-714 700.64,-714 709.86,-714"/>
<polygon fill="black" stroke="black" points="709.97,-717.5 719.97,-714 709.97,-710.5 709.97,-717.5"/>
</g>
<!-- b1 -->
<g id="node9" class="node">
<title>b1</title>
<ellipse fill="none" stroke="black" cx="472.79" cy="-454" rx="27" ry="18"/>
<text text-anchor="middle" x="472.79" y="-450.3" font-family="Times,serif" font-size="14.00">b1</text>
</g>
<!-- a3&#45;&gt;b1 -->
<g id="edge7" class="edge">
<title>a3&#45;&gt;b1</title>
<path fill="none" stroke="green" stroke-width="5" d="M391.1,-318.56C406.89,-345.05 437.94,-397.18 456.58,-428.47"/>
<polygon fill="green" stroke="green" stroke-width="5" points="453.06,-431.11 461.94,-437.46 460.58,-426.63 453.06,-431.11"/>
</g>
<!-- a4 -->
<g id="node20" class="node">
<title>a4</title>
<ellipse fill="none" stroke="black" cx="472.79" cy="-302" rx="27" ry="18"/>
<text text-anchor="middle" x="472.79" y="-298.3" font-family="Times,serif" font-size="14.00">a4</text>
</g>
<!-- a3&#45;&gt;a4 -->
<g id="edge43" class="edge">
<title>a3&#45;&gt;a4</title>
<path fill="none" stroke="black" d="M407.43,-302C416.16,-302 426.05,-302 435.4,-302"/>
<polygon fill="black" stroke="black" points="435.66,-305.5 445.66,-302 435.66,-298.5 435.66,-305.5"/>
</g>
<!-- a6 -->
<g id="node8" class="node">
<title>a6</title>
<ellipse fill="none" stroke="black" cx="655.33" cy="-322" rx="27" ry="18"/>
<text text-anchor="middle" x="655.33" y="-318.3" font-family="Times,serif" font-size="14.00">a6</text>
</g>
<!-- a6&#45;&gt;a3 -->
<g id="edge44" class="edge">
<title>a6&#45;&gt;a3</title>
<path fill="none" stroke="black" d="M629.1,-326.61C589.32,-333.04 509.8,-342.48 444.19,-329 432.89,-326.68 421.12,-322.24 410.85,-317.62"/>
<polygon fill="black" stroke="black" points="412.07,-314.33 401.53,-313.2 409.07,-320.65 412.07,-314.33"/>
</g>
<!-- a6&#45;&gt;a14 -->
<g id="edge45" class="edge">
<title>a6&#45;&gt;a14</title>
<path fill="none" stroke="black" d="M674.09,-308.96C687.18,-299.35 705.2,-286.12 719.95,-275.29"/>
<polygon fill="black" stroke="black" points="722.21,-277.98 728.2,-269.24 718.06,-272.34 722.21,-277.98"/>
</g>
<!-- b6 -->
<g id="node32" class="node">
<title>b6</title>
<ellipse fill="none" stroke="black" cx="747.23" cy="-434" rx="27" ry="18"/>
<text text-anchor="middle" x="747.23" y="-430.3" font-family="Times,serif" font-size="14.00">b6</text>
</g>
<!-- a6&#45;&gt;b6 -->
<g id="edge1" class="edge">
<title>a6&#45;&gt;b6</title>
<path fill="none" stroke="green" stroke-width="5" d="M668.04,-338C680.43,-354.74 700.7,-381.64 719.28,-404 721.21,-406.32 723.25,-408.71 725.32,-411.08"/>
<polygon fill="green" stroke="green" stroke-width="5" points="722.38,-414.36 732.29,-418.94 728.92,-408.55 722.38,-414.36"/>
</g>
<!-- b1&#45;&gt;b4 -->
<g id="edge21" class="edge">
<title>b1&#45;&gt;b4</title>
<path fill="none" stroke="black" d="M445.8,-452.73C434.28,-452.18 420.56,-451.53 408.19,-451 291.35,-445.95 152.91,-440.73 88.43,-438.34"/>
<polygon fill="black" stroke="black" points="88.49,-434.84 78.37,-437.97 88.23,-441.83 88.49,-434.84"/>
</g>
<!-- b2 -->
<g id="node27" class="node">
<title>b2</title>
<ellipse fill="none" stroke="black" cx="564.38" cy="-434" rx="27" ry="18"/>
<text text-anchor="middle" x="564.38" y="-430.3" font-family="Times,serif" font-size="14.00">b2</text>
</g>
<!-- b1&#45;&gt;b2 -->
<g id="edge19" class="edge">
<title>b1&#45;&gt;b2</title>
<path fill="none" stroke="black" d="M498.74,-448.43C507.97,-446.37 518.6,-444 528.54,-441.78"/>
<polygon fill="black" stroke="black" points="529.56,-445.14 538.56,-439.54 528.04,-438.3 529.56,-445.14"/>
</g>
<!-- b1&#45;&gt;b3 -->
<g id="edge20" class="edge">
<title>b1&#45;&gt;b3</title>
<path fill="none" stroke="black" d="M445.52,-454.72C397.51,-456.15 292.38,-459.87 204,-467 195.48,-467.69 186.32,-468.62 177.73,-469.57"/>
<polygon fill="black" stroke="black" points="177.14,-466.12 167.6,-470.74 177.94,-473.07 177.14,-466.12"/>
</g>
<!-- c1 -->
<g id="node10" class="node">
<title>c1</title>
<ellipse fill="none" stroke="black" cx="1206.7" cy="-697" rx="27" ry="18"/>
<text text-anchor="middle" x="1206.7" y="-693.3" font-family="Times,serif" font-size="14.00">c1</text>
</g>
<!-- c6 -->
<g id="node28" class="node">
<title>c6</title>
<ellipse fill="none" stroke="black" cx="1297.65" cy="-697" rx="27" ry="18"/>
<text text-anchor="middle" x="1297.65" y="-693.3" font-family="Times,serif" font-size="14.00">c6</text>
</g>
<!-- c1&#45;&gt;c6 -->
<g id="edge24" class="edge">
<title>c1&#45;&gt;c6</title>
<path fill="none" stroke="black" d="M1233.91,-697C1242.23,-697 1251.59,-697 1260.49,-697"/>
<polygon fill="black" stroke="black" points="1260.63,-700.5 1270.63,-697 1260.63,-693.5 1260.63,-700.5"/>
</g>
<!-- c2 -->
<g id="node34" class="node">
<title>c2</title>
<ellipse fill="none" stroke="black" cx="839.12" cy="-640" rx="27" ry="18"/>
<text text-anchor="middle" x="839.12" y="-636.3" font-family="Times,serif" font-size="14.00">c2</text>
</g>
<!-- c1&#45;&gt;c2 -->
<g id="edge23" class="edge">
<title>c1&#45;&gt;c2</title>
<path fill="none" stroke="black" d="M1179.52,-698.83C1126.21,-701.75 1001.76,-704.45 903.07,-675 890.43,-671.23 877.52,-664.62 866.71,-658.16"/>
<polygon fill="black" stroke="black" points="868.51,-655.16 858.18,-652.83 864.8,-661.1 868.51,-655.16"/>
</g>
<!-- c8&#45;&gt;a18 -->
<g id="edge9" class="edge">
<title>c8&#45;&gt;a18</title>
<path fill="none" stroke="green" stroke-width="5" d="M768.84,-724.99C801.87,-741.55 869.16,-771 930.02,-771 930.02,-771 930.02,-771 1023.91,-771 1088.59,-771 1108.22,-741.69 1142.75,-687 1178.34,-630.64 1197.57,-426.21 1203.6,-350.48"/>
<polygon fill="green" stroke="green" stroke-width="5" points="1207.98,-350.58 1204.39,-340.27 1199.25,-349.9 1207.98,-350.58"/>
</g>
<!-- c9 -->
<g id="node23" class="node">
<title>c9</title>
<ellipse fill="none" stroke="black" cx="839.12" cy="-714" rx="27" ry="18"/>
<text text-anchor="middle" x="839.12" y="-710.3" font-family="Times,serif" font-size="14.00">c9</text>
</g>
<!-- c8&#45;&gt;c9 -->
<g id="edge25" class="edge">
<title>c8&#45;&gt;c9</title>
<path fill="none" stroke="black" d="M774.23,-714C782.82,-714 792.54,-714 801.76,-714"/>
<polygon fill="black" stroke="black" points="801.87,-717.5 811.87,-714 801.87,-710.5 801.87,-717.5"/>
</g>
<!-- c8&#45;&gt;c2 -->
<g id="edge26" class="edge">
<title>c8&#45;&gt;c2</title>
<path fill="none" stroke="black" d="M765.14,-700.08C778.7,-688.92 797.93,-673.09 813.24,-660.48"/>
<polygon fill="black" stroke="black" points="815.79,-662.91 821.29,-653.86 811.34,-657.51 815.79,-662.91"/>
</g>
<!-- start -->
<g id="node13" class="node">
<title>start</title>
<ellipse fill="none" stroke="black" cx="260.15" cy="-96" rx="33.29" ry="18"/>
<text text-anchor="middle" x="260.15" y="-92.3" font-family="Times,serif" font-size="14.00">start</text>
</g>
<!-- start&#45;&gt;a3 -->
<g id="edge4" class="edge">
<title>start&#45;&gt;a3</title>
<path fill="none" stroke="green" stroke-width="5" d="M273.56,-112.79C285.3,-129.03 303.03,-154.55 316.29,-178 334.89,-210.88 334.88,-221.47 352.29,-255 355.93,-262 360.08,-269.46 364.01,-276.33"/>
<polygon fill="green" stroke="green" stroke-width="5" points="360.37,-278.77 369.17,-285.22 367.93,-274.37 360.37,-278.77"/>
</g>
<!-- a2 -->
<g id="node24" class="node">
<title>a2</title>
<ellipse fill="none" stroke="black" cx="260.15" cy="-312" rx="27" ry="18"/>
<text text-anchor="middle" x="260.15" y="-308.3" font-family="Times,serif" font-size="14.00">a2</text>
</g>
<!-- start&#45;&gt;a2 -->
<g id="edge3" class="edge">
<title>start&#45;&gt;a2</title>
<path fill="none" stroke="green" stroke-width="5" d="M241.97,-111.22C223.82,-127.72 197.07,-155.9 186,-187 175.72,-215.89 172.33,-228.55 186,-256 194.9,-273.87 212.51,-287.54 228.34,-296.91"/>
<polygon fill="green" stroke="green" stroke-width="5" points="226.51,-300.89 237.37,-301.92 230.75,-293.24 226.51,-300.89"/>
</g>
<!-- a5 -->
<g id="node14" class="node">
<title>a5</title>
<ellipse fill="none" stroke="black" cx="564.38" cy="-302" rx="27" ry="18"/>
<text text-anchor="middle" x="564.38" y="-298.3" font-family="Times,serif" font-size="14.00">a5</text>
</g>
<!-- a5&#45;&gt;a6 -->
<g id="edge47" class="edge">
<title>a5&#45;&gt;a6</title>
<path fill="none" stroke="black" d="M590.16,-307.57C599.24,-309.61 609.69,-311.96 619.49,-314.17"/>
<polygon fill="black" stroke="black" points="618.85,-317.61 629.38,-316.39 620.39,-310.78 618.85,-317.61"/>
</g>
<!-- a13 -->
<g id="node15" class="node">
<title>a13</title>
<ellipse fill="none" stroke="black" cx="931.02" cy="-245" rx="27.9" ry="18"/>
<text text-anchor="middle" x="931.02" y="-241.3" font-family="Times,serif" font-size="14.00">a13</text>
</g>
<!-- a17 -->
<g id="node22" class="node">
<title>a17</title>
<ellipse fill="none" stroke="black" cx="1022.91" cy="-322" rx="27.9" ry="18"/>
<text text-anchor="middle" x="1022.91" y="-318.3" font-family="Times,serif" font-size="14.00">a17</text>
</g>
<!-- a13&#45;&gt;a17 -->
<g id="edge49" class="edge">
<title>a13&#45;&gt;a17</title>
<path fill="none" stroke="black" d="M948.5,-259.12C962.23,-270.88 981.97,-287.79 997.53,-301.11"/>
<polygon fill="black" stroke="black" points="995.35,-303.86 1005.22,-307.71 999.91,-298.54 995.35,-303.86"/>
</g>
<!-- a10 -->
<g id="node38" class="node">
<title>a10</title>
<ellipse fill="none" stroke="black" cx="1022.91" cy="-243" rx="27.9" ry="18"/>
<text text-anchor="middle" x="1022.91" y="-239.3" font-family="Times,serif" font-size="14.00">a10</text>
</g>
<!-- a13&#45;&gt;a10 -->
<g id="edge48" class="edge">
<title>a13&#45;&gt;a10</title>
<path fill="none" stroke="black" d="M958.99,-244.4C967.08,-244.22 976.1,-244.02 984.72,-243.83"/>
<polygon fill="black" stroke="black" points="985.04,-247.32 994.96,-243.6 984.88,-240.32 985.04,-247.32"/>
</g>
<!-- b9&#45;&gt;b1 -->
<g id="edge12" class="edge">
<title>b9&#45;&gt;b1</title>
<path fill="none" stroke="black" d="M398.27,-514.08C411.93,-502.92 431.3,-487.09 446.73,-474.48"/>
<polygon fill="black" stroke="black" points="449.3,-476.89 454.83,-467.86 444.87,-471.47 449.3,-476.89"/>
</g>
<!-- b9&#45;&gt;a17 -->
<g id="edge8" class="edge">
<title>b9&#45;&gt;a17</title>
<path fill="none" stroke="green" stroke-width="5" d="M382.47,-546.38C388.23,-616.19 418.74,-861 563.38,-861 563.38,-861 563.38,-861 840.12,-861 896.6,-861 923.99,-860.35 958.96,-816 973.56,-797.5 1008.96,-452.11 1019.13,-350.12"/>
<polygon fill="green" stroke="green" stroke-width="5" points="1023.51,-350.36 1020.14,-339.97 1014.8,-349.49 1023.51,-350.36"/>
</g>
<!-- b10 -->
<g id="node33" class="node">
<title>b10</title>
<ellipse fill="none" stroke="black" cx="472.79" cy="-528" rx="28.7" ry="18"/>
<text text-anchor="middle" x="472.79" y="-524.3" font-family="Times,serif" font-size="14.00">b10</text>
</g>
<!-- b9&#45;&gt;b10 -->
<g id="edge11" class="edge">
<title>b9&#45;&gt;b10</title>
<path fill="none" stroke="black" d="M407.43,-528C415.69,-528 424.99,-528 433.89,-528"/>
<polygon fill="black" stroke="black" points="434.08,-531.5 444.08,-528 434.08,-524.5 434.08,-531.5"/>
</g>
<!-- c4 -->
<g id="node17" class="node">
<title>c4</title>
<ellipse fill="none" stroke="black" cx="1022.91" cy="-640" rx="27" ry="18"/>
<text text-anchor="middle" x="1022.91" y="-636.3" font-family="Times,serif" font-size="14.00">c4</text>
</g>
<!-- c5 -->
<g id="node35" class="node">
<title>c5</title>
<ellipse fill="none" stroke="black" cx="1114.81" cy="-660" rx="27" ry="18"/>
<text text-anchor="middle" x="1114.81" y="-656.3" font-family="Times,serif" font-size="14.00">c5</text>
</g>
<!-- c4&#45;&gt;c5 -->
<g id="edge27" class="edge">
<title>c4&#45;&gt;c5</title>
<path fill="none" stroke="black" d="M1048.95,-645.57C1058.21,-647.63 1068.87,-650 1078.84,-652.22"/>
<polygon fill="black" stroke="black" points="1078.38,-655.7 1088.9,-654.46 1079.9,-648.87 1078.38,-655.7"/>
</g>
<!-- b5 -->
<g id="node18" class="node">
<title>b5</title>
<ellipse fill="none" stroke="black" cx="655.33" cy="-434" rx="27" ry="18"/>
<text text-anchor="middle" x="655.33" y="-430.3" font-family="Times,serif" font-size="14.00">b5</text>
</g>
<!-- b5&#45;&gt;b6 -->
<g id="edge22" class="edge">
<title>b5&#45;&gt;b6</title>
<path fill="none" stroke="black" d="M682.33,-434C690.92,-434 700.64,-434 709.86,-434"/>
<polygon fill="black" stroke="black" points="709.97,-437.5 719.97,-434 709.97,-430.5 709.97,-437.5"/>
</g>
<!-- c3 -->
<g id="node19" class="node">
<title>c3</title>
<ellipse fill="none" stroke="black" cx="931.02" cy="-640" rx="27" ry="18"/>
<text text-anchor="middle" x="931.02" y="-636.3" font-family="Times,serif" font-size="14.00">c3</text>
</g>
<!-- c3&#45;&gt;c4 -->
<g id="edge28" class="edge">
<title>c3&#45;&gt;c4</title>
<path fill="none" stroke="black" d="M958.02,-640C966.61,-640 976.33,-640 985.55,-640"/>
<polygon fill="black" stroke="black" points="985.66,-643.5 995.66,-640 985.66,-636.5 985.66,-643.5"/>
</g>
<!-- a4&#45;&gt;a5 -->
<g id="edge52" class="edge">
<title>a4&#45;&gt;a5</title>
<path fill="none" stroke="black" d="M500.18,-302C508.57,-302 517.99,-302 526.96,-302"/>
<polygon fill="black" stroke="black" points="527.18,-305.5 537.18,-302 527.18,-298.5 527.18,-305.5"/>
</g>
<!-- a9 -->
<g id="node36" class="node">
<title>a9</title>
<ellipse fill="none" stroke="black" cx="747.23" cy="-310" rx="27" ry="18"/>
<text text-anchor="middle" x="747.23" y="-306.3" font-family="Times,serif" font-size="14.00">a9</text>
</g>
<!-- a4&#45;&gt;a9 -->
<g id="edge53" class="edge">
<title>a4&#45;&gt;a9</title>
<path fill="none" stroke="black" d="M494.3,-290.8C506.44,-284.81 522.34,-278.06 537.38,-275 599.79,-262.3 673.36,-282.81 714.41,-297.4"/>
<polygon fill="black" stroke="black" points="713.29,-300.72 723.88,-300.87 715.69,-294.15 713.29,-300.72"/>
</g>
<!-- a12 -->
<g id="node21" class="node">
<title>a12</title>
<ellipse fill="none" stroke="black" cx="655.33" cy="-228" rx="27.9" ry="18"/>
<text text-anchor="middle" x="655.33" y="-224.3" font-family="Times,serif" font-size="14.00">a12</text>
</g>
<!-- a12&#45;&gt;a13 -->
<g id="edge54" class="edge">
<title>a12&#45;&gt;a13</title>
<path fill="none" stroke="black" d="M682.48,-223.27C723.71,-216.68 806.13,-207.02 874.12,-221 882.82,-222.79 891.84,-225.99 900.02,-229.49"/>
<polygon fill="black" stroke="black" points="898.63,-232.7 909.18,-233.66 901.53,-226.33 898.63,-232.7"/>
</g>
<!-- a17&#45;&gt;a18 -->
<g id="edge55" class="edge">
<title>a17&#45;&gt;a18</title>
<path fill="none" stroke="black" d="M1051.13,-322C1082.28,-322 1133.47,-322 1168.34,-322"/>
<polygon fill="black" stroke="black" points="1168.6,-325.5 1178.6,-322 1168.6,-318.5 1168.6,-325.5"/>
</g>
<!-- a16 -->
<g id="node30" class="node">
<title>a16</title>
<ellipse fill="none" stroke="black" cx="1114.81" cy="-289" rx="27.9" ry="18"/>
<text text-anchor="middle" x="1114.81" y="-285.3" font-family="Times,serif" font-size="14.00">a16</text>
</g>
<!-- a17&#45;&gt;a16 -->
<g id="edge56" class="edge">
<title>a17&#45;&gt;a16</title>
<path fill="none" stroke="black" d="M1047.53,-313.33C1057.57,-309.65 1069.45,-305.28 1080.36,-301.28"/>
<polygon fill="black" stroke="black" points="1081.85,-304.46 1090.03,-297.73 1079.44,-297.89 1081.85,-304.46"/>
</g>
<!-- a2&#45;&gt;c1 -->
<g id="edge2" class="edge">
<title>a2&#45;&gt;c1</title>
<path fill="none" stroke="green" stroke-width="5" d="M284.61,-319.72C317.86,-331.97 378.01,-359.16 408.19,-404 460.08,-481.11 405.76,-525.38 444.19,-610 495.7,-723.42 510.84,-768.6 620.33,-828 669.78,-854.82 689.98,-841 746.23,-841 746.23,-841 746.23,-841 1023.91,-841 1077,-841 1099.34,-859.55 1142.75,-829 1177.3,-804.69 1193.53,-756.22 1200.66,-725.27"/>
<polygon fill="green" stroke="green" stroke-width="5" points="1205.02,-725.81 1202.82,-715.11 1196.46,-723.99 1205.02,-725.81"/>
</g>
<!-- a15 -->
<g id="node26" class="node">
<title>a15</title>
<ellipse fill="none" stroke="black" cx="839.12" cy="-248" rx="27.9" ry="18"/>
<text text-anchor="middle" x="839.12" y="-244.3" font-family="Times,serif" font-size="14.00">a15</text>
</g>
<!-- a14&#45;&gt;a15 -->
<g id="edge36" class="edge">
<title>a14&#45;&gt;a15</title>
<path fill="none" stroke="black" d="M775.2,-253.6C783.29,-252.88 792.31,-252.08 800.93,-251.31"/>
<polygon fill="black" stroke="black" points="801.52,-254.77 811.17,-250.4 800.9,-247.8 801.52,-254.77"/>
</g>
<!-- a15&#45;&gt;a13 -->
<g id="edge37" class="edge">
<title>a15&#45;&gt;a13</title>
<path fill="none" stroke="black" d="M867.09,-247.1C875.18,-246.83 884.2,-246.53 892.83,-246.24"/>
<polygon fill="black" stroke="black" points="893.19,-249.73 903.06,-245.9 892.95,-242.74 893.19,-249.73"/>
</g>
<!-- b2&#45;&gt;b4 -->
<g id="edge13" class="edge">
<title>b2&#45;&gt;b4</title>
<path fill="none" stroke="black" d="M537.81,-430.1C502.64,-425.08 437.3,-417 381.24,-417 259.15,-417 259.15,-417 259.15,-417 198.66,-417 128.69,-425.55 87.51,-431.47"/>
<polygon fill="black" stroke="black" points="86.82,-428.04 77.44,-432.95 87.84,-434.96 86.82,-428.04"/>
</g>
<!-- b2&#45;&gt;b5 -->
<g id="edge14" class="edge">
<title>b2&#45;&gt;b5</title>
<path fill="none" stroke="black" d="M591.59,-434C599.91,-434 609.27,-434 618.17,-434"/>
<polygon fill="black" stroke="black" points="618.31,-437.5 628.31,-434 618.31,-430.5 618.31,-437.5"/>
</g>
<!-- c6&#45;&gt;c7 -->
<g id="edge29" class="edge">
<title>c6&#45;&gt;c7</title>
<path fill="none" stroke="black" d="M1276.67,-708.52C1266.71,-713.86 1254.32,-719.91 1242.65,-724 1188.25,-743.04 1173.44,-751 1115.81,-751 838.12,-751 838.12,-751 838.12,-751 785.12,-751 770.71,-753.83 719.28,-741 708.18,-738.23 696.52,-733.73 686.31,-729.18"/>
<polygon fill="black" stroke="black" points="687.56,-725.91 677.01,-724.87 684.61,-732.26 687.56,-725.91"/>
</g>
<!-- a11&#45;&gt;a12 -->
<g id="edge50" class="edge">
<title>a11&#45;&gt;a12</title>
<path fill="none" stroke="black" d="M408.42,-228C457.6,-228 561.39,-228 617.11,-228"/>
<polygon fill="black" stroke="black" points="617.26,-231.5 627.26,-228 617.26,-224.5 617.26,-231.5"/>
</g>
<!-- a16&#45;&gt;a18 -->
<g id="edge38" class="edge">
<title>a16&#45;&gt;a18</title>
<path fill="none" stroke="black" d="M1139.43,-297.67C1149.46,-301.35 1161.35,-305.72 1172.26,-309.72"/>
<polygon fill="black" stroke="black" points="1171.33,-313.11 1181.93,-313.27 1173.75,-306.54 1171.33,-313.11"/>
</g>
<!-- a19 -->
<g id="node39" class="node">
<title>a19</title>
<ellipse fill="none" stroke="black" cx="1206.7" cy="-268" rx="27.9" ry="18"/>
<text text-anchor="middle" x="1206.7" y="-264.3" font-family="Times,serif" font-size="14.00">a19</text>
</g>
<!-- a16&#45;&gt;a19 -->
<g id="edge39" class="edge">
<title>a16&#45;&gt;a19</title>
<path fill="none" stroke="black" d="M1141.33,-283.04C1150.34,-280.93 1160.65,-278.52 1170.33,-276.26"/>
<polygon fill="black" stroke="black" points="1171.18,-279.66 1180.12,-273.98 1169.58,-272.84 1171.18,-279.66"/>
</g>
<!-- b3&#45;&gt;b8 -->
<g id="edge18" class="edge">
<title>b3&#45;&gt;b8</title>
<path fill="none" stroke="black" d="M167.42,-478.34C183.92,-481.16 205.66,-484.87 223.83,-487.97"/>
<polygon fill="black" stroke="black" points="223.33,-491.44 233.78,-489.67 224.51,-484.54 223.33,-491.44"/>
</g>
<!-- b6&#45;&gt;b7 -->
<g id="edge15" class="edge">
<title>b6&#45;&gt;b7</title>
<path fill="none" stroke="black" d="M772.32,-441.5C782.17,-444.57 793.74,-448.18 804.41,-451.5"/>
<polygon fill="black" stroke="black" points="803.69,-454.94 814.28,-454.57 805.77,-448.26 803.69,-454.94"/>
</g>
<!-- c2&#45;&gt;c3 -->
<g id="edge30" class="edge">
<title>c2&#45;&gt;c3</title>
<path fill="none" stroke="black" d="M866.12,-640C874.71,-640 884.43,-640 893.65,-640"/>
<polygon fill="black" stroke="black" points="893.76,-643.5 903.76,-640 893.76,-636.5 893.76,-643.5"/>
</g>
<!-- c5&#45;&gt;c7 -->
<g id="edge31" class="edge">
<title>c5&#45;&gt;c7</title>
<path fill="none" stroke="black" d="M1089.84,-667.39C1078.19,-670.64 1063.92,-674.15 1050.86,-676 904.87,-696.73 863.2,-654.94 719.28,-687 708.11,-689.49 696.44,-693.92 686.23,-698.49"/>
<polygon fill="black" stroke="black" points="684.51,-695.43 676.95,-702.84 687.48,-701.76 684.51,-695.43"/>
</g>
<!-- c5&#45;&gt;c1 -->
<g id="edge33" class="edge">
<title>c5&#45;&gt;c1</title>
<path fill="none" stroke="black" d="M1138.49,-669.34C1149.22,-673.75 1162.21,-679.1 1173.9,-683.91"/>
<polygon fill="black" stroke="black" points="1172.76,-687.22 1183.34,-687.79 1175.42,-680.75 1172.76,-687.22"/>
</g>
<!-- c5&#45;&gt;c6 -->
<g id="edge34" class="edge">
<title>c5&#45;&gt;c6</title>
<path fill="none" stroke="black" d="M1142.06,-659.17C1168.08,-659.01 1208.81,-660.59 1242.65,-670 1251.36,-672.42 1260.33,-676.28 1268.4,-680.32"/>
<polygon fill="black" stroke="black" points="1266.91,-683.5 1277.38,-685.09 1270.19,-677.31 1266.91,-683.5"/>
</g>
<!-- c5&#45;&gt;c2 -->
<g id="edge32" class="edge">
<title>c5&#45;&gt;c2</title>
<path fill="none" stroke="black" d="M1088.51,-664.62C1048.61,-671.06 968.87,-680.52 903.07,-667 891.77,-664.68 880,-660.24 869.73,-655.62"/>
<polygon fill="black" stroke="black" points="870.95,-652.33 860.41,-651.2 867.95,-658.65 870.95,-652.33"/>
</g>
<!-- a9&#45;&gt;c2 -->
<g id="edge6" class="edge">
<title>a9&#45;&gt;c2</title>
<path fill="none" stroke="green" stroke-width="5" d="M753.86,-327.53C759.74,-346.3 768.97,-377.03 775.17,-404 796.01,-494.58 770.54,-526.41 811.17,-610 812.47,-612.66 814.06,-615.25 815.83,-617.73"/>
<polygon fill="green" stroke="green" stroke-width="5" points="812.59,-620.68 822.3,-625.66 819.37,-615.15 812.59,-620.68"/>
</g>
<!-- a8 -->
<g id="node37" class="node">
<title>a8</title>
<ellipse fill="none" stroke="black" cx="1114.81" cy="-235" rx="27" ry="18"/>
<text text-anchor="middle" x="1114.81" y="-231.3" font-family="Times,serif" font-size="14.00">a8</text>
</g>
<!-- a9&#45;&gt;a8 -->
<g id="edge46" class="edge">
<title>a9&#45;&gt;a8</title>
<path fill="none" stroke="black" d="M774.46,-309.81C827.87,-308.71 952.49,-302.54 1050.86,-270 1063.29,-265.89 1076.08,-259.29 1086.86,-252.92"/>
<polygon fill="black" stroke="black" points="1088.69,-255.9 1095.38,-247.69 1085.03,-249.93 1088.69,-255.9"/>
</g>
<!-- a8&#45;&gt;a7 -->
<g id="edge51" class="edge">
<title>a8&#45;&gt;a7</title>
<path fill="none" stroke="black" d="M1091.27,-225.88C1057.33,-213 990.79,-191 932.02,-191 471.79,-191 471.79,-191 471.79,-191 418.49,-191 404.13,-188.61 352.29,-201 331.27,-206.02 308.76,-215.12 291.37,-223.04"/>
<polygon fill="black" stroke="black" points="289.85,-219.88 282.27,-227.28 292.81,-226.23 289.85,-219.88"/>
</g>
<!-- a10&#45;&gt;a8 -->
<g id="edge57" class="edge">
<title>a10&#45;&gt;a8</title>
<path fill="none" stroke="black" d="M1050.88,-240.6C1059.28,-239.85 1068.69,-239.02 1077.61,-238.22"/>
<polygon fill="black" stroke="black" points="1078.13,-241.69 1087.78,-237.32 1077.51,-234.72 1078.13,-241.69"/>
</g>
</g>
</svg>
