<?xml version="1.0" encoding="UTF-8" standalone="no"?>
<!DOCTYPE svg PUBLIC "-//W3C//DTD SVG 1.1//EN"
 "http://www.w3.org/Graphics/SVG/1.1/DTD/svg11.dtd">
<!-- Generated by graphviz version 2.43.0 (0)
 -->
<!-- Title: collapsed Pages: 1 -->
<svg width="1168pt" height="428pt"
 viewBox="0.00 0.00 1167.56 428.00" xmlns="http://www.w3.org/2000/svg" xmlns:xlink="http://www.w3.org/1999/xlink">
<g id="graph0" class="graph" transform="scale(1 1) rotate(0) translate(4 424)">
<title>collapsed</title>
<polygon fill="white" stroke="transparent" points="-4,4 -4,-424 1163.56,-424 1163.56,4 -4,4"/>
<!-- a2 -->
<g id="node1" class="node">
<title>a2</title>
<ellipse fill="none" stroke="black" cx="129.29" cy="-70" rx="27" ry="18"/>
<text text-anchor="middle" x="129.29" y="-66.3" font-family="Times,serif" font-size="14.00">a2</text>
</g>
<!-- c1 -->
<g id="node31" class="node">
<title>c1</title>
<ellipse fill="none" stroke="black" cx="309.29" cy="-53" rx="27" ry="18"/>
<text text-anchor="middle" x="309.29" y="-49.3" font-family="Times,serif" font-size="14.00">c1</text>
</g>
<!-- a2&#45;&gt;c1 -->
<g id="edge48" class="edge">
<title>a2&#45;&gt;c1</title>
<path fill="none" stroke="black" d="M156.18,-67.53C186.76,-64.61 237.83,-59.73 272.27,-56.44"/>
<polygon fill="black" stroke="black" points="272.76,-59.91 282.38,-55.47 272.09,-52.94 272.76,-59.91"/>
</g>
<!-- c3 -->
<g id="node2" class="node">
<title>c3</title>
<ellipse fill="none" stroke="black" cx="489.29" cy="-122" rx="27" ry="18"/>
<text text-anchor="middle" x="489.29" y="-118.3" font-family="Times,serif" font-size="14.00">c3</text>
</g>
<!-- c4 -->
<g id="node3" class="node">
<title>c4</title>
<ellipse fill="none" stroke="black" cx="580.24" cy="-122" rx="27" ry="18"/>
<text text-anchor="middle" x="580.24" y="-118.3" font-family="Times,serif" font-size="14.00">c4</text>
</g>
<!-- c3&#45;&gt;c4 -->
<g id="edge49" class="edge">
<title>c3&#45;&gt;c4</title>
<path fill="none" stroke="black" d="M516.5,-122C524.82,-122 534.18,-122 543.08,-122"/>
<polygon fill="black" stroke="black" points="543.22,-125.5 553.22,-122 543.22,-118.5 543.22,-125.5"/>
</g>
<!-- c5 -->
<g id="node26" class="node">
<title>c5</title>
<ellipse fill="none" stroke="black" cx="672.14" cy="-76" rx="27" ry="18"/>
<text text-anchor="middle" x="672.14" y="-72.3" font-family="Times,serif" font-size="14.00">c5</text>
</g>
<!-- c4&#45;&gt;c5 -->
<g id="edge36" class="edge">
<title>c4&#45;&gt;c5</title>
<path fill="none" stroke="black" d="M602.09,-111.33C613.69,-105.39 628.34,-97.9 641.15,-91.34"/>
<polygon fill="black" stroke="black" points="642.78,-94.44 650.09,-86.77 639.59,-88.21 642.78,-94.44"/>
</g>
<!-- a12 -->
<g id="node4" class="node">
<title>a12</title>
<ellipse fill="none" stroke="black" cx="672.14" cy="-252" rx="27.9" ry="18"/>
<text text-anchor="middle" x="672.14" y="-248.3" font-family="Times,serif" font-size="14.00">a12</text>
</g>
<!-- a13 -->
<g id="node24" class="node">
<title>a13</title>
<ellipse fill="none" stroke="black" cx="764.03" cy="-260" rx="27.9" ry="18"/>
<text text-anchor="middle" x="764.03" y="-256.3" font-family="Times,serif" font-size="14.00">a13</text>
</g>
<!-- a12&#45;&gt;a13 -->
<g id="edge2" class="edge">
<title>a12&#45;&gt;a13</title>
<path fill="none" stroke="black" d="M700.11,-254.4C708.2,-255.12 717.22,-255.92 725.84,-256.69"/>
<polygon fill="black" stroke="black" points="725.81,-260.2 736.08,-257.6 726.43,-253.23 725.81,-260.2"/>
</g>
<!-- b8 -->
<g id="node5" class="node">
<title>b8</title>
<ellipse fill="none" stroke="black" cx="129.29" cy="-283" rx="27" ry="18"/>
<text text-anchor="middle" x="129.29" y="-279.3" font-family="Times,serif" font-size="14.00">b8</text>
</g>
<!-- b1 -->
<g id="node13" class="node">
<title>b1</title>
<ellipse fill="none" stroke="black" cx="219.29" cy="-260" rx="27" ry="18"/>
<text text-anchor="middle" x="219.29" y="-256.3" font-family="Times,serif" font-size="14.00">b1</text>
</g>
<!-- b8&#45;&gt;b1 -->
<g id="edge28" class="edge">
<title>b8&#45;&gt;b1</title>
<path fill="none" stroke="black" d="M150.7,-271.86C160.02,-268.6 171.33,-265.36 182.01,-262.83"/>
<polygon fill="black" stroke="black" points="182.96,-266.2 191.98,-260.64 181.46,-259.36 182.96,-266.2"/>
</g>
<!-- a17 -->
<g id="node17" class="node">
<title>a17</title>
<ellipse fill="none" stroke="black" cx="855.93" cy="-268" rx="27.9" ry="18"/>
<text text-anchor="middle" x="855.93" y="-264.3" font-family="Times,serif" font-size="14.00">a17</text>
</g>
<!-- b8&#45;&gt;a17 -->
<g id="edge29" class="edge">
<title>b8&#45;&gt;a17</title>
<path fill="none" stroke="black" d="M144.93,-298.04C173.53,-325.73 240.05,-382 308.29,-382 308.29,-382 308.29,-382 673.14,-382 740.73,-382 803.84,-324.73 834.85,-291.37"/>
<polygon fill="black" stroke="black" points="837.55,-293.61 841.68,-283.85 832.37,-288.9 837.55,-293.61"/>
</g>
<!-- start -->
<g id="node6" class="node">
<title>start</title>
<ellipse fill="none" stroke="black" cx="33.15" cy="-166" rx="33.29" ry="18"/>
<text text-anchor="middle" x="33.15" y="-162.3" font-family="Times,serif" font-size="14.00">start</text>
</g>
<!-- start&#45;&gt;a2 -->
<g id="edge15" class="edge">
<title>start&#45;&gt;a2</title>
<path fill="none" stroke="black" d="M49.69,-150.15C65.23,-134.3 89.25,-109.81 106.65,-92.07"/>
<polygon fill="black" stroke="black" points="109.15,-94.52 113.65,-84.93 104.15,-89.62 109.15,-94.52"/>
</g>
<!-- a3 -->
<g id="node7" class="node">
<title>a3</title>
<ellipse fill="none" stroke="black" cx="129.29" cy="-214" rx="27" ry="18"/>
<text text-anchor="middle" x="129.29" y="-210.3" font-family="Times,serif" font-size="14.00">a3</text>
</g>
<!-- start&#45;&gt;a3 -->
<g id="edge16" class="edge">
<title>start&#45;&gt;a3</title>
<path fill="none" stroke="black" d="M57.9,-178.11C70.18,-184.37 85.28,-192.07 98.35,-198.73"/>
<polygon fill="black" stroke="black" points="96.93,-201.94 107.43,-203.36 100.11,-195.7 96.93,-201.94"/>
</g>
<!-- a3&#45;&gt;b1 -->
<g id="edge5" class="edge">
<title>a3&#45;&gt;b1</title>
<path fill="none" stroke="black" d="M151.15,-224.9C162.33,-230.74 176.29,-238.04 188.59,-244.47"/>
<polygon fill="black" stroke="black" points="187.11,-247.65 197.59,-249.18 190.35,-241.44 187.11,-247.65"/>
</g>
<!-- a4 -->
<g id="node21" class="node">
<title>a4</title>
<ellipse fill="none" stroke="black" cx="219.29" cy="-168" rx="27" ry="18"/>
<text text-anchor="middle" x="219.29" y="-164.3" font-family="Times,serif" font-size="14.00">a4</text>
</g>
<!-- a3&#45;&gt;a4 -->
<g id="edge4" class="edge">
<title>a3&#45;&gt;a4</title>
<path fill="none" stroke="black" d="M151.15,-203.1C162.33,-197.26 176.29,-189.96 188.59,-183.53"/>
<polygon fill="black" stroke="black" points="190.35,-186.56 197.59,-178.82 187.11,-180.35 190.35,-186.56"/>
</g>
<!-- a7 -->
<g id="node8" class="node">
<title>a7</title>
<ellipse fill="none" stroke="black" cx="489.29" cy="-252" rx="27" ry="18"/>
<text text-anchor="middle" x="489.29" y="-248.3" font-family="Times,serif" font-size="14.00">a7</text>
</g>
<!-- a7&#45;&gt;a3 -->
<g id="edge34" class="edge">
<title>a7&#45;&gt;a3</title>
<path fill="none" stroke="black" d="M462.77,-248.55C432.6,-244.54 380.84,-237.84 336.29,-233 276.84,-226.54 207.58,-220.45 166.42,-216.98"/>
<polygon fill="black" stroke="black" points="166.59,-213.48 156.34,-216.13 166.01,-220.45 166.59,-213.48"/>
</g>
<!-- a11 -->
<g id="node16" class="node">
<title>a11</title>
<ellipse fill="none" stroke="black" cx="580.24" cy="-252" rx="27.9" ry="18"/>
<text text-anchor="middle" x="580.24" y="-248.3" font-family="Times,serif" font-size="14.00">a11</text>
</g>
<!-- a7&#45;&gt;a11 -->
<g id="edge33" class="edge">
<title>a7&#45;&gt;a11</title>
<path fill="none" stroke="black" d="M516.5,-252C524.44,-252 533.33,-252 541.85,-252"/>
<polygon fill="black" stroke="black" points="541.99,-255.5 551.99,-252 541.99,-248.5 541.99,-255.5"/>
</g>
<!-- a14 -->
<g id="node22" class="node">
<title>a14</title>
<ellipse fill="none" stroke="black" cx="580.24" cy="-306" rx="27.9" ry="18"/>
<text text-anchor="middle" x="580.24" y="-302.3" font-family="Times,serif" font-size="14.00">a14</text>
</g>
<!-- a7&#45;&gt;a14 -->
<g id="edge32" class="edge">
<title>a7&#45;&gt;a14</title>
<path fill="none" stroke="black" d="M510.03,-263.98C521.93,-271.2 537.28,-280.53 550.5,-288.55"/>
<polygon fill="black" stroke="black" points="548.88,-291.66 559.25,-293.86 552.52,-285.68 548.88,-291.66"/>
</g>
<!-- a10 -->
<g id="node9" class="node">
<title>a10</title>
<ellipse fill="none" stroke="black" cx="855.93" cy="-214" rx="27.9" ry="18"/>
<text text-anchor="middle" x="855.93" y="-210.3" font-family="Times,serif" font-size="14.00">a10</text>
</g>
<!-- a8 -->
<g id="node23" class="node">
<title>a8</title>
<ellipse fill="none" stroke="black" cx="399.29" cy="-168" rx="27" ry="18"/>
<text text-anchor="middle" x="399.29" y="-164.3" font-family="Times,serif" font-size="14.00">a8</text>
</g>
<!-- a10&#45;&gt;a8 -->
<g id="edge45" class="edge">
<title>a10&#45;&gt;a8</title>
<path fill="none" stroke="black" d="M827.84,-212.06C792.33,-209.7 728.11,-206 673.14,-206 579.24,-206 579.24,-206 579.24,-206 527.35,-206 468.81,-190.52 433.24,-179.32"/>
<polygon fill="black" stroke="black" points="434,-175.89 423.41,-176.15 431.85,-182.55 434,-175.89"/>
</g>
<!-- a16 -->
<g id="node10" class="node">
<title>a16</title>
<ellipse fill="none" stroke="black" cx="947.82" cy="-268" rx="27.9" ry="18"/>
<text text-anchor="middle" x="947.82" y="-264.3" font-family="Times,serif" font-size="14.00">a16</text>
</g>
<!-- a18 -->
<g id="node25" class="node">
<title>a18</title>
<ellipse fill="none" stroke="black" cx="1039.72" cy="-222" rx="27.9" ry="18"/>
<text text-anchor="middle" x="1039.72" y="-218.3" font-family="Times,serif" font-size="14.00">a18</text>
</g>
<!-- a16&#45;&gt;a18 -->
<g id="edge19" class="edge">
<title>a16&#45;&gt;a18</title>
<path fill="none" stroke="black" d="M970.13,-257.1C981.46,-251.3 995.6,-244.06 1008.1,-237.67"/>
<polygon fill="black" stroke="black" points="1009.95,-240.65 1017.25,-232.98 1006.76,-234.42 1009.95,-240.65"/>
</g>
<!-- a19 -->
<g id="node29" class="node">
<title>a19</title>
<ellipse fill="none" stroke="black" cx="1039.72" cy="-276" rx="27.9" ry="18"/>
<text text-anchor="middle" x="1039.72" y="-272.3" font-family="Times,serif" font-size="14.00">a19</text>
</g>
<!-- a16&#45;&gt;a19 -->
<g id="edge20" class="edge">
<title>a16&#45;&gt;a19</title>
<path fill="none" stroke="black" d="M975.79,-270.4C983.88,-271.12 992.9,-271.92 1001.53,-272.69"/>
<polygon fill="black" stroke="black" points="1001.49,-276.2 1011.76,-273.6 1002.11,-269.23 1001.49,-276.2"/>
</g>
<!-- c2 -->
<g id="node11" class="node">
<title>c2</title>
<ellipse fill="none" stroke="black" cx="399.29" cy="-114" rx="27" ry="18"/>
<text text-anchor="middle" x="399.29" y="-110.3" font-family="Times,serif" font-size="14.00">c2</text>
</g>
<!-- c2&#45;&gt;c3 -->
<g id="edge10" class="edge">
<title>c2&#45;&gt;c3</title>
<path fill="none" stroke="black" d="M426.22,-116.36C434.38,-117.1 443.55,-117.93 452.28,-118.73"/>
<polygon fill="black" stroke="black" points="451.97,-122.21 462.25,-119.63 452.61,-115.24 451.97,-122.21"/>
</g>
<!-- a5 -->
<g id="node12" class="node">
<title>a5</title>
<ellipse fill="none" stroke="black" cx="309.29" cy="-114" rx="27" ry="18"/>
<text text-anchor="middle" x="309.29" y="-110.3" font-family="Times,serif" font-size="14.00">a5</text>
</g>
<!-- a6 -->
<g id="node15" class="node">
<title>a6</title>
<ellipse fill="none" stroke="black" cx="33.15" cy="-262" rx="27" ry="18"/>
<text text-anchor="middle" x="33.15" y="-258.3" font-family="Times,serif" font-size="14.00">a6</text>
</g>
<!-- a5&#45;&gt;a6 -->
<g id="edge18" class="edge">
<title>a5&#45;&gt;a6</title>
<path fill="none" stroke="black" d="M282.89,-118.07C259.04,-122.32 222.59,-129.92 192.29,-141 150.1,-156.43 137.98,-159.71 102.29,-187 83.19,-201.61 65.06,-222 52.31,-237.83"/>
<polygon fill="black" stroke="black" points="49.24,-236.07 45.81,-246.09 54.74,-240.4 49.24,-236.07"/>
</g>
<!-- b1&#45;&gt;b8 -->
<g id="edge40" class="edge">
<title>b1&#45;&gt;b8</title>
<path fill="none" stroke="black" d="M197.78,-271.17C188.5,-274.42 177.25,-277.64 166.62,-280.16"/>
<polygon fill="black" stroke="black" points="165.71,-276.78 156.7,-282.34 167.22,-283.62 165.71,-276.78"/>
</g>
<!-- b6 -->
<g id="node30" class="node">
<title>b6</title>
<ellipse fill="none" stroke="black" cx="309.29" cy="-314" rx="27" ry="18"/>
<text text-anchor="middle" x="309.29" y="-310.3" font-family="Times,serif" font-size="14.00">b6</text>
</g>
<!-- b1&#45;&gt;b6 -->
<g id="edge41" class="edge">
<title>b1&#45;&gt;b6</title>
<path fill="none" stroke="black" d="M239.82,-271.98C251.67,-279.26 266.99,-288.66 280.14,-296.72"/>
<polygon fill="black" stroke="black" points="278.46,-299.8 288.82,-302.05 282.13,-293.84 278.46,-299.8"/>
</g>
<!-- b4 -->
<g id="node33" class="node">
<title>b4</title>
<ellipse fill="none" stroke="black" cx="309.29" cy="-260" rx="27" ry="18"/>
<text text-anchor="middle" x="309.29" y="-256.3" font-family="Times,serif" font-size="14.00">b4</text>
</g>
<!-- b1&#45;&gt;b4 -->
<g id="edge39" class="edge">
<title>b1&#45;&gt;b4</title>
<path fill="none" stroke="black" d="M246.7,-260C254.69,-260 263.6,-260 272.12,-260"/>
<polygon fill="black" stroke="black" points="272.21,-263.5 282.21,-260 272.21,-256.5 272.21,-263.5"/>
</g>
<!-- end -->
<g id="node14" class="node">
<title>end</title>
<ellipse fill="none" stroke="black" cx="1131.61" cy="-222" rx="27.9" ry="18"/>
<text text-anchor="middle" x="1131.61" y="-218.3" font-family="Times,serif" font-size="14.00">end</text>
</g>
<!-- a6&#45;&gt;a3 -->
<g id="edge42" class="edge">
<title>a6&#45;&gt;a3</title>
<path fill="none" stroke="black" d="M55.04,-251.35C67.72,-244.88 84.11,-236.53 98.17,-229.36"/>
<polygon fill="black" stroke="black" points="100.14,-232.28 107.46,-224.62 96.96,-226.05 100.14,-232.28"/>
</g>
<!-- a6&#45;&gt;a14 -->
<g id="edge43" class="edge">
<title>a6&#45;&gt;a14</title>
<path fill="none" stroke="black" d="M43.22,-278.91C66.45,-319.67 132.36,-420 218.29,-420 218.29,-420 218.29,-420 400.29,-420 467.13,-420 529.12,-362.73 559.56,-329.37"/>
<polygon fill="black" stroke="black" points="562.22,-331.65 566.26,-321.85 556.99,-326.99 562.22,-331.65"/>
</g>
<!-- a6&#45;&gt;b6 -->
<g id="edge44" class="edge">
<title>a6&#45;&gt;b6</title>
<path fill="none" stroke="black" d="M49.18,-276.61C62.09,-288.1 81.81,-303.26 102.29,-310 159.62,-328.86 230.85,-324.6 272.76,-319.5"/>
<polygon fill="black" stroke="black" points="273.3,-322.96 282.76,-318.2 272.4,-316.02 273.3,-322.96"/>
</g>
<!-- a11&#45;&gt;a12 -->
<g id="edge1" class="edge">
<title>a11&#45;&gt;a12</title>
<path fill="none" stroke="black" d="M608.21,-252C616.3,-252 625.32,-252 633.95,-252"/>
<polygon fill="black" stroke="black" points="634.18,-255.5 644.18,-252 634.18,-248.5 634.18,-255.5"/>
</g>
<!-- a17&#45;&gt;a16 -->
<g id="edge22" class="edge">
<title>a17&#45;&gt;a16</title>
<path fill="none" stroke="black" d="M883.9,-268C891.99,-268 901.01,-268 909.63,-268"/>
<polygon fill="black" stroke="black" points="909.87,-271.5 919.87,-268 909.87,-264.5 909.87,-271.5"/>
</g>
<!-- a17&#45;&gt;a18 -->
<g id="edge21" class="edge">
<title>a17&#45;&gt;a18</title>
<path fill="none" stroke="black" d="M878.58,-257.14C890.5,-251.56 905.71,-245.1 919.87,-241 946.8,-233.2 978.14,-228.36 1001.87,-225.52"/>
<polygon fill="black" stroke="black" points="1002.33,-228.99 1011.87,-224.38 1001.54,-222.03 1002.33,-228.99"/>
</g>
<!-- a15 -->
<g id="node18" class="node">
<title>a15</title>
<ellipse fill="none" stroke="black" cx="672.14" cy="-306" rx="27.9" ry="18"/>
<text text-anchor="middle" x="672.14" y="-302.3" font-family="Times,serif" font-size="14.00">a15</text>
</g>
<!-- a15&#45;&gt;a13 -->
<g id="edge17" class="edge">
<title>a15&#45;&gt;a13</title>
<path fill="none" stroke="black" d="M694.44,-295.1C705.78,-289.3 719.92,-282.06 732.41,-275.67"/>
<polygon fill="black" stroke="black" points="734.26,-278.65 741.57,-270.98 731.07,-272.42 734.26,-278.65"/>
</g>
<!-- c6 -->
<g id="node19" class="node">
<title>c6</title>
<ellipse fill="none" stroke="black" cx="764.03" cy="-53" rx="27" ry="18"/>
<text text-anchor="middle" x="764.03" y="-49.3" font-family="Times,serif" font-size="14.00">c6</text>
</g>
<!-- c7 -->
<g id="node32" class="node">
<title>c7</title>
<ellipse fill="none" stroke="black" cx="855.93" cy="-99" rx="27" ry="18"/>
<text text-anchor="middle" x="855.93" y="-95.3" font-family="Times,serif" font-size="14.00">c7</text>
</g>
<!-- c6&#45;&gt;c7 -->
<g id="edge3" class="edge">
<title>c6&#45;&gt;c7</title>
<path fill="none" stroke="black" d="M785.88,-63.67C797.48,-69.61 812.13,-77.1 824.94,-83.66"/>
<polygon fill="black" stroke="black" points="823.38,-86.79 833.88,-88.23 826.57,-80.56 823.38,-86.79"/>
</g>
<!-- c8 -->
<g id="node20" class="node">
<title>c8</title>
<ellipse fill="none" stroke="black" cx="947.82" cy="-168" rx="27" ry="18"/>
<text text-anchor="middle" x="947.82" y="-164.3" font-family="Times,serif" font-size="14.00">c8</text>
</g>
<!-- c8&#45;&gt;c2 -->
<g id="edge11" class="edge">
<title>c8&#45;&gt;c2</title>
<path fill="none" stroke="black" d="M920.63,-168C885.3,-168 820.42,-168 765.03,-168 579.24,-168 579.24,-168 579.24,-168 526.58,-168 511.98,-166.44 462.29,-149 450.3,-144.79 437.93,-138.31 427.43,-132.07"/>
<polygon fill="black" stroke="black" points="429.08,-128.98 418.74,-126.71 425.41,-134.93 429.08,-128.98"/>
</g>
<!-- c8&#45;&gt;a18 -->
<g id="edge12" class="edge">
<title>c8&#45;&gt;a18</title>
<path fill="none" stroke="black" d="M968.33,-179.72C980.41,-186.98 996.15,-196.43 1009.68,-204.56"/>
<polygon fill="black" stroke="black" points="1008.25,-207.78 1018.63,-209.93 1011.86,-201.78 1008.25,-207.78"/>
</g>
<!-- c9 -->
<g id="node27" class="node">
<title>c9</title>
<ellipse fill="none" stroke="black" cx="1039.72" cy="-168" rx="27" ry="18"/>
<text text-anchor="middle" x="1039.72" y="-164.3" font-family="Times,serif" font-size="14.00">c9</text>
</g>
<!-- c8&#45;&gt;c9 -->
<g id="edge13" class="edge">
<title>c8&#45;&gt;c9</title>
<path fill="none" stroke="black" d="M974.82,-168C983.41,-168 993.13,-168 1002.35,-168"/>
<polygon fill="black" stroke="black" points="1002.46,-171.5 1012.46,-168 1002.46,-164.5 1002.46,-171.5"/>
</g>
<!-- a4&#45;&gt;a5 -->
<g id="edge38" class="edge">
<title>a4&#45;&gt;a5</title>
<path fill="none" stroke="black" d="M239.82,-156.02C251.67,-148.74 266.99,-139.34 280.14,-131.28"/>
<polygon fill="black" stroke="black" points="282.13,-134.16 288.82,-125.95 278.46,-128.2 282.13,-134.16"/>
</g>
<!-- a9 -->
<g id="node28" class="node">
<title>a9</title>
<ellipse fill="none" stroke="black" cx="309.29" cy="-168" rx="27" ry="18"/>
<text text-anchor="middle" x="309.29" y="-164.3" font-family="Times,serif" font-size="14.00">a9</text>
</g>
<!-- a4&#45;&gt;a9 -->
<g id="edge37" class="edge">
<title>a4&#45;&gt;a9</title>
<path fill="none" stroke="black" d="M246.7,-168C254.69,-168 263.6,-168 272.12,-168"/>
<polygon fill="black" stroke="black" points="272.21,-171.5 282.21,-168 272.21,-164.5 272.21,-171.5"/>
</g>
<!-- a14&#45;&gt;a15 -->
<g id="edge26" class="edge">
<title>a14&#45;&gt;a15</title>
<path fill="none" stroke="black" d="M608.21,-306C616.3,-306 625.32,-306 633.95,-306"/>
<polygon fill="black" stroke="black" points="634.18,-309.5 644.18,-306 634.18,-302.5 634.18,-309.5"/>
</g>
<!-- a8&#45;&gt;a7 -->
<g id="edge35" class="edge">
<title>a8&#45;&gt;a7</title>
<path fill="none" stroke="black" d="M415.62,-182.63C429.5,-195.88 450.13,-215.57 465.86,-230.59"/>
<polygon fill="black" stroke="black" points="463.49,-233.16 473.14,-237.54 468.32,-228.1 463.49,-233.16"/>
</g>
<!-- a13&#45;&gt;a10 -->
<g id="edge46" class="edge">
<title>a13&#45;&gt;a10</title>
<path fill="none" stroke="black" d="M786.34,-249.1C797.67,-243.3 811.81,-236.06 824.31,-229.67"/>
<polygon fill="black" stroke="black" points="826.16,-232.65 833.46,-224.98 822.97,-226.42 826.16,-232.65"/>
</g>
<!-- a13&#45;&gt;a17 -->
<g id="edge47" class="edge">
<title>a13&#45;&gt;a17</title>
<path fill="none" stroke="black" d="M792,-262.4C800.09,-263.12 809.11,-263.92 817.74,-264.69"/>
<polygon fill="black" stroke="black" points="817.7,-268.2 827.97,-265.6 818.32,-261.23 817.7,-268.2"/>
</g>
<!-- a18&#45;&gt;end -->
<g id="edge14" class="edge">
<title>a18&#45;&gt;end</title>
<path fill="none" stroke="black" d="M1067.69,-222C1075.78,-222 1084.8,-222 1093.42,-222"/>
<polygon fill="black" stroke="black" points="1093.66,-225.5 1103.66,-222 1093.66,-218.5 1093.66,-225.5"/>
</g>
<!-- c5&#45;&gt;c2 -->
<g id="edge6" class="edge">
<title>c5&#45;&gt;c2</title>
<path fill="none" stroke="black" d="M644.84,-76.65C605.01,-78.03 527.13,-82.26 462.29,-95 452.72,-96.88 442.53,-99.67 433.22,-102.53"/>
<polygon fill="black" stroke="black" points="432.01,-99.24 423.56,-105.62 434.15,-105.91 432.01,-99.24"/>
</g>
<!-- c5&#45;&gt;c6 -->
<g id="edge8" class="edge">
<title>c5&#45;&gt;c6</title>
<path fill="none" stroke="black" d="M697.7,-69.72C707.21,-67.28 718.27,-64.45 728.56,-61.82"/>
<polygon fill="black" stroke="black" points="729.68,-65.15 738.5,-59.28 727.94,-58.37 729.68,-65.15"/>
</g>
<!-- c5&#45;&gt;c1 -->
<g id="edge7" class="edge">
<title>c5&#45;&gt;c1</title>
<path fill="none" stroke="black" d="M644.94,-74.33C581.37,-70.28 418.88,-59.92 346.28,-55.29"/>
<polygon fill="black" stroke="black" points="346.45,-51.8 336.25,-54.65 346,-58.78 346.45,-51.8"/>
</g>
<!-- c5&#45;&gt;c7 -->
<g id="edge9" class="edge">
<title>c5&#45;&gt;c7</title>
<path fill="none" stroke="black" d="M698.8,-79.25C730.24,-83.22 783.7,-89.99 819.17,-94.48"/>
<polygon fill="black" stroke="black" points="818.74,-97.95 829.1,-95.73 819.62,-91.01 818.74,-97.95"/>
</g>
<!-- a9&#45;&gt;c2 -->
<g id="edge25" class="edge">
<title>a9&#45;&gt;c2</title>
<path fill="none" stroke="black" d="M329.82,-156.02C341.67,-148.74 356.99,-139.34 370.14,-131.28"/>
<polygon fill="black" stroke="black" points="372.13,-134.16 378.82,-125.95 368.46,-128.2 372.13,-134.16"/>
</g>
<!-- a9&#45;&gt;a8 -->
<g id="edge24" class="edge">
<title>a9&#45;&gt;a8</title>
<path fill="none" stroke="black" d="M336.7,-168C344.69,-168 353.6,-168 362.12,-168"/>
<polygon fill="black" stroke="black" points="362.21,-171.5 372.21,-168 362.21,-164.5 362.21,-171.5"/>
</g>
<!-- b6&#45;&gt;b8 -->
<g id="edge27" class="edge">
<title>b6&#45;&gt;b8</title>
<path fill="none" stroke="black" d="M282.84,-309.57C252.19,-304.23 200.55,-295.23 165.95,-289.21"/>
<polygon fill="black" stroke="black" points="166.25,-285.71 155.8,-287.44 165.05,-292.61 166.25,-285.71"/>
</g>
<!-- c1&#45;&gt;c2 -->
<g id="edge30" class="edge">
<title>c1&#45;&gt;c2</title>
<path fill="none" stroke="black" d="M328.53,-65.64C340.95,-74.25 357.61,-85.8 371.53,-95.45"/>
<polygon fill="black" stroke="black" points="369.57,-98.35 379.78,-101.17 373.56,-92.59 369.57,-98.35"/>
</g>
<!-- c1&#45;&gt;c6 -->
<g id="edge31" class="edge">
<title>c1&#45;&gt;c6</title>
<path fill="none" stroke="black" d="M331.34,-42.4C364.04,-26.94 429.45,0 488.29,0 488.29,0 488.29,0 581.24,0 636.23,0 696.97,-22.63 732.47,-38.31"/>
<polygon fill="black" stroke="black" points="731.24,-41.6 741.79,-42.53 734.12,-35.22 731.24,-41.6"/>
</g>
<!-- c7&#45;&gt;c8 -->
<g id="edge23" class="edge">
<title>c7&#45;&gt;c8</title>
<path fill="none" stroke="black" d="M874.26,-112.3C887.69,-122.61 906.49,-137.05 921.59,-148.63"/>
<polygon fill="black" stroke="black" points="919.48,-151.42 929.54,-154.74 923.74,-145.87 919.48,-151.42"/>
</g>
</g>
</svg>
