<?xml version="1.0" encoding="UTF-8" standalone="no"?>
<!DOCTYPE svg PUBLIC "-//W3C//DTD SVG 1.1//EN"
 "http://www.w3.org/Graphics/SVG/1.1/DTD/svg11.dtd">
<!-- Generated by graphviz version 2.43.0 (0)
 -->
<!-- Title: G Pages: 1 -->
<svg width="275pt" height="836pt"
 viewBox="0.00 0.00 275.47 836.00" xmlns="http://www.w3.org/2000/svg" xmlns:xlink="http://www.w3.org/1999/xlink">
<g id="graph0" class="graph" transform="scale(1 1) rotate(0) translate(4 832)">
<title>G</title>
<polygon fill="white" stroke="transparent" points="-4,4 -4,-832 271.47,-832 271.47,4 -4,4"/>
<!-- start -->
<g id="node1" class="node">
<title>start</title>
<ellipse fill="none" stroke="black" cx="111" cy="-810" rx="33.29" ry="18"/>
<text text-anchor="middle" x="111" y="-806.3" font-family="Times,serif" font-size="14.00">start</text>
</g>
<!-- a0 -->
<g id="node2" class="node">
<title>a0</title>
<ellipse fill="none" stroke="black" cx="139" cy="-738" rx="27" ry="18"/>
<text text-anchor="middle" x="139" y="-734.3" font-family="Times,serif" font-size="14.00">a0</text>
</g>
<!-- start&#45;&gt;a0 -->
<g id="edge1" class="edge">
<title>start&#45;&gt;a0</title>
<path fill="none" stroke="black" d="M117.78,-792.05C121.01,-783.97 124.95,-774.12 128.56,-765.11"/>
<polygon fill="black" stroke="black" points="131.82,-766.37 132.28,-755.79 125.32,-763.77 131.82,-766.37"/>
</g>
<!-- b0 -->
<g id="node3" class="node">
<title>b0</title>
<ellipse fill="none" stroke="black" cx="93" cy="-450" rx="27" ry="18"/>
<text text-anchor="middle" x="93" y="-446.3" font-family="Times,serif" font-size="14.00">b0</text>
</g>
<!-- start&#45;&gt;b0 -->
<g id="edge2" class="edge">
<title>start&#45;&gt;b0</title>
<path fill="none" stroke="black" d="M105.67,-792.15C97.8,-765.75 84,-712.92 84,-667 84,-667 84,-667 84,-593 84,-552.92 87.62,-506.59 90.26,-478.05"/>
<polygon fill="black" stroke="black" points="93.75,-478.31 91.22,-468.03 86.79,-477.65 93.75,-478.31"/>
</g>
<!-- a1 -->
<g id="node4" class="node">
<title>a1</title>
<ellipse fill="none" stroke="black" cx="139" cy="-666" rx="27" ry="18"/>
<text text-anchor="middle" x="139" y="-662.3" font-family="Times,serif" font-size="14.00">a1</text>
</g>
<!-- a0&#45;&gt;a1 -->
<g id="edge3" class="edge">
<title>a0&#45;&gt;a1</title>
<path fill="none" stroke="black" d="M139,-719.7C139,-711.98 139,-702.71 139,-694.11"/>
<polygon fill="black" stroke="black" points="142.5,-694.1 139,-684.1 135.5,-694.1 142.5,-694.1"/>
</g>
<!-- b1 -->
<g id="node11" class="node">
<title>b1</title>
<ellipse fill="none" stroke="black" cx="138" cy="-234" rx="27" ry="18"/>
<text text-anchor="middle" x="138" y="-230.3" font-family="Times,serif" font-size="14.00">b1</text>
</g>
<!-- b0&#45;&gt;b1 -->
<g id="edge10" class="edge">
<title>b0&#45;&gt;b1</title>
<path fill="none" stroke="black" d="M96.61,-431.85C104.43,-394.66 122.99,-306.37 132.37,-261.77"/>
<polygon fill="black" stroke="black" points="135.81,-262.44 134.44,-251.94 128.96,-261 135.81,-262.44"/>
</g>
<!-- n1 -->
<g id="node14" class="node">
<title>n1</title>
<ellipse fill="none" stroke="black" cx="165" cy="-378" rx="27" ry="18"/>
<text text-anchor="middle" x="165" y="-374.3" font-family="Times,serif" font-size="14.00">n1</text>
</g>
<!-- b0&#45;&gt;n1 -->
<g id="edge21" class="edge">
<title>b0&#45;&gt;n1</title>
<path fill="none" stroke="black" d="M107.57,-434.83C117.75,-424.94 131.52,-411.55 143.03,-400.36"/>
<polygon fill="black" stroke="black" points="145.47,-402.87 150.2,-393.38 140.59,-397.85 145.47,-402.87"/>
</g>
<!-- ll -->
<g id="node16" class="node">
<title>ll</title>
<ellipse fill="none" stroke="black" cx="55" cy="-378" rx="27" ry="18"/>
<text text-anchor="middle" x="55" y="-374.3" font-family="Times,serif" font-size="14.00">ll</text>
</g>
<!-- b0&#45;&gt;ll -->
<g id="edge22" class="edge">
<title>b0&#45;&gt;ll</title>
<path fill="none" stroke="black" d="M84.19,-432.76C79.58,-424.28 73.84,-413.71 68.68,-404.2"/>
<polygon fill="black" stroke="black" points="71.61,-402.27 63.77,-395.15 65.46,-405.61 71.61,-402.27"/>
</g>
<!-- a2 -->
<g id="node5" class="node">
<title>a2</title>
<ellipse fill="none" stroke="black" cx="211" cy="-594" rx="27" ry="18"/>
<text text-anchor="middle" x="211" y="-590.3" font-family="Times,serif" font-size="14.00">a2</text>
</g>
<!-- a1&#45;&gt;a2 -->
<g id="edge4" class="edge">
<title>a1&#45;&gt;a2</title>
<path fill="none" stroke="black" d="M153.57,-650.83C163.75,-640.94 177.52,-627.55 189.03,-616.36"/>
<polygon fill="black" stroke="black" points="191.47,-618.87 196.2,-609.38 186.59,-613.85 191.47,-618.87"/>
</g>
<!-- b3 -->
<g id="node6" class="node">
<title>b3</title>
<ellipse fill="none" stroke="black" cx="174" cy="-90" rx="27" ry="18"/>
<text text-anchor="middle" x="174" y="-86.3" font-family="Times,serif" font-size="14.00">b3</text>
</g>
<!-- a1&#45;&gt;b3 -->
<g id="edge5" class="edge">
<title>a1&#45;&gt;b3</title>
<path fill="none" stroke="black" d="M164.5,-659.35C189.4,-652.47 226.45,-638.35 247,-612 271.88,-580.11 266,-563.45 266,-523 266,-523 266,-523 266,-233 266,-183 225.33,-136.72 198.08,-111.31"/>
<polygon fill="black" stroke="black" points="200.21,-108.53 190.45,-104.42 195.52,-113.72 200.21,-108.53"/>
</g>
<!-- n0 -->
<g id="node13" class="node">
<title>n0</title>
<ellipse fill="none" stroke="black" cx="139" cy="-594" rx="27" ry="18"/>
<text text-anchor="middle" x="139" y="-590.3" font-family="Times,serif" font-size="14.00">n0</text>
</g>
<!-- a1&#45;&gt;n0 -->
<g id="edge15" class="edge">
<title>a1&#45;&gt;n0</title>
<path fill="none" stroke="black" d="M139,-647.7C139,-639.98 139,-630.71 139,-622.11"/>
<polygon fill="black" stroke="black" points="142.5,-622.1 139,-612.1 135.5,-622.1 142.5,-622.1"/>
</g>
<!-- aa2 -->
<g id="node7" class="node">
<title>aa2</title>
<ellipse fill="none" stroke="black" cx="211" cy="-522" rx="27.1" ry="18"/>
<text text-anchor="middle" x="211" y="-518.3" font-family="Times,serif" font-size="14.00">aa2</text>
</g>
<!-- a2&#45;&gt;aa2 -->
<g id="edge6" class="edge">
<title>a2&#45;&gt;aa2</title>
<path fill="none" stroke="black" d="M211,-575.7C211,-567.98 211,-558.71 211,-550.11"/>
<polygon fill="black" stroke="black" points="214.5,-550.1 211,-540.1 207.5,-550.1 214.5,-550.1"/>
</g>
<!-- a2&#45;&gt;n1 -->
<g id="edge16" class="edge">
<title>a2&#45;&gt;n1</title>
<path fill="none" stroke="black" d="M197.55,-577.97C189.46,-567.96 179.82,-554.1 175,-540 159.62,-495 160.24,-438.86 162.41,-406.16"/>
<polygon fill="black" stroke="black" points="165.91,-406.26 163.18,-396.02 158.93,-405.72 165.91,-406.26"/>
</g>
<!-- end -->
<g id="node10" class="node">
<title>end</title>
<ellipse fill="none" stroke="black" cx="138" cy="-18" rx="27.9" ry="18"/>
<text text-anchor="middle" x="138" y="-14.3" font-family="Times,serif" font-size="14.00">end</text>
</g>
<!-- b3&#45;&gt;end -->
<g id="edge14" class="edge">
<title>b3&#45;&gt;end</title>
<path fill="none" stroke="black" d="M165.65,-72.76C161.35,-64.4 156.01,-54.02 151.17,-44.61"/>
<polygon fill="black" stroke="black" points="154.24,-42.93 146.55,-35.63 148.02,-46.13 154.24,-42.93"/>
</g>
<!-- n3 -->
<g id="node8" class="node">
<title>n3</title>
<ellipse fill="none" stroke="black" cx="211" cy="-450" rx="27" ry="18"/>
<text text-anchor="middle" x="211" y="-446.3" font-family="Times,serif" font-size="14.00">n3</text>
</g>
<!-- aa2&#45;&gt;n3 -->
<g id="edge7" class="edge">
<title>aa2&#45;&gt;n3</title>
<path fill="none" stroke="black" d="M211,-503.7C211,-495.98 211,-486.71 211,-478.11"/>
<polygon fill="black" stroke="black" points="214.5,-478.1 211,-468.1 207.5,-478.1 214.5,-478.1"/>
</g>
<!-- n3&#45;&gt;n1 -->
<g id="edge19" class="edge">
<title>n3&#45;&gt;n1</title>
<path fill="none" stroke="black" d="M200.56,-433.12C194.8,-424.34 187.52,-413.26 181.04,-403.42"/>
<polygon fill="black" stroke="black" points="183.81,-401.26 175.4,-394.82 177.96,-405.1 183.81,-401.26"/>
</g>
<!-- a3 -->
<g id="node9" class="node">
<title>a3</title>
<ellipse fill="none" stroke="black" cx="102" cy="-90" rx="27" ry="18"/>
<text text-anchor="middle" x="102" y="-86.3" font-family="Times,serif" font-size="14.00">a3</text>
</g>
<!-- a3&#45;&gt;a1 -->
<g id="edge8" class="edge">
<title>a3&#45;&gt;a1</title>
<path fill="none" stroke="black" d="M84.23,-103.66C55.01,-126.1 0,-175.94 0,-233 0,-523 0,-523 0,-523 0,-584.45 67.3,-629.13 108.24,-650.63"/>
<polygon fill="black" stroke="black" points="106.78,-653.82 117.28,-655.23 109.95,-647.58 106.78,-653.82"/>
</g>
<!-- a3&#45;&gt;end -->
<g id="edge9" class="edge">
<title>a3&#45;&gt;end</title>
<path fill="none" stroke="black" d="M110.35,-72.76C114.65,-64.4 119.99,-54.02 124.83,-44.61"/>
<polygon fill="black" stroke="black" points="127.98,-46.13 129.45,-35.63 121.76,-42.93 127.98,-46.13"/>
</g>
<!-- b2 -->
<g id="node12" class="node">
<title>b2</title>
<ellipse fill="none" stroke="black" cx="138" cy="-162" rx="27" ry="18"/>
<text text-anchor="middle" x="138" y="-158.3" font-family="Times,serif" font-size="14.00">b2</text>
</g>
<!-- b1&#45;&gt;b2 -->
<g id="edge11" class="edge">
<title>b1&#45;&gt;b2</title>
<path fill="none" stroke="black" d="M138,-215.7C138,-207.98 138,-198.71 138,-190.11"/>
<polygon fill="black" stroke="black" points="141.5,-190.1 138,-180.1 134.5,-190.1 141.5,-190.1"/>
</g>
<!-- b2&#45;&gt;b3 -->
<g id="edge13" class="edge">
<title>b2&#45;&gt;b3</title>
<path fill="none" stroke="black" d="M146.35,-144.76C150.71,-136.28 156.15,-125.71 161.04,-116.2"/>
<polygon fill="black" stroke="black" points="164.23,-117.64 165.7,-107.15 158.01,-114.44 164.23,-117.64"/>
</g>
<!-- b2&#45;&gt;a3 -->
<g id="edge12" class="edge">
<title>b2&#45;&gt;a3</title>
<path fill="none" stroke="black" d="M129.65,-144.76C125.29,-136.28 119.85,-125.71 114.96,-116.2"/>
<polygon fill="black" stroke="black" points="117.99,-114.44 110.3,-107.15 111.77,-117.64 117.99,-114.44"/>
</g>
<!-- n2 -->
<g id="node15" class="node">
<title>n2</title>
<ellipse fill="none" stroke="black" cx="165" cy="-306" rx="27" ry="18"/>
<text text-anchor="middle" x="165" y="-302.3" font-family="Times,serif" font-size="14.00">n2</text>
</g>
<!-- n1&#45;&gt;n2 -->
<g id="edge17" class="edge">
<title>n1&#45;&gt;n2</title>
<path fill="none" stroke="black" d="M165,-359.7C165,-351.98 165,-342.71 165,-334.11"/>
<polygon fill="black" stroke="black" points="168.5,-334.1 165,-324.1 161.5,-334.1 168.5,-334.1"/>
</g>
<!-- n2&#45;&gt;n3 -->
<g id="edge18" class="edge">
<title>n2&#45;&gt;n3</title>
<path fill="none" stroke="black" d="M178.21,-322.11C186.21,-332.15 195.83,-346.02 201,-360 208.32,-379.78 210.69,-403.58 211.3,-421.59"/>
<polygon fill="black" stroke="black" points="207.8,-421.77 211.48,-431.71 214.8,-421.65 207.8,-421.77"/>
</g>
<!-- n2&#45;&gt;b1 -->
<g id="edge20" class="edge">
<title>n2&#45;&gt;b1</title>
<path fill="none" stroke="black" d="M158.6,-288.41C155.49,-280.34 151.67,-270.43 148.17,-261.35"/>
<polygon fill="black" stroke="black" points="151.4,-260.03 144.54,-251.96 144.87,-262.55 151.4,-260.03"/>
</g>
</g>
</svg>
