<?xml version="1.0" encoding="UTF-8" standalone="no"?>
<!DOCTYPE svg PUBLIC "-//W3C//DTD SVG 1.1//EN"
 "http://www.w3.org/Graphics/SVG/1.1/DTD/svg11.dtd">
<!-- Generated by graphviz version 2.43.0 (0)
 -->
<!-- Title: G Pages: 1 -->
<svg width="216pt" height="836pt"
 viewBox="0.00 0.00 215.95 836.00" xmlns="http://www.w3.org/2000/svg" xmlns:xlink="http://www.w3.org/1999/xlink">
<g id="graph0" class="graph" transform="scale(1 1) rotate(0) translate(4 832)">
<title>G</title>
<polygon fill="white" stroke="transparent" points="-4,4 -4,-832 211.95,-832 211.95,4 -4,4"/>
<!-- a1 -->
<g id="node1" class="node">
<title>a1</title>
<ellipse fill="none" stroke="black" cx="118" cy="-810" rx="27" ry="18"/>
<text text-anchor="middle" x="118" y="-806.3" font-family="Times,serif" font-size="14.00">a1</text>
</g>
<!-- a2 -->
<g id="node2" class="node">
<title>a2</title>
<ellipse fill="none" stroke="black" cx="82" cy="-738" rx="27" ry="18"/>
<text text-anchor="middle" x="82" y="-734.3" font-family="Times,serif" font-size="14.00">a2</text>
</g>
<!-- a1&#45;&gt;a2 -->
<g id="edge1" class="edge">
<title>a1&#45;&gt;a2</title>
<path fill="none" stroke="black" d="M109.65,-792.76C105.29,-784.28 99.85,-773.71 94.96,-764.2"/>
<polygon fill="black" stroke="black" points="97.99,-762.44 90.3,-755.15 91.77,-765.64 97.99,-762.44"/>
</g>
<!-- a3 -->
<g id="node3" class="node">
<title>a3</title>
<ellipse fill="none" stroke="black" cx="154" cy="-738" rx="27" ry="18"/>
<text text-anchor="middle" x="154" y="-734.3" font-family="Times,serif" font-size="14.00">a3</text>
</g>
<!-- a1&#45;&gt;a3 -->
<g id="edge2" class="edge">
<title>a1&#45;&gt;a3</title>
<path fill="none" stroke="black" d="M126.35,-792.76C130.71,-784.28 136.15,-773.71 141.04,-764.2"/>
<polygon fill="black" stroke="black" points="144.23,-765.64 145.7,-755.15 138.01,-762.44 144.23,-765.64"/>
</g>
<!-- a4 -->
<g id="node4" class="node">
<title>a4</title>
<ellipse fill="none" stroke="black" cx="99" cy="-666" rx="27" ry="18"/>
<text text-anchor="middle" x="99" y="-662.3" font-family="Times,serif" font-size="14.00">a4</text>
</g>
<!-- a3&#45;&gt;a4 -->
<g id="edge3" class="edge">
<title>a3&#45;&gt;a4</title>
<path fill="none" stroke="black" d="M142.07,-721.81C134.79,-712.55 125.34,-700.52 117.15,-690.09"/>
<polygon fill="black" stroke="black" points="119.84,-687.86 110.91,-682.16 114.34,-692.18 119.84,-687.86"/>
</g>
<!-- a9 -->
<g id="node5" class="node">
<title>a9</title>
<ellipse fill="none" stroke="black" cx="27" cy="-594" rx="27" ry="18"/>
<text text-anchor="middle" x="27" y="-590.3" font-family="Times,serif" font-size="14.00">a9</text>
</g>
<!-- a4&#45;&gt;a9 -->
<g id="edge4" class="edge">
<title>a4&#45;&gt;a9</title>
<path fill="none" stroke="black" d="M84.43,-650.83C74.25,-640.94 60.48,-627.55 48.97,-616.36"/>
<polygon fill="black" stroke="black" points="51.41,-613.85 41.8,-609.38 46.53,-618.87 51.41,-613.85"/>
</g>
<!-- a5 -->
<g id="node6" class="node">
<title>a5</title>
<ellipse fill="none" stroke="black" cx="99" cy="-594" rx="27" ry="18"/>
<text text-anchor="middle" x="99" y="-590.3" font-family="Times,serif" font-size="14.00">a5</text>
</g>
<!-- a4&#45;&gt;a5 -->
<g id="edge5" class="edge">
<title>a4&#45;&gt;a5</title>
<path fill="none" stroke="black" d="M99,-647.7C99,-639.98 99,-630.71 99,-622.11"/>
<polygon fill="black" stroke="black" points="102.5,-622.1 99,-612.1 95.5,-622.1 102.5,-622.1"/>
</g>
<!-- a8 -->
<g id="node11" class="node">
<title>a8</title>
<ellipse fill="none" stroke="black" cx="46" cy="-522" rx="27" ry="18"/>
<text text-anchor="middle" x="46" y="-518.3" font-family="Times,serif" font-size="14.00">a8</text>
</g>
<!-- a9&#45;&gt;a8 -->
<g id="edge12" class="edge">
<title>a9&#45;&gt;a8</title>
<path fill="none" stroke="black" d="M31.6,-576.05C33.75,-568.14 36.35,-558.54 38.76,-549.69"/>
<polygon fill="black" stroke="black" points="42.2,-550.36 41.44,-539.79 35.45,-548.52 42.2,-550.36"/>
</g>
<!-- a6 -->
<g id="node7" class="node">
<title>a6</title>
<ellipse fill="none" stroke="black" cx="118" cy="-522" rx="27" ry="18"/>
<text text-anchor="middle" x="118" y="-518.3" font-family="Times,serif" font-size="14.00">a6</text>
</g>
<!-- a5&#45;&gt;a6 -->
<g id="edge6" class="edge">
<title>a5&#45;&gt;a6</title>
<path fill="none" stroke="black" d="M103.6,-576.05C105.75,-568.14 108.35,-558.54 110.76,-549.69"/>
<polygon fill="black" stroke="black" points="114.2,-550.36 113.44,-539.79 107.45,-548.52 114.2,-550.36"/>
</g>
<!-- a6&#45;&gt;a3 -->
<g id="edge7" class="edge">
<title>a6&#45;&gt;a3</title>
<path fill="none" stroke="black" d="M124.36,-539.96C127.99,-550.25 132.33,-563.72 135,-576 145.09,-622.46 150.14,-677.7 152.4,-709.91"/>
<polygon fill="black" stroke="black" points="148.91,-710.16 153.07,-719.9 155.9,-709.69 148.91,-710.16"/>
</g>
<!-- a7 -->
<g id="node8" class="node">
<title>a7</title>
<ellipse fill="none" stroke="black" cx="143" cy="-450" rx="27" ry="18"/>
<text text-anchor="middle" x="143" y="-446.3" font-family="Times,serif" font-size="14.00">a7</text>
</g>
<!-- a7&#45;&gt;a3 -->
<g id="edge8" class="edge">
<title>a7&#45;&gt;a3</title>
<path fill="none" stroke="black" d="M147.19,-468.08C149.56,-478.41 152.37,-491.89 154,-504 158.52,-537.63 167.37,-632.16 163,-684 162.28,-692.5 160.93,-701.69 159.49,-709.99"/>
<polygon fill="black" stroke="black" points="156.03,-709.44 157.65,-719.91 162.91,-710.71 156.03,-709.44"/>
</g>
<!-- a14 -->
<g id="node9" class="node">
<title>a14</title>
<ellipse fill="none" stroke="black" cx="180" cy="-378" rx="27.9" ry="18"/>
<text text-anchor="middle" x="180" y="-374.3" font-family="Times,serif" font-size="14.00">a14</text>
</g>
<!-- a7&#45;&gt;a14 -->
<g id="edge9" class="edge">
<title>a7&#45;&gt;a14</title>
<path fill="none" stroke="black" d="M151.58,-432.76C156.06,-424.28 161.65,-413.71 166.68,-404.2"/>
<polygon fill="black" stroke="black" points="169.89,-405.62 171.46,-395.15 163.7,-402.35 169.89,-405.62"/>
</g>
<!-- a11 -->
<g id="node10" class="node">
<title>a11</title>
<ellipse fill="none" stroke="black" cx="106" cy="-378" rx="27.9" ry="18"/>
<text text-anchor="middle" x="106" y="-374.3" font-family="Times,serif" font-size="14.00">a11</text>
</g>
<!-- a7&#45;&gt;a11 -->
<g id="edge10" class="edge">
<title>a7&#45;&gt;a11</title>
<path fill="none" stroke="black" d="M134.42,-432.76C129.94,-424.28 124.35,-413.71 119.32,-404.2"/>
<polygon fill="black" stroke="black" points="122.3,-402.35 114.54,-395.15 116.11,-405.62 122.3,-402.35"/>
</g>
<!-- a15 -->
<g id="node16" class="node">
<title>a15</title>
<ellipse fill="none" stroke="black" cx="180" cy="-306" rx="27.9" ry="18"/>
<text text-anchor="middle" x="180" y="-302.3" font-family="Times,serif" font-size="14.00">a15</text>
</g>
<!-- a14&#45;&gt;a15 -->
<g id="edge18" class="edge">
<title>a14&#45;&gt;a15</title>
<path fill="none" stroke="black" d="M180,-359.7C180,-351.98 180,-342.71 180,-334.11"/>
<polygon fill="black" stroke="black" points="183.5,-334.1 180,-324.1 176.5,-334.1 183.5,-334.1"/>
</g>
<!-- a12 -->
<g id="node13" class="node">
<title>a12</title>
<ellipse fill="none" stroke="black" cx="106" cy="-306" rx="27.9" ry="18"/>
<text text-anchor="middle" x="106" y="-302.3" font-family="Times,serif" font-size="14.00">a12</text>
</g>
<!-- a11&#45;&gt;a12 -->
<g id="edge14" class="edge">
<title>a11&#45;&gt;a12</title>
<path fill="none" stroke="black" d="M106,-359.7C106,-351.98 106,-342.71 106,-334.11"/>
<polygon fill="black" stroke="black" points="109.5,-334.1 106,-324.1 102.5,-334.1 109.5,-334.1"/>
</g>
<!-- a8&#45;&gt;a7 -->
<g id="edge11" class="edge">
<title>a8&#45;&gt;a7</title>
<path fill="none" stroke="black" d="M63.79,-508.16C78.7,-497.41 100.17,-481.91 117,-469.76"/>
<polygon fill="black" stroke="black" points="119.26,-472.45 125.32,-463.76 115.16,-466.77 119.26,-472.45"/>
</g>
<!-- a10 -->
<g id="node12" class="node">
<title>a10</title>
<ellipse fill="none" stroke="black" cx="46" cy="-162" rx="27.9" ry="18"/>
<text text-anchor="middle" x="46" y="-158.3" font-family="Times,serif" font-size="14.00">a10</text>
</g>
<!-- a10&#45;&gt;a8 -->
<g id="edge13" class="edge">
<title>a10&#45;&gt;a8</title>
<path fill="none" stroke="black" d="M46,-180.05C46,-206.71 46,-259.89 46,-305 46,-379 46,-379 46,-379 46,-419 46,-465.35 46,-493.92"/>
<polygon fill="black" stroke="black" points="42.5,-493.95 46,-503.95 49.5,-493.95 42.5,-493.95"/>
</g>
<!-- a13 -->
<g id="node14" class="node">
<title>a13</title>
<ellipse fill="none" stroke="black" cx="111" cy="-234" rx="27.9" ry="18"/>
<text text-anchor="middle" x="111" y="-230.3" font-family="Times,serif" font-size="14.00">a13</text>
</g>
<!-- a12&#45;&gt;a13 -->
<g id="edge15" class="edge">
<title>a12&#45;&gt;a13</title>
<path fill="none" stroke="black" d="M107.24,-287.7C107.79,-279.98 108.45,-270.71 109.06,-262.11"/>
<polygon fill="black" stroke="black" points="112.56,-262.33 109.78,-252.1 105.57,-261.83 112.56,-262.33"/>
</g>
<!-- a13&#45;&gt;a10 -->
<g id="edge16" class="edge">
<title>a13&#45;&gt;a10</title>
<path fill="none" stroke="black" d="M97.22,-218.15C88.34,-208.6 76.64,-195.99 66.66,-185.25"/>
<polygon fill="black" stroke="black" points="69.13,-182.77 59.76,-177.82 64,-187.53 69.13,-182.77"/>
</g>
<!-- a17 -->
<g id="node15" class="node">
<title>a17</title>
<ellipse fill="none" stroke="black" cx="120" cy="-162" rx="27.9" ry="18"/>
<text text-anchor="middle" x="120" y="-158.3" font-family="Times,serif" font-size="14.00">a17</text>
</g>
<!-- a13&#45;&gt;a17 -->
<g id="edge17" class="edge">
<title>a13&#45;&gt;a17</title>
<path fill="none" stroke="black" d="M113.22,-215.7C114.22,-207.98 115.41,-198.71 116.51,-190.11"/>
<polygon fill="black" stroke="black" points="120,-190.47 117.8,-180.1 113.05,-189.58 120,-190.47"/>
</g>
<!-- a16 -->
<g id="node17" class="node">
<title>a16</title>
<ellipse fill="none" stroke="black" cx="92" cy="-90" rx="27.9" ry="18"/>
<text text-anchor="middle" x="92" y="-86.3" font-family="Times,serif" font-size="14.00">a16</text>
</g>
<!-- a17&#45;&gt;a16 -->
<g id="edge22" class="edge">
<title>a17&#45;&gt;a16</title>
<path fill="none" stroke="black" d="M113.36,-144.41C110.13,-136.34 106.17,-126.43 102.54,-117.35"/>
<polygon fill="black" stroke="black" points="105.75,-115.94 98.78,-107.96 99.25,-118.54 105.75,-115.94"/>
</g>
<!-- a18 -->
<g id="node18" class="node">
<title>a18</title>
<ellipse fill="none" stroke="black" cx="120" cy="-18" rx="27.9" ry="18"/>
<text text-anchor="middle" x="120" y="-14.3" font-family="Times,serif" font-size="14.00">a18</text>
</g>
<!-- a17&#45;&gt;a18 -->
<g id="edge21" class="edge">
<title>a17&#45;&gt;a18</title>
<path fill="none" stroke="black" d="M123.65,-143.91C125.68,-133.57 127.98,-120.09 129,-108 130.34,-92.06 130.34,-87.94 129,-72 128.28,-63.5 126.93,-54.31 125.49,-46.01"/>
<polygon fill="black" stroke="black" points="128.91,-45.29 123.65,-36.09 122.03,-46.56 128.91,-45.29"/>
</g>
<!-- a15&#45;&gt;a13 -->
<g id="edge19" class="edge">
<title>a15&#45;&gt;a13</title>
<path fill="none" stroke="black" d="M165.7,-290.5C156.08,-280.73 143.22,-267.69 132.39,-256.7"/>
<polygon fill="black" stroke="black" points="134.79,-254.15 125.28,-249.49 129.81,-259.06 134.79,-254.15"/>
</g>
<!-- a16&#45;&gt;a18 -->
<g id="edge20" class="edge">
<title>a16&#45;&gt;a18</title>
<path fill="none" stroke="black" d="M98.64,-72.41C101.87,-64.34 105.83,-54.43 109.46,-45.35"/>
<polygon fill="black" stroke="black" points="112.75,-46.54 113.22,-35.96 106.25,-43.94 112.75,-46.54"/>
</g>
</g>
</svg>
