<?xml version="1.0" encoding="UTF-8" standalone="no"?>
<!DOCTYPE svg PUBLIC "-//W3C//DTD SVG 1.1//EN"
 "http://www.w3.org/Graphics/SVG/1.1/DTD/svg11.dtd">
<!-- Generated by graphviz version 2.43.0 (0)
 -->
<!-- Title: print Pages: 1 -->
<svg width="1063pt" height="158pt"
 viewBox="0.00 0.00 1063.37 158.00" xmlns="http://www.w3.org/2000/svg" xmlns:xlink="http://www.w3.org/1999/xlink">
<g id="graph0" class="graph" transform="scale(1 1) rotate(0) translate(4 154)">
<title>print</title>
<polygon fill="white" stroke="transparent" points="-4,4 -4,-154 1059.37,-154 1059.37,4 -4,4"/>
<!-- a2 -->
<g id="node1" class="node">
<title>a2</title>
<ellipse fill="none" stroke="black" cx="117" cy="-109" rx="27" ry="18"/>
<text text-anchor="middle" x="117" y="-105.3" font-family="Times,serif" font-size="14.00">a2</text>
</g>
<!-- a15 -->
<g id="node2" class="node">
<title>a15</title>
<ellipse fill="none" stroke="black" cx="659.84" cy="-72" rx="27.9" ry="18"/>
<text text-anchor="middle" x="659.84" y="-68.3" font-family="Times,serif" font-size="14.00">a15</text>
</g>
<!-- a13 -->
<g id="node17" class="node">
<title>a13</title>
<ellipse fill="none" stroke="black" cx="751.74" cy="-70" rx="27.9" ry="18"/>
<text text-anchor="middle" x="751.74" y="-66.3" font-family="Times,serif" font-size="14.00">a13</text>
</g>
<!-- a15&#45;&gt;a13 -->
<g id="edge2" class="edge">
<title>a15&#45;&gt;a13</title>
<path fill="none" stroke="black" d="M687.81,-71.4C695.9,-71.22 704.92,-71.02 713.55,-70.83"/>
<polygon fill="black" stroke="black" points="713.87,-74.32 723.79,-70.6 713.71,-67.32 713.87,-74.32"/>
</g>
<!-- a14 -->
<g id="node3" class="node">
<title>a14</title>
<ellipse fill="none" stroke="black" cx="567.95" cy="-72" rx="27.9" ry="18"/>
<text text-anchor="middle" x="567.95" y="-68.3" font-family="Times,serif" font-size="14.00">a14</text>
</g>
<!-- a14&#45;&gt;a15 -->
<g id="edge21" class="edge">
<title>a14&#45;&gt;a15</title>
<path fill="none" stroke="black" d="M595.92,-72C604.01,-72 613.03,-72 621.65,-72"/>
<polygon fill="black" stroke="black" points="621.89,-75.5 631.89,-72 621.89,-68.5 621.89,-75.5"/>
</g>
<!-- a12 -->
<g id="node4" class="node">
<title>a12</title>
<ellipse fill="none" stroke="black" cx="659.84" cy="-18" rx="27.9" ry="18"/>
<text text-anchor="middle" x="659.84" y="-14.3" font-family="Times,serif" font-size="14.00">a12</text>
</g>
<!-- a12&#45;&gt;a13 -->
<g id="edge10" class="edge">
<title>a12&#45;&gt;a13</title>
<path fill="none" stroke="black" d="M681.24,-29.8C693.19,-36.71 708.49,-45.56 721.69,-53.19"/>
<polygon fill="black" stroke="black" points="720.01,-56.27 730.42,-58.25 723.52,-50.21 720.01,-56.27"/>
</g>
<!-- a3 -->
<g id="node5" class="node">
<title>a3</title>
<ellipse fill="none" stroke="black" cx="117" cy="-55" rx="27" ry="18"/>
<text text-anchor="middle" x="117" y="-51.3" font-family="Times,serif" font-size="14.00">a3</text>
</g>
<!-- a4 -->
<g id="node6" class="node">
<title>a4</title>
<ellipse fill="none" stroke="black" cx="207" cy="-78" rx="27" ry="18"/>
<text text-anchor="middle" x="207" y="-74.3" font-family="Times,serif" font-size="14.00">a4</text>
</g>
<!-- a3&#45;&gt;a4 -->
<g id="edge1" class="edge">
<title>a3&#45;&gt;a4</title>
<path fill="none" stroke="black" d="M142.51,-61.41C151.57,-63.77 162.01,-66.5 171.78,-69.05"/>
<polygon fill="black" stroke="black" points="171.06,-72.49 181.62,-71.63 172.83,-65.71 171.06,-72.49"/>
</g>
<!-- a5 -->
<g id="node7" class="node">
<title>a5</title>
<ellipse fill="none" stroke="black" cx="297" cy="-78" rx="27" ry="18"/>
<text text-anchor="middle" x="297" y="-74.3" font-family="Times,serif" font-size="14.00">a5</text>
</g>
<!-- a4&#45;&gt;a5 -->
<g id="edge7" class="edge">
<title>a4&#45;&gt;a5</title>
<path fill="none" stroke="black" d="M234.4,-78C242.39,-78 251.31,-78 259.82,-78"/>
<polygon fill="black" stroke="black" points="259.92,-81.5 269.92,-78 259.92,-74.5 259.92,-81.5"/>
</g>
<!-- a9 -->
<g id="node11" class="node">
<title>a9</title>
<ellipse fill="none" stroke="black" cx="297" cy="-132" rx="27" ry="18"/>
<text text-anchor="middle" x="297" y="-128.3" font-family="Times,serif" font-size="14.00">a9</text>
</g>
<!-- a4&#45;&gt;a9 -->
<g id="edge6" class="edge">
<title>a4&#45;&gt;a9</title>
<path fill="none" stroke="black" d="M227.53,-89.98C239.38,-97.26 254.7,-106.66 267.84,-114.72"/>
<polygon fill="black" stroke="black" points="266.17,-117.8 276.52,-120.05 269.83,-111.84 266.17,-117.8"/>
</g>
<!-- a6 -->
<g id="node8" class="node">
<title>a6</title>
<ellipse fill="none" stroke="black" cx="27" cy="-55" rx="27" ry="18"/>
<text text-anchor="middle" x="27" y="-51.3" font-family="Times,serif" font-size="14.00">a6</text>
</g>
<!-- a6&#45;&gt;a3 -->
<g id="edge13" class="edge">
<title>a6&#45;&gt;a3</title>
<path fill="none" stroke="black" d="M54.4,-55C62.39,-55 71.31,-55 79.82,-55"/>
<polygon fill="black" stroke="black" points="79.92,-58.5 89.92,-55 79.92,-51.5 79.92,-58.5"/>
</g>
<!-- a18 -->
<g id="node9" class="node">
<title>a18</title>
<ellipse fill="none" stroke="black" cx="1027.42" cy="-66" rx="27.9" ry="18"/>
<text text-anchor="middle" x="1027.42" y="-62.3" font-family="Times,serif" font-size="14.00">a18</text>
</g>
<!-- a1 -->
<g id="node10" class="node">
<title>a1</title>
<ellipse fill="none" stroke="black" cx="27" cy="-109" rx="27" ry="18"/>
<text text-anchor="middle" x="27" y="-105.3" font-family="Times,serif" font-size="14.00">a1</text>
</g>
<!-- a1&#45;&gt;a2 -->
<g id="edge11" class="edge">
<title>a1&#45;&gt;a2</title>
<path fill="none" stroke="black" d="M54.4,-109C62.39,-109 71.31,-109 79.82,-109"/>
<polygon fill="black" stroke="black" points="79.92,-112.5 89.92,-109 79.92,-105.5 79.92,-112.5"/>
</g>
<!-- a1&#45;&gt;a3 -->
<g id="edge12" class="edge">
<title>a1&#45;&gt;a3</title>
<path fill="none" stroke="black" d="M47.53,-97.02C59.38,-89.74 74.7,-80.34 87.84,-72.28"/>
<polygon fill="black" stroke="black" points="89.83,-75.16 96.52,-66.95 86.17,-69.2 89.83,-75.16"/>
</g>
<!-- a8 -->
<g id="node13" class="node">
<title>a8</title>
<ellipse fill="none" stroke="black" cx="387" cy="-120" rx="27" ry="18"/>
<text text-anchor="middle" x="387" y="-116.3" font-family="Times,serif" font-size="14.00">a8</text>
</g>
<!-- a9&#45;&gt;a8 -->
<g id="edge8" class="edge">
<title>a9&#45;&gt;a8</title>
<path fill="none" stroke="black" d="M323.93,-128.46C332.16,-127.34 341.42,-126.08 350.22,-124.88"/>
<polygon fill="black" stroke="black" points="350.82,-128.33 360.26,-123.51 349.88,-121.39 350.82,-128.33"/>
</g>
<!-- a7 -->
<g id="node12" class="node">
<title>a7</title>
<ellipse fill="none" stroke="black" cx="477" cy="-59" rx="27" ry="18"/>
<text text-anchor="middle" x="477" y="-55.3" font-family="Times,serif" font-size="14.00">a7</text>
</g>
<!-- a7&#45;&gt;a14 -->
<g id="edge15" class="edge">
<title>a7&#45;&gt;a14</title>
<path fill="none" stroke="black" d="M503.73,-62.76C511.99,-63.97 521.3,-65.33 530.2,-66.63"/>
<polygon fill="black" stroke="black" points="529.95,-70.13 540.35,-68.11 530.96,-63.2 529.95,-70.13"/>
</g>
<!-- a7&#45;&gt;a3 -->
<g id="edge14" class="edge">
<title>a7&#45;&gt;a3</title>
<path fill="none" stroke="black" d="M449.93,-57.21C419.66,-55.23 368.25,-52.16 324,-51 260.02,-49.32 243.97,-48.94 180,-51 171.57,-51.27 162.5,-51.75 153.98,-52.28"/>
<polygon fill="black" stroke="black" points="153.67,-48.8 143.92,-52.95 154.13,-55.78 153.67,-48.8"/>
</g>
<!-- a11 -->
<g id="node15" class="node">
<title>a11</title>
<ellipse fill="none" stroke="black" cx="567.95" cy="-18" rx="27.9" ry="18"/>
<text text-anchor="middle" x="567.95" y="-14.3" font-family="Times,serif" font-size="14.00">a11</text>
</g>
<!-- a7&#45;&gt;a11 -->
<g id="edge16" class="edge">
<title>a7&#45;&gt;a11</title>
<path fill="none" stroke="black" d="M499.53,-49.08C510.32,-44.1 523.6,-37.98 535.5,-32.49"/>
<polygon fill="black" stroke="black" points="537.07,-35.63 544.69,-28.26 534.14,-29.27 537.07,-35.63"/>
</g>
<!-- a8&#45;&gt;a7 -->
<g id="edge18" class="edge">
<title>a8&#45;&gt;a7</title>
<path fill="none" stroke="black" d="M406.23,-107.36C418.66,-98.75 435.31,-87.2 449.23,-77.55"/>
<polygon fill="black" stroke="black" points="451.26,-80.41 457.49,-71.83 447.27,-74.65 451.26,-80.41"/>
</g>
<!-- a16 -->
<g id="node14" class="node">
<title>a16</title>
<ellipse fill="none" stroke="black" cx="935.53" cy="-43" rx="27.9" ry="18"/>
<text text-anchor="middle" x="935.53" y="-39.3" font-family="Times,serif" font-size="14.00">a16</text>
</g>
<!-- a16&#45;&gt;a18 -->
<g id="edge3" class="edge">
<title>a16&#45;&gt;a18</title>
<path fill="none" stroke="black" d="M962.05,-49.53C971.14,-51.86 981.54,-54.52 991.3,-57.01"/>
<polygon fill="black" stroke="black" points="990.59,-60.45 1001.15,-59.53 992.33,-53.66 990.59,-60.45"/>
</g>
<!-- a11&#45;&gt;a12 -->
<g id="edge9" class="edge">
<title>a11&#45;&gt;a12</title>
<path fill="none" stroke="black" d="M595.92,-18C604.01,-18 613.03,-18 621.65,-18"/>
<polygon fill="black" stroke="black" points="621.89,-21.5 631.89,-18 621.89,-14.5 621.89,-21.5"/>
</g>
<!-- a10 -->
<g id="node16" class="node">
<title>a10</title>
<ellipse fill="none" stroke="black" cx="843.63" cy="-120" rx="27.9" ry="18"/>
<text text-anchor="middle" x="843.63" y="-116.3" font-family="Times,serif" font-size="14.00">a10</text>
</g>
<!-- a10&#45;&gt;a8 -->
<g id="edge17" class="edge">
<title>a10&#45;&gt;a8</title>
<path fill="none" stroke="black" d="M815.53,-120C780.01,-120 715.76,-120 660.84,-120 566.95,-120 566.95,-120 566.95,-120 517.46,-120 460.28,-120 424.14,-120"/>
<polygon fill="black" stroke="black" points="424.08,-116.5 414.08,-120 424.08,-123.5 424.08,-116.5"/>
</g>
<!-- a13&#45;&gt;a10 -->
<g id="edge19" class="edge">
<title>a13&#45;&gt;a10</title>
<path fill="none" stroke="black" d="M773.59,-81.6C785.27,-88.1 800.05,-96.31 812.92,-103.48"/>
<polygon fill="black" stroke="black" points="811.46,-106.66 821.9,-108.47 814.86,-100.55 811.46,-106.66"/>
</g>
<!-- a17 -->
<g id="node18" class="node">
<title>a17</title>
<ellipse fill="none" stroke="black" cx="843.63" cy="-66" rx="27.9" ry="18"/>
<text text-anchor="middle" x="843.63" y="-62.3" font-family="Times,serif" font-size="14.00">a17</text>
</g>
<!-- a13&#45;&gt;a17 -->
<g id="edge20" class="edge">
<title>a13&#45;&gt;a17</title>
<path fill="none" stroke="black" d="M779.71,-68.8C787.8,-68.44 796.82,-68.04 805.44,-67.65"/>
<polygon fill="black" stroke="black" points="805.85,-71.14 815.68,-67.2 805.53,-64.15 805.85,-71.14"/>
</g>
<!-- a17&#45;&gt;a18 -->
<g id="edge4" class="edge">
<title>a17&#45;&gt;a18</title>
<path fill="none" stroke="black" d="M871.57,-68.09C882.71,-68.85 895.76,-69.62 907.58,-70 932.41,-70.79 938.65,-70.79 963.48,-70 971.88,-69.73 980.9,-69.27 989.42,-68.74"/>
<polygon fill="black" stroke="black" points="989.73,-72.23 999.48,-68.09 989.28,-65.25 989.73,-72.23"/>
</g>
<!-- a17&#45;&gt;a16 -->
<g id="edge5" class="edge">
<title>a17&#45;&gt;a16</title>
<path fill="none" stroke="black" d="M870.15,-59.47C879.24,-57.14 889.65,-54.48 899.41,-51.99"/>
<polygon fill="black" stroke="black" points="900.43,-55.34 909.26,-49.47 898.7,-48.55 900.43,-55.34"/>
</g>
</g>
</svg>
