<?xml version="1.0" encoding="UTF-8" standalone="no"?>
<!DOCTYPE svg PUBLIC "-//W3C//DTD SVG 1.1//EN"
 "http://www.w3.org/Graphics/SVG/1.1/DTD/svg11.dtd">
<!-- Generated by graphviz version 2.43.0 (0)
 -->
<!-- Title: G Pages: 1 -->
<svg width="382pt" height="836pt"
 viewBox="0.00 0.00 382.00 836.00" xmlns="http://www.w3.org/2000/svg" xmlns:xlink="http://www.w3.org/1999/xlink">
<g id="graph0" class="graph" transform="scale(1 1) rotate(0) translate(4 832)">
<title>G</title>
<polygon fill="white" stroke="transparent" points="-4,4 -4,-832 378,-832 378,4 -4,4"/>
<!-- start -->
<g id="node1" class="node">
<title>start</title>
<ellipse fill="none" stroke="green" cx="119" cy="-810" rx="33.29" ry="18"/>
<text text-anchor="middle" x="119" y="-806.3" font-family="Times,serif" font-size="14.00">start</text>
</g>
<!-- a0 -->
<g id="node2" class="node">
<title>a0</title>
<ellipse fill="none" stroke="black" cx="147" cy="-738" rx="27" ry="18"/>
<text text-anchor="middle" x="147" y="-734.3" font-family="Times,serif" font-size="14.00">a0</text>
</g>
<!-- start&#45;&gt;a0 -->
<g id="edge1" class="edge">
<title>start&#45;&gt;a0</title>
<path fill="none" stroke="black" d="M125.78,-792.05C129.01,-783.97 132.95,-774.12 136.56,-765.11"/>
<polygon fill="black" stroke="black" points="139.82,-766.37 140.28,-755.79 133.32,-763.77 139.82,-766.37"/>
</g>
<!-- b0 -->
<g id="node3" class="node">
<title>b0</title>
<ellipse fill="none" stroke="black" cx="55" cy="-450" rx="27" ry="18"/>
<text text-anchor="middle" x="55" y="-446.3" font-family="Times,serif" font-size="14.00">b0</text>
</g>
<!-- start&#45;&gt;b0 -->
<g id="edge2" class="edge">
<title>start&#45;&gt;b0</title>
<path fill="none" stroke="black" d="M108.13,-792.75C92.11,-767.15 64,-715.38 64,-667 64,-667 64,-667 64,-593 64,-552.92 60.38,-506.59 57.74,-478.05"/>
<polygon fill="black" stroke="black" points="61.21,-477.65 56.78,-468.03 54.25,-478.31 61.21,-477.65"/>
</g>
<!-- a1 -->
<g id="node4" class="node">
<title>a1</title>
<ellipse fill="none" stroke="black" cx="174" cy="-666" rx="27" ry="18"/>
<text text-anchor="middle" x="174" y="-662.3" font-family="Times,serif" font-size="14.00">a1</text>
</g>
<!-- a0&#45;&gt;a1 -->
<g id="edge3" class="edge">
<title>a0&#45;&gt;a1</title>
<path fill="none" stroke="black" d="M153.4,-720.41C156.51,-712.34 160.33,-702.43 163.83,-693.35"/>
<polygon fill="black" stroke="black" points="167.13,-694.55 167.46,-683.96 160.6,-692.03 167.13,-694.55"/>
</g>
<!-- b1 -->
<g id="node12" class="node">
<title>b1</title>
<ellipse fill="none" stroke="black" cx="113" cy="-234" rx="27" ry="18"/>
<text text-anchor="middle" x="113" y="-230.3" font-family="Times,serif" font-size="14.00">b1</text>
</g>
<!-- b0&#45;&gt;b1 -->
<g id="edge13" class="edge">
<title>b0&#45;&gt;b1</title>
<path fill="none" stroke="black" d="M54.81,-431.92C55.01,-401.81 57.91,-337.78 77,-288 81,-277.56 87.41,-267.15 93.72,-258.36"/>
<polygon fill="black" stroke="black" points="96.68,-260.25 99.9,-250.16 91.09,-256.03 96.68,-260.25"/>
</g>
<!-- n1 -->
<g id="node15" class="node">
<title>n1</title>
<ellipse fill="none" stroke="black" cx="110" cy="-378" rx="27" ry="18"/>
<text text-anchor="middle" x="110" y="-374.3" font-family="Times,serif" font-size="14.00">n1</text>
</g>
<!-- b0&#45;&gt;n1 -->
<g id="edge24" class="edge">
<title>b0&#45;&gt;n1</title>
<path fill="none" stroke="black" d="M66.93,-433.81C74.21,-424.55 83.66,-412.52 91.85,-402.09"/>
<polygon fill="black" stroke="black" points="94.66,-404.18 98.09,-394.16 89.16,-399.86 94.66,-404.18"/>
</g>
<!-- a2 -->
<g id="node5" class="node">
<title>a2</title>
<ellipse fill="none" stroke="black" cx="174" cy="-594" rx="27" ry="18"/>
<text text-anchor="middle" x="174" y="-590.3" font-family="Times,serif" font-size="14.00">a2</text>
</g>
<!-- a1&#45;&gt;a2 -->
<g id="edge4" class="edge">
<title>a1&#45;&gt;a2</title>
<path fill="none" stroke="black" d="M174,-647.7C174,-639.98 174,-630.71 174,-622.11"/>
<polygon fill="black" stroke="black" points="177.5,-622.1 174,-612.1 170.5,-622.1 177.5,-622.1"/>
</g>
<!-- b3 -->
<g id="node6" class="node">
<title>b3</title>
<ellipse fill="none" stroke="black" cx="118" cy="-90" rx="27" ry="18"/>
<text text-anchor="middle" x="118" y="-86.3" font-family="Times,serif" font-size="14.00">b3</text>
</g>
<!-- a1&#45;&gt;b3 -->
<g id="edge5" class="edge">
<title>a1&#45;&gt;b3</title>
<path fill="none" stroke="black" d="M149.81,-657.85C102,-642.06 0,-599.42 0,-523 0,-523 0,-523 0,-233 0,-177 54.95,-131.31 89.85,-107.93"/>
<polygon fill="black" stroke="black" points="91.77,-110.85 98.25,-102.47 87.96,-104.99 91.77,-110.85"/>
</g>
<!-- n0 -->
<g id="node14" class="node">
<title>n0</title>
<ellipse fill="none" stroke="black" cx="347" cy="-594" rx="27" ry="18"/>
<text text-anchor="middle" x="347" y="-590.3" font-family="Times,serif" font-size="14.00">n0</text>
</g>
<!-- a1&#45;&gt;n0 -->
<g id="edge18" class="edge">
<title>a1&#45;&gt;n0</title>
<path fill="none" stroke="black" d="M196.92,-655.89C223.28,-645.39 267.82,-627.58 306,-612 308.9,-610.82 311.92,-609.58 314.94,-608.33"/>
<polygon fill="black" stroke="black" points="316.56,-611.45 324.46,-604.4 313.88,-604.98 316.56,-611.45"/>
</g>
<!-- aa2 -->
<g id="node7" class="node">
<title>aa2</title>
<ellipse fill="none" stroke="black" cx="206" cy="-522" rx="27.1" ry="18"/>
<text text-anchor="middle" x="206" y="-518.3" font-family="Times,serif" font-size="14.00">aa2</text>
</g>
<!-- a2&#45;&gt;aa2 -->
<g id="edge6" class="edge">
<title>a2&#45;&gt;aa2</title>
<path fill="none" stroke="black" d="M181.58,-576.41C185.37,-568.13 190.03,-557.92 194.27,-548.66"/>
<polygon fill="black" stroke="black" points="197.5,-550.02 198.47,-539.47 191.13,-547.11 197.5,-550.02"/>
</g>
<!-- a2&#45;&gt;n1 -->
<g id="edge19" class="edge">
<title>a2&#45;&gt;n1</title>
<path fill="none" stroke="black" d="M167.15,-576.25C157.62,-552.49 140.26,-507.48 129,-468 123.12,-447.39 118.14,-423.64 114.75,-405.86"/>
<polygon fill="black" stroke="black" points="118.17,-405.09 112.9,-395.9 111.29,-406.37 118.17,-405.09"/>
</g>
<!-- end -->
<g id="node11" class="node">
<title>end</title>
<ellipse fill="none" stroke="black" cx="154" cy="-18" rx="27.9" ry="18"/>
<text text-anchor="middle" x="154" y="-14.3" font-family="Times,serif" font-size="14.00">end</text>
</g>
<!-- b3&#45;&gt;end -->
<g id="edge17" class="edge">
<title>b3&#45;&gt;end</title>
<path fill="none" stroke="black" d="M126.35,-72.76C130.65,-64.4 135.99,-54.02 140.83,-44.61"/>
<polygon fill="black" stroke="black" points="143.98,-46.13 145.45,-35.63 137.76,-42.93 143.98,-46.13"/>
</g>
<!-- aa3 -->
<g id="node8" class="node">
<title>aa3</title>
<ellipse fill="none" stroke="black" cx="237" cy="-450" rx="27.1" ry="18"/>
<text text-anchor="middle" x="237" y="-446.3" font-family="Times,serif" font-size="14.00">aa3</text>
</g>
<!-- aa2&#45;&gt;aa3 -->
<g id="edge7" class="edge">
<title>aa2&#45;&gt;aa3</title>
<path fill="none" stroke="black" d="M207.75,-503.7C210.68,-495.07 215.18,-484.5 219.88,-475.1"/>
<polygon fill="black" stroke="black" points="223,-476.68 224.59,-466.2 216.82,-473.4 223,-476.68"/>
</g>
<!-- n3 -->
<g id="node10" class="node">
<title>n3</title>
<ellipse fill="none" stroke="black" cx="165" cy="-450" rx="27" ry="18"/>
<text text-anchor="middle" x="165" y="-446.3" font-family="Times,serif" font-size="14.00">n3</text>
</g>
<!-- aa2&#45;&gt;n3 -->
<g id="edge10" class="edge">
<title>aa2&#45;&gt;n3</title>
<path fill="none" stroke="black" d="M196.49,-504.76C191.47,-496.19 185.2,-485.49 179.58,-475.9"/>
<polygon fill="black" stroke="black" points="182.53,-474.01 174.46,-467.15 176.49,-477.55 182.53,-474.01"/>
</g>
<!-- aa3&#45;&gt;aa2 -->
<g id="edge9" class="edge">
<title>aa3&#45;&gt;aa2</title>
<path fill="none" stroke="black" d="M235.31,-468.13C232.39,-476.77 227.86,-487.4 223.14,-496.86"/>
<polygon fill="black" stroke="black" points="219.99,-495.34 218.4,-505.81 226.18,-498.61 219.99,-495.34"/>
</g>
<!-- a3 -->
<g id="node9" class="node">
<title>a3</title>
<ellipse fill="none" stroke="black" cx="200" cy="-90" rx="27" ry="18"/>
<text text-anchor="middle" x="200" y="-86.3" font-family="Times,serif" font-size="14.00">a3</text>
</g>
<!-- aa3&#45;&gt;a3 -->
<g id="edge8" class="edge">
<title>aa3&#45;&gt;a3</title>
<path fill="none" stroke="black" d="M233.64,-432.03C228.69,-405.48 220,-352.44 220,-307 220,-307 220,-307 220,-233 220,-192.6 211.96,-146.36 206.08,-117.92"/>
<polygon fill="black" stroke="black" points="209.46,-116.99 203.95,-107.94 202.61,-118.45 209.46,-116.99"/>
</g>
<!-- a3&#45;&gt;a1 -->
<g id="edge11" class="edge">
<title>a3&#45;&gt;a1</title>
<path fill="none" stroke="black" d="M216.45,-104.42C242.91,-127.62 292,-178.07 292,-233 292,-523 292,-523 292,-523 292,-579 237.05,-624.69 202.15,-648.07"/>
<polygon fill="black" stroke="black" points="200.23,-645.15 193.75,-653.53 204.04,-651.01 200.23,-645.15"/>
</g>
<!-- a3&#45;&gt;end -->
<g id="edge12" class="edge">
<title>a3&#45;&gt;end</title>
<path fill="none" stroke="black" d="M189.56,-73.12C183.8,-64.34 176.52,-53.26 170.04,-43.42"/>
<polygon fill="black" stroke="black" points="172.81,-41.26 164.4,-34.82 166.96,-45.1 172.81,-41.26"/>
</g>
<!-- n3&#45;&gt;n1 -->
<g id="edge22" class="edge">
<title>n3&#45;&gt;n1</title>
<path fill="none" stroke="black" d="M153.07,-433.81C145.79,-424.55 136.34,-412.52 128.15,-402.09"/>
<polygon fill="black" stroke="black" points="130.84,-399.86 121.91,-394.16 125.34,-404.18 130.84,-399.86"/>
</g>
<!-- b2 -->
<g id="node13" class="node">
<title>b2</title>
<ellipse fill="none" stroke="black" cx="118" cy="-162" rx="27" ry="18"/>
<text text-anchor="middle" x="118" y="-158.3" font-family="Times,serif" font-size="14.00">b2</text>
</g>
<!-- b1&#45;&gt;b2 -->
<g id="edge14" class="edge">
<title>b1&#45;&gt;b2</title>
<path fill="none" stroke="black" d="M114.24,-215.7C114.79,-207.98 115.45,-198.71 116.06,-190.11"/>
<polygon fill="black" stroke="black" points="119.56,-190.33 116.78,-180.1 112.57,-189.83 119.56,-190.33"/>
</g>
<!-- b2&#45;&gt;b3 -->
<g id="edge16" class="edge">
<title>b2&#45;&gt;b3</title>
<path fill="none" stroke="black" d="M118,-143.7C118,-135.98 118,-126.71 118,-118.11"/>
<polygon fill="black" stroke="black" points="121.5,-118.1 118,-108.1 114.5,-118.1 121.5,-118.1"/>
</g>
<!-- b2&#45;&gt;a3 -->
<g id="edge15" class="edge">
<title>b2&#45;&gt;a3</title>
<path fill="none" stroke="black" d="M134.2,-147.17C146.18,-136.94 162.69,-122.85 176.18,-111.34"/>
<polygon fill="black" stroke="black" points="178.78,-113.72 184.11,-104.56 174.23,-108.39 178.78,-113.72"/>
</g>
<!-- n2 -->
<g id="node16" class="node">
<title>n2</title>
<ellipse fill="none" stroke="black" cx="113" cy="-306" rx="27" ry="18"/>
<text text-anchor="middle" x="113" y="-302.3" font-family="Times,serif" font-size="14.00">n2</text>
</g>
<!-- n1&#45;&gt;n2 -->
<g id="edge20" class="edge">
<title>n1&#45;&gt;n2</title>
<path fill="none" stroke="black" d="M110.74,-359.7C111.07,-351.98 111.47,-342.71 111.84,-334.11"/>
<polygon fill="black" stroke="black" points="115.34,-334.25 112.27,-324.1 108.34,-333.95 115.34,-334.25"/>
</g>
<!-- n2&#45;&gt;n3 -->
<g id="edge21" class="edge">
<title>n2&#45;&gt;n3</title>
<path fill="none" stroke="black" d="M124.64,-322.46C131.78,-332.64 140.56,-346.53 146,-360 154.02,-379.87 158.87,-403.67 161.67,-421.65"/>
<polygon fill="black" stroke="black" points="158.23,-422.35 163.12,-431.75 165.16,-421.36 158.23,-422.35"/>
</g>
<!-- n2&#45;&gt;b1 -->
<g id="edge23" class="edge">
<title>n2&#45;&gt;b1</title>
<path fill="none" stroke="black" d="M113,-287.7C113,-279.98 113,-270.71 113,-262.11"/>
<polygon fill="black" stroke="black" points="116.5,-262.1 113,-252.1 109.5,-262.1 116.5,-262.1"/>
</g>
</g>
</svg>
